<svg width="139" height="33" viewBox="0 0 139 33" fill="none" xmlns="http://www.w3.org/2000/svg">
<path d="M12.8272 25.4148C10.4074 25.4148 8.28726 24.8847 6.46669 23.8247C4.66916 22.7646 3.25187 21.3012 2.21484 19.4345C1.20084 17.5448 0.693848 15.3671 0.693848 12.9012C0.693848 10.4354 1.20084 8.26911 2.21484 6.40244C3.25187 4.51273 4.66916 3.03783 6.46669 1.97775C8.28726 0.917669 10.4074 0.387628 12.8272 0.387628C15.2239 0.387628 17.3325 0.917669 19.1531 1.97775C20.9737 3.03783 22.391 4.51273 23.405 6.40244C24.419 8.26911 24.9259 10.4354 24.9259 12.9012C24.9259 15.3671 24.419 17.5448 23.405 19.4345C22.391 21.3012 20.9737 22.7646 19.1531 23.8247C17.3325 24.8847 15.2239 25.4148 12.8272 25.4148ZM12.8272 21.4395C15.1317 21.4395 16.9638 20.679 18.3235 19.158C19.7062 17.637 20.3976 15.5514 20.3976 12.9012C20.3976 10.251 19.7062 8.16541 18.3235 6.64442C16.9638 5.12343 15.1317 4.36294 12.8272 4.36294C10.5227 4.36294 8.67903 5.12343 7.29632 6.64442C5.9136 8.16541 5.22224 10.251 5.22224 12.9012C5.22224 15.5514 5.9136 17.637 7.29632 19.158C8.67903 20.679 10.5227 21.4395 12.8272 21.4395Z" fill="white"/>
<path d="M28.729 32.6049V7.85429H32.6697L33.1536 10.3086C33.7067 9.54812 34.4327 8.87981 35.3314 8.30368C36.2532 7.72755 37.4401 7.43948 38.8919 7.43948C40.5051 7.43948 41.9454 7.83125 43.2129 8.61479C44.4804 9.39833 45.4829 10.4699 46.2203 11.8296C46.9578 13.1893 47.3265 14.7333 47.3265 16.4617C47.3265 18.1901 46.9578 19.7341 46.2203 21.0938C45.4829 22.4304 44.4804 23.4905 43.2129 24.274C41.9454 25.0345 40.5051 25.4148 38.8919 25.4148C37.6014 25.4148 36.4722 25.1728 35.5043 24.6889C34.5364 24.2049 33.7528 23.5251 33.1536 22.6494V32.6049H28.729ZM37.9586 21.5432C39.3643 21.5432 40.5281 21.0708 41.4499 20.1259C42.3718 19.181 42.8327 17.9596 42.8327 16.4617C42.8327 14.9638 42.3718 13.7308 41.4499 12.7629C40.5281 11.795 39.3643 11.3111 37.9586 11.3111C36.5298 11.3111 35.3545 11.795 34.4327 12.7629C33.5339 13.7078 33.0845 14.9292 33.0845 16.4271C33.0845 17.9251 33.5339 19.158 34.4327 20.1259C35.3545 21.0708 36.5298 21.5432 37.9586 21.5432Z" fill="white"/>
<path d="M58.2435 25C56.4459 25 55.0056 24.5621 53.9225 23.6864C52.8393 22.8107 52.2978 21.2551 52.2978 19.0197V11.5531H49.3595V7.85429H52.2978L52.8163 3.25676H56.7225V7.85429H61.3546V11.5531H56.7225V19.0543C56.7225 19.8839 56.8953 20.4601 57.241 20.7827C57.6097 21.0823 58.2319 21.2321 59.1077 21.2321H61.2509V25H58.2435Z" fill="white"/>
<path d="M67.5387 5.19257C66.7321 5.19257 66.0638 4.95059 65.5338 4.46664C65.0268 3.98269 64.7733 3.37199 64.7733 2.63454C64.7733 1.89709 65.0268 1.29791 65.5338 0.837008C66.0638 0.353059 66.7321 0.111084 67.5387 0.111084C68.3453 0.111084 69.0021 0.353059 69.5091 0.837008C70.0391 1.29791 70.3041 1.89709 70.3041 2.63454C70.3041 3.37199 70.0391 3.98269 69.5091 4.46664C69.0021 4.95059 68.3453 5.19257 67.5387 5.19257ZM65.3264 25V7.85429H69.7511V25H65.3264Z" fill="white"/>
<path d="M74.3694 25V7.85429H78.2756L78.6558 10.1703C79.2089 9.34071 79.9348 8.68392 80.8336 8.19997C81.7554 7.69298 82.8155 7.43948 84.0138 7.43948C86.664 7.43948 88.5422 8.46499 89.6484 10.516C90.2706 9.57117 91.1003 8.8222 92.1373 8.26911C93.1974 7.71602 94.3496 7.43948 95.5941 7.43948C97.8295 7.43948 99.5463 8.10779 100.745 9.44442C101.943 10.781 102.542 12.7399 102.542 15.321V25H98.1175V15.7358C98.1175 14.2609 97.8295 13.1317 97.2533 12.3481C96.7003 11.5646 95.8361 11.1728 94.6607 11.1728C93.4624 11.1728 92.4945 11.6107 91.757 12.4864C91.0426 13.3621 90.6854 14.5835 90.6854 16.1506V25H86.2607V15.7358C86.2607 14.2609 85.9727 13.1317 85.3965 12.3481C84.8204 11.5646 83.9332 11.1728 82.7348 11.1728C81.5595 11.1728 80.6031 11.6107 79.8657 12.4864C79.1513 13.3621 78.7941 14.5835 78.7941 16.1506V25H74.3694Z" fill="white"/>
<path d="M115.074 25.4148C113.346 25.4148 111.813 25.0461 110.476 24.3086C109.14 23.5712 108.091 22.5341 107.331 21.1975C106.57 19.8609 106.19 18.3168 106.19 16.5654C106.19 14.7909 106.559 13.2123 107.296 11.8296C108.057 10.4469 109.094 9.37528 110.407 8.61479C111.744 7.83125 113.311 7.43948 115.108 7.43948C116.791 7.43948 118.277 7.8082 119.568 8.54565C120.858 9.2831 121.861 10.2971 122.575 11.5876C123.313 12.8551 123.681 14.2724 123.681 15.8395C123.681 16.093 123.67 16.358 123.647 16.6345C123.647 16.9111 123.635 17.1992 123.612 17.4987H110.58C110.672 18.8354 111.133 19.8839 111.963 20.6444C112.815 21.4049 113.841 21.7852 115.039 21.7852C115.938 21.7852 116.687 21.5893 117.286 21.1975C117.908 20.7827 118.369 20.2526 118.669 19.6074H123.163C122.84 20.6905 122.299 21.6815 121.538 22.5802C120.801 23.4559 119.879 24.1473 118.773 24.6543C117.69 25.1613 116.457 25.4148 115.074 25.4148ZM115.108 11.0345C114.025 11.0345 113.069 11.3457 112.239 11.9679C111.41 12.5671 110.88 13.4889 110.649 14.7333H119.187C119.118 13.6041 118.704 12.7053 117.943 12.037C117.183 11.3687 116.238 11.0345 115.108 11.0345Z" fill="white"/>
<path d="M127.403 25V7.85429H131.344L131.758 11.0691C132.381 9.96294 133.222 9.08722 134.282 8.44195C135.365 7.77364 136.632 7.43948 138.084 7.43948V12.1061H136.84C135.872 12.1061 135.008 12.2559 134.247 12.5555C133.487 12.8551 132.888 13.3736 132.45 14.1111C132.035 14.8485 131.827 15.874 131.827 17.1876V25H127.403Z" fill="white"/>
</svg>
