<svg width="697" height="698" viewBox="0 0 697 698" fill="none" xmlns="http://www.w3.org/2000/svg">
<g clip-path="url(#clip0)">
<rect y="0.881836" width="696.218" height="696.218" rx="121.081" fill="#0F2C41"/>
<path opacity="0.07" d="M186.223 336.398C170.482 322.897 160.796 297.773 160.796 263.87C160.796 194.248 201.6 114.214 251.849 85.7595C302.158 57.2448 342.236 90.6633 341.752 160.83C341.51 194.188 331.945 229.967 316.507 261.085C304.58 285.06 296.77 311.819 294.167 336.701C293.138 347.356 286.781 358.374 279.456 362.612L223.274 395.001C215.888 399.3 209.592 395.425 208.441 386.041C205.899 364.186 198.15 346.751 186.223 336.398Z" fill="url(#paint0_linear)"/>
<path opacity="0.07" d="M209.531 451.426V436.533C209.531 428.541 214.132 419.521 219.884 416.07L282.967 379.624C288.719 376.295 293.32 380.048 293.32 388.04V402.933C293.32 414.92 287.023 428.239 278.79 434.777L223.94 466.44C215.767 469.527 209.531 463.292 209.531 451.426Z" fill="url(#paint1_linear)"/>
<path opacity="0.4" d="M216.494 360.493C200.753 346.993 191.066 321.868 191.066 287.965C191.066 218.344 231.871 138.309 282.12 109.855C332.429 81.34 372.507 114.758 372.023 184.925C371.78 218.283 362.215 254.063 346.777 285.181C334.851 309.155 327.041 335.914 324.438 360.796C323.408 371.451 317.052 382.47 309.726 386.707L253.544 419.097C246.158 423.395 239.862 419.521 238.712 410.137C236.169 388.281 228.42 370.785 216.494 360.493Z" fill="url(#paint2_linear)"/>
<path opacity="0.4" d="M239.802 475.521V460.628C239.802 452.637 244.403 443.616 250.154 440.165L313.237 403.72C318.989 400.39 323.59 404.143 323.59 412.135V427.028C323.59 439.015 317.294 452.334 309.06 458.872L254.21 490.535C246.037 493.623 239.802 487.387 239.802 475.521Z" fill="url(#paint3_linear)"/>
<path opacity="0.3" d="M372.325 480.727L552.494 376.718L552.434 470.616L388.126 565.423L372.204 588.974L372.325 480.727Z" fill="url(#paint4_linear)"/>
<path d="M571.625 413.345V387.857L503.638 427.088V452.575L571.625 413.345Z" fill="#245FFF"/>
<path opacity="0.15" d="M418.639 476.853L458.111 454.09V462.323L418.639 485.087V476.853Z" fill="white"/>
<path opacity="0.15" d="M418.578 493.38L494.678 449.488V457.722L418.578 501.614V493.38Z" fill="white"/>
<path opacity="0.15" d="M418.578 509.847L510.782 456.632V464.865L418.578 518.081V509.847Z" fill="white"/>
<path d="M408.892 491.079C408.892 498.829 404.291 507.728 398.66 510.997C393.03 514.267 388.429 510.634 388.429 502.885C388.429 495.136 393.03 486.236 398.66 482.967C404.291 479.698 408.892 483.33 408.892 491.079Z" fill="#245FFF"/>
<path opacity="0.3" d="M358.28 424.242L178.111 528.251L178.05 622.15L342.297 527.343L358.159 532.55L358.28 424.242Z" fill="url(#paint5_linear)"/>
<path d="M230.539 544.779V519.291L162.552 558.582V584.07L230.539 544.779Z" fill="white"/>
<path opacity="0.15" d="M311.966 473.886L272.494 496.649V504.883L311.966 482.119V473.886Z" fill="white"/>
<path opacity="0.15" d="M311.966 490.354L240.71 531.461V539.694L311.966 498.587V490.354Z" fill="white"/>
<path opacity="0.15" d="M311.905 506.881L219.762 560.096V568.33L311.966 515.114L311.905 506.881Z" fill="white"/>
<path d="M321.652 476.853C321.652 484.602 326.253 488.234 331.884 484.965C337.514 481.696 342.115 472.796 342.115 465.047C342.115 457.298 337.514 453.666 331.884 456.935C326.253 460.204 321.652 469.103 321.652 476.853Z" fill="white"/>
<path opacity="0.15" d="M157.284 416.372L152.744 426.422L191.005 435.321L151.23 490.716L155.771 495.499L204.627 427.451L157.284 416.372Z" fill="white"/>
<path d="M144.631 427.633C144.631 435.443 149.232 439.136 154.863 435.927C160.493 432.658 165.094 423.698 165.094 415.828C165.094 408.018 160.493 404.325 154.863 407.533C149.172 410.803 144.631 419.823 144.631 427.633Z" fill="#245FFF"/>
<path d="M144.631 497.013C144.631 504.823 149.232 508.516 154.863 505.307C160.493 502.038 165.094 493.078 165.094 485.207C165.094 477.398 160.493 473.705 154.863 476.913C149.172 480.243 144.631 489.203 144.631 497.013Z" fill="#245FFF"/>
<path d="M188.281 436.23C188.281 444.039 192.882 447.732 198.513 444.524C204.143 441.255 208.744 432.294 208.744 424.424C208.744 416.614 204.143 412.921 198.513 416.13C192.882 419.339 188.281 428.42 188.281 436.23Z" fill="white"/>
<path opacity="0.3" d="M473.67 228.878L372.204 287.421V475.4L473.67 416.857V228.878Z" fill="url(#paint6_linear)"/>
<path opacity="0.15" d="M463.742 340.454L382.254 387.494V395.728L463.742 348.748V340.454Z" fill="white"/>
<path opacity="0.15" d="M458.051 359.827L388.005 400.268V408.502L458.051 368.061V359.827Z" fill="white"/>
<path d="M428.447 393.428L499.037 352.684V373.691L428.447 414.435V393.428Z" fill="white"/>
<path d="M411.435 302.797C411.435 311.879 416.702 316.177 423.179 312.423C429.657 308.609 434.924 298.196 434.924 289.055C434.924 279.974 429.657 275.675 423.179 279.429C416.702 283.243 411.435 293.716 411.435 302.797Z" fill="white"/>
<path d="M423.179 319.749C433.653 313.635 442.31 319.386 443.824 332.523C444.066 334.824 442.371 337.851 440.252 339.062L406.107 359.04C403.988 360.251 402.293 359.282 402.535 356.679C404.049 341.665 412.706 325.864 423.179 319.749Z" fill="white"/>
<path opacity="0.2" d="M324.68 610.89C361.307 563.789 334.79 546.717 324.68 574.323C314.509 558.462 288.052 606.047 324.68 610.89Z" fill="url(#paint7_linear)"/>
</g>
<defs>
<linearGradient id="paint0_linear" x1="180.227" y1="164.17" x2="365.508" y2="332.869" gradientUnits="userSpaceOnUse">
<stop stop-color="white"/>
<stop offset="1" stop-color="white" stop-opacity="0"/>
</linearGradient>
<linearGradient id="paint1_linear" x1="84.3436" y1="269.447" x2="269.625" y2="438.147" gradientUnits="userSpaceOnUse">
<stop stop-color="white"/>
<stop offset="1" stop-color="white" stop-opacity="0"/>
</linearGradient>
<linearGradient id="paint2_linear" x1="210.509" y1="188.253" x2="395.79" y2="356.953" gradientUnits="userSpaceOnUse">
<stop stop-color="white"/>
<stop offset="1" stop-color="white" stop-opacity="0"/>
</linearGradient>
<linearGradient id="paint3_linear" x1="114.625" y1="293.531" x2="299.907" y2="462.231" gradientUnits="userSpaceOnUse">
<stop stop-color="white"/>
<stop offset="1" stop-color="white" stop-opacity="0"/>
</linearGradient>
<linearGradient id="paint4_linear" x1="411.588" y1="443.117" x2="504.609" y2="515.95" gradientUnits="userSpaceOnUse">
<stop stop-color="white"/>
<stop offset="1" stop-color="white" stop-opacity="0"/>
</linearGradient>
<linearGradient id="paint5_linear" x1="280.892" y1="427.301" x2="257.603" y2="616.206" gradientUnits="userSpaceOnUse">
<stop stop-color="white"/>
<stop offset="1" stop-color="white" stop-opacity="0"/>
</linearGradient>
<linearGradient id="paint6_linear" x1="361.392" y1="245.446" x2="451.457" y2="401.483" gradientUnits="userSpaceOnUse">
<stop stop-color="white"/>
<stop offset="1" stop-color="white" stop-opacity="0"/>
</linearGradient>
<linearGradient id="paint7_linear" x1="316.924" y1="576.14" x2="344.024" y2="599.551" gradientUnits="userSpaceOnUse">
<stop stop-color="white"/>
<stop offset="1" stop-color="white" stop-opacity="0"/>
</linearGradient>
<clipPath id="clip0">
<rect width="696.218" height="696.218" fill="white" transform="translate(0 0.881836)"/>
</clipPath>
</defs>
</svg>
