<svg width="697" height="698" viewBox="0 0 697 698" fill="none" xmlns="http://www.w3.org/2000/svg">
<g clip-path="url(#clip0)">
<rect x="0.599121" y="0.881836" width="696.218" height="696.218" rx="121.081" fill="#0F2C41"/>
<path opacity="0.2" d="M422.568 296.139L523.671 237.778V290.448L422.568 348.81V296.139Z" fill="url(#paint0_linear)"/>
<path d="M503.148 267.322C503.148 271.681 505.691 273.679 508.899 271.863C512.047 270.047 514.651 265.022 514.651 260.663C514.651 256.304 512.108 254.306 508.899 256.122C505.691 257.939 503.148 262.963 503.148 267.322Z" fill="white"/>
<path opacity="0.15" d="M497.821 263.811L460.952 285.06V293.294L497.821 272.044V263.811Z" fill="white"/>
<path opacity="0.15" d="M497.76 281.489L432.981 318.842V327.076L497.76 289.722V281.489Z" fill="white"/>
<path opacity="0.07" d="M343.139 126.081L229.746 191.525V435.625L343.078 370.181L343.139 126.081Z" fill="url(#paint1_linear)"/>
<path opacity="0.3" d="M369.353 148.118L255.96 213.562V457.662L369.292 392.218L369.353 148.118Z" fill="url(#paint2_linear)"/>
<path opacity="0.15" d="M358.395 284.152L267.342 336.702V344.935L358.395 292.386V284.152Z" fill="white"/>
<path opacity="0.15" d="M352.038 304.191L273.759 349.415V357.649L352.038 312.425V304.191Z" fill="white"/>
<path d="M398.958 336.278V309.035L332.06 347.66V374.903L398.958 336.278Z" fill="#245FFF"/>
<path opacity="0.2" d="M165.573 330.466C170.779 322.172 177.984 321.082 178.286 321.022C179.013 320.9 179.437 321.566 179.437 322.535V344.451C179.437 351.897 181.979 356.68 187.004 358.738C187.489 358.92 187.791 359.465 187.791 360.191C187.791 370.725 187.61 415.949 187.549 430.055C187.549 432.416 185.915 435.201 183.917 436.352C173.201 442.587 142.265 460.447 142.265 460.447C134.031 465.23 128.764 462.263 127.856 452.455L127.735 409.048C127.735 402.449 128.885 395.668 132.518 390.038C134.576 386.829 136.998 384.347 139.54 382.894L160.669 370.725V350.384C160.608 342.392 162.304 335.733 165.573 330.466Z" fill="url(#paint3_linear)"/>
<path d="M216.064 341.484L192.453 355.106V432.356L216.064 418.734V341.484Z" fill="white"/>
<path opacity="0.3" d="M388.847 194.491L569.016 90.4824L568.956 184.381L404.709 279.188L388.787 302.738L388.847 194.491Z" fill="url(#paint4_linear)"/>
<path opacity="0.15" d="M435.161 190.556L474.633 167.793V176.027L435.161 198.85V190.556Z" fill="white"/>
<path opacity="0.15" d="M435.161 207.084L532.934 150.66V158.894L435.161 215.318V207.084Z" fill="white"/>
<path opacity="0.15" d="M435.161 223.612L553.094 155.503V163.737L435.161 231.845V223.612Z" fill="white"/>
<path d="M425.474 204.784C425.474 212.533 420.873 221.432 415.243 224.701C409.613 227.971 405.012 224.338 405.012 216.589C405.012 208.84 409.613 199.94 415.243 196.671C420.873 193.402 425.474 197.034 425.474 204.784Z" fill="#245FFF"/>
<path opacity="0.3" d="M311.174 409.108L131.065 513.117L131.004 607.016L295.251 512.209L311.113 517.416L311.174 409.108Z" fill="url(#paint5_linear)"/>
<path opacity="0.15" d="M264.86 458.752L225.387 481.515V489.749L264.86 466.986V458.752Z" fill="white"/>
<path opacity="0.15" d="M264.859 475.219L193.603 516.326V524.559L264.859 483.452V475.219Z" fill="white"/>
<path opacity="0.15" d="M264.86 491.746L172.656 544.961V553.195L264.86 499.98V491.746Z" fill="white"/>
<path d="M274.546 461.718C274.546 469.467 279.147 473.1 284.778 469.83C290.408 466.561 295.009 457.662 295.009 449.912C295.009 442.163 290.408 438.531 284.778 441.8C279.147 445.069 274.546 453.969 274.546 461.718Z" fill="white"/>
<path opacity="0.2" d="M373.531 393.004C369.898 395.063 366.992 400.148 366.992 404.325V422.79L354.763 429.813C351.131 431.872 348.225 436.957 348.225 441.134C348.225 445.312 351.131 447.007 354.763 444.948L366.992 437.926V456.391C366.992 460.568 369.898 462.263 373.531 460.205C377.163 458.146 380.069 453.061 380.069 448.883V430.419L392.298 423.396C395.931 421.337 398.837 416.252 398.837 412.075C398.837 407.897 395.931 406.202 392.298 408.261L380.069 415.283V396.818C380.13 392.641 377.163 390.885 373.531 393.004Z" fill="url(#paint6_linear)"/>
<path opacity="0.05" d="M312.929 275.132C364.873 207.569 327.277 183.11 312.929 222.704C298.521 199.941 260.925 268.17 312.929 275.132Z" fill="url(#paint7_linear)"/>
<path opacity="0.3" d="M325.038 287.24C376.982 219.677 339.386 195.218 325.038 234.812C310.629 212.049 273.033 280.278 325.038 287.24Z" fill="white"/>
</g>
<defs>
<linearGradient id="paint0_linear" x1="461.737" y1="273.561" x2="484.54" y2="313.067" gradientUnits="userSpaceOnUse">
<stop stop-color="white"/>
<stop offset="1" stop-color="white" stop-opacity="0"/>
</linearGradient>
<linearGradient id="paint1_linear" x1="220.642" y1="166.845" x2="334.943" y2="364.872" gradientUnits="userSpaceOnUse">
<stop stop-color="white"/>
<stop offset="1" stop-color="white" stop-opacity="0"/>
</linearGradient>
<linearGradient id="paint2_linear" x1="246.839" y1="188.883" x2="361.139" y2="386.909" gradientUnits="userSpaceOnUse">
<stop stop-color="white"/>
<stop offset="1" stop-color="white" stop-opacity="0"/>
</linearGradient>
<linearGradient id="paint3_linear" x1="180.115" y1="383.175" x2="104.253" y2="412.208" gradientUnits="userSpaceOnUse">
<stop stop-color="white"/>
<stop offset="1" stop-color="white" stop-opacity="0"/>
</linearGradient>
<linearGradient id="paint4_linear" x1="428.145" y1="156.86" x2="521.167" y2="229.693" gradientUnits="userSpaceOnUse">
<stop stop-color="white"/>
<stop offset="1" stop-color="white" stop-opacity="0"/>
</linearGradient>
<linearGradient id="paint5_linear" x1="233.798" y1="412.173" x2="210.507" y2="601.079" gradientUnits="userSpaceOnUse">
<stop stop-color="white"/>
<stop offset="1" stop-color="white" stop-opacity="0"/>
</linearGradient>
<linearGradient id="paint6_linear" x1="360.902" y1="416.601" x2="392.599" y2="441.616" gradientUnits="userSpaceOnUse">
<stop stop-color="white"/>
<stop offset="1" stop-color="white" stop-opacity="0"/>
</linearGradient>
<linearGradient id="paint7_linear" x1="301.822" y1="225.432" x2="340.629" y2="258.614" gradientUnits="userSpaceOnUse">
<stop stop-color="white"/>
<stop offset="1" stop-color="white" stop-opacity="0"/>
</linearGradient>
<clipPath id="clip0">
<rect width="696.218" height="696.218" fill="white" transform="translate(0.599121 0.881836)"/>
</clipPath>
</defs>
</svg>
