<svg width="698" height="698" viewBox="0 0 698 698" fill="none" xmlns="http://www.w3.org/2000/svg">
<g clip-path="url(#clip0)">
<rect x="0.898926" y="0.881836" width="696.218" height="696.218" rx="121.081" fill="#0F2C41"/>
<path opacity="0.3" d="M615.266 403.841C674.354 352.503 682.648 401.359 686.644 402.146C686.644 402.146 688.399 413.952 686.644 456.996L110.659 789.425V555.496C176.104 438.229 219.451 356.317 262.132 394.094C335.992 459.539 371.953 503.491 459.798 412.68C511.802 358.92 544.312 465.472 615.266 403.841Z" fill="url(#paint0_linear)"/>
<path opacity="0.3" d="M539.166 445.13C598.254 393.791 606.548 442.648 610.544 443.435C610.544 443.435 612.299 455.24 610.544 498.285L34.5591 830.714V596.784C127.792 461.415 189.241 486.6 242.516 506.155C294.703 525.286 313.833 485.329 379.883 428.36C434.249 381.441 468.212 506.7 539.166 445.13Z" fill="url(#paint1_linear)"/>
<path d="M223.386 391.128C223.386 386.284 226.232 380.775 229.682 378.777C233.133 376.779 235.979 379.019 235.979 383.863C235.979 388.706 233.133 394.215 229.682 396.213C226.171 398.211 223.386 395.971 223.386 391.128Z" fill="#245FFF"/>
<path d="M390.357 423.698C390.357 419.037 393.263 413.588 396.896 411.53C400.528 409.471 403.434 411.53 403.434 416.191C403.434 420.853 400.528 426.302 396.896 428.36C393.324 430.418 390.357 428.36 390.357 423.698Z" fill="white"/>
<path opacity="0.07" d="M263.646 81.2803L151.888 145.817V365.458L263.646 300.983V81.2803Z" fill="white"/>
<path opacity="0.3" d="M285.44 100.169L173.682 164.705V384.347L221.994 356.498L229.561 362.674L237.129 347.72L285.44 319.871V100.169Z" fill="url(#paint2_linear)"/>
<path opacity="0.1" d="M188.333 233.177C188.333 240.2 189.362 246.617 191.299 252.005C193.236 257.393 196.082 261.631 199.654 264.537C203.226 267.443 207.524 268.896 212.186 268.896C216.847 268.896 221.933 267.382 226.957 264.416V210.837L188.333 233.177Z" fill="white"/>
<path opacity="0.3" d="M227.019 264.416C233.799 260.48 240.459 254.184 246.331 246.072C252.203 237.959 257.107 228.394 260.498 218.284C263.888 208.173 265.704 197.881 265.704 188.498C265.704 179.114 263.888 170.88 260.498 164.705L227.019 210.837V264.416Z" fill="white"/>
<path d="M188.333 233.177C188.333 221.371 191.117 208.295 196.324 195.944C201.53 183.594 208.795 172.697 216.968 164.887C225.202 157.077 233.92 152.839 241.79 152.839C249.66 152.839 256.199 157.017 260.497 164.766L227.018 210.898L188.333 233.177Z" fill="#245FFF"/>
<path opacity="0.15" d="M270.85 266.777L202.742 306.068V314.302L270.85 275.011V266.777Z" fill="white"/>
<path opacity="0.15" d="M270.85 282.881L188.272 330.526V338.76L270.911 291.114L270.85 282.881Z" fill="white"/>
<path opacity="0.15" d="M270.91 298.924L217.392 329.8V338.034L270.91 307.158V298.924Z" fill="white"/>
<path opacity="0.07" d="M431.283 114.093L319.524 178.63V398.271L431.283 333.796V114.093Z" fill="white"/>
<path opacity="0.3" d="M452.836 133.164L341.078 197.639V417.281L389.329 389.493L396.896 395.668L404.524 380.715L452.836 352.805V133.164Z" fill="url(#paint3_linear)"/>
<path opacity="0.1" d="M355.667 266.111C355.667 275.495 357.484 283.729 360.874 289.904C364.264 296.079 369.168 300.014 375.041 301.346L394.353 243.772L355.667 266.111Z" fill="white"/>
<path opacity="0.3" d="M374.98 301.346C382.366 302.98 390.903 300.377 399.378 294.02C407.794 287.603 415.664 277.735 421.657 265.929L394.293 243.832L374.98 301.346Z" fill="white"/>
<path d="M355.667 266.111C355.667 257.272 357.242 247.707 360.208 238.202C363.175 228.697 367.533 219.555 372.8 211.624C378.068 203.693 384.182 197.155 390.478 192.615C396.835 188.074 403.192 185.713 409.064 185.713C414.937 185.713 420.143 188.013 424.139 192.493C428.195 196.973 430.92 203.451 432.191 211.382C433.462 219.313 433.099 228.394 431.283 237.899C429.467 247.404 426.137 256.969 421.596 265.808L394.232 243.711L355.667 266.111Z" fill="white"/>
<path opacity="0.15" d="M438.245 299.711L360.935 344.329V352.563L438.245 307.944V299.711Z" fill="white"/>
<path opacity="0.15" d="M438.245 315.815L357.968 362.19V370.423L438.245 324.049V315.815Z" fill="white"/>
<path opacity="0.15" d="M438.245 331.919L384.727 362.795V371.028L438.245 340.152V331.919Z" fill="white"/>
</g>
<defs>
<linearGradient id="paint0_linear" x1="293.813" y1="262.677" x2="367.162" y2="495.732" gradientUnits="userSpaceOnUse">
<stop stop-color="white"/>
<stop offset="1" stop-color="white" stop-opacity="0"/>
</linearGradient>
<linearGradient id="paint1_linear" x1="262.006" y1="363.016" x2="303.666" y2="551.588" gradientUnits="userSpaceOnUse">
<stop stop-color="white"/>
<stop offset="1" stop-color="white" stop-opacity="0"/>
</linearGradient>
<linearGradient id="paint2_linear" x1="229.561" y1="130.916" x2="229.561" y2="426.71" gradientUnits="userSpaceOnUse">
<stop stop-color="white" stop-opacity="0"/>
<stop offset="1" stop-color="white"/>
</linearGradient>
<linearGradient id="paint3_linear" x1="396.957" y1="166.929" x2="396.957" y2="447.02" gradientUnits="userSpaceOnUse">
<stop stop-color="white" stop-opacity="0"/>
<stop offset="1" stop-color="white"/>
</linearGradient>
<clipPath id="clip0">
<rect width="696.218" height="696.218" fill="white" transform="translate(0.898926 0.881836)"/>
</clipPath>
</defs>
</svg>
