<svg width="697" height="698" viewBox="0 0 697 698" fill="none" xmlns="http://www.w3.org/2000/svg">
<g clip-path="url(#clip0)">
<rect x="0.19873" y="0.881836" width="696.218" height="696.218" rx="121.081" fill="#0F2C41"/>
<path d="M329.42 366.912C319.007 379.928 307.443 394.216 299.331 404.205C290.31 377.083 302.358 339.184 315.798 310.851C319.067 328.468 323.547 347.115 329.42 366.912Z" fill="white"/>
<path d="M392.867 266.536C406.246 279.371 418.233 303.345 409.213 340.82C401.1 340.154 389.598 339.246 379.185 338.277C385.118 311.639 389.598 287.846 392.867 266.536Z" fill="#245FFF"/>
<path opacity="0.2" d="M364.11 400.028C438.878 112.702 377.369 88.3042 354.121 78.4966C330.873 115.184 269.364 210.596 344.253 411.471L364.11 400.028Z" fill="url(#paint0_linear)"/>
<path opacity="0.1" d="M342.073 383.501C416.902 96.2348 355.392 71.8369 332.084 61.9688C308.836 98.6564 247.327 194.069 322.216 394.943L342.073 383.501Z" fill="url(#paint1_linear)"/>
<path opacity="0.15" d="M344.253 411.471C269.364 210.596 330.873 115.184 354.121 78.4966V405.78L344.253 411.471Z" fill="url(#paint2_linear)"/>
<path opacity="0.1" d="M331.781 179.66C331.781 197.156 342.073 205.39 354.787 198.064C367.5 190.739 377.792 170.579 377.792 153.083C377.792 135.586 367.5 127.353 354.787 134.678C342.073 142.004 331.781 162.164 331.781 179.66Z" fill="white"/>
<path opacity="0.1" d="M354.303 608.349C341.831 635.774 323.245 659.384 302.48 671.372C264.945 693.045 234.493 668.587 234.432 616.764C234.432 564.941 264.884 505.308 302.419 483.635C314.77 476.491 326.333 474.372 336.322 476.551C341.589 467.955 344.132 457.057 346.372 447.492C348.975 436.474 351.155 427.09 356.603 424.729C362.839 422.004 365.624 428.906 369.559 438.471C371.86 444.102 374.584 450.761 378.58 456.876C382.878 452.335 387.419 448.582 392.201 445.857C412.24 434.294 428.949 444.283 432.885 468.136C435.609 466.078 438.333 464.201 441.118 462.567C473.265 444.041 499.298 465.049 499.298 509.607C499.298 554.104 473.265 605.201 441.179 623.726C410 641.707 384.513 622.394 383.06 580.56C377.187 591.458 369.377 600.599 360.72 605.564C358.601 606.775 356.422 607.683 354.303 608.349Z" fill="url(#paint3_linear)"/>
<path opacity="0.3" d="M275.902 278.281L111.958 372.906L111.897 458.329L261.312 372.059L275.781 376.781L275.902 278.281Z" fill="url(#paint4_linear)"/>
<path d="M159.664 387.92V364.732L97.7915 400.451V423.639L159.664 387.92Z" fill="white"/>
<path opacity="0.1" d="M233.705 323.384L197.805 344.149V351.656L233.705 330.951V323.384Z" fill="white"/>
<path opacity="0.1" d="M233.705 338.397L168.866 375.812V383.319L233.705 345.905V338.397Z" fill="white"/>
<path opacity="0.15" d="M233.705 353.412L149.856 401.845V409.352L233.705 360.919V353.412Z" fill="white"/>
<path d="M242.544 326.108C242.544 333.13 246.721 336.46 251.867 333.494C257.013 330.527 261.19 322.415 261.19 315.392C261.19 308.369 257.013 305.039 251.867 308.006C246.721 310.972 242.544 319.085 242.544 326.108Z" fill="white"/>
<path opacity="0.3" d="M417.265 157.623L581.148 63.0586L581.088 148.482L431.673 234.692L417.204 256.123L417.265 157.623Z" fill="url(#paint5_linear)"/>
<path d="M598.584 96.3556V73.1685L536.711 108.887V132.075L598.584 96.3556Z" fill="#245FFF"/>
<path opacity="0.15" d="M459.401 154.112L495.302 133.407V140.914L459.401 161.619V154.112Z" fill="white"/>
<path opacity="0.15" d="M459.341 169.126L528.539 129.169V136.676L459.341 176.633V169.126Z" fill="white"/>
<path opacity="0.15" d="M459.341 184.14L543.19 135.708V143.215L459.341 191.647V184.14Z" fill="white"/>
<path d="M450.502 167.007C450.502 174.029 446.324 182.142 441.178 185.108C436.032 188.075 431.855 184.745 431.855 177.722C431.855 170.7 436.032 162.587 441.178 159.621C446.385 156.715 450.562 159.984 450.502 167.007Z" fill="#245FFF"/>
<path opacity="0.2" d="M439.06 248.798L536.954 192.313V243.289L439.06 299.773V248.798Z" fill="url(#paint6_linear)"/>
<path opacity="0.15" d="M511.89 219.012L478.35 238.385V244.499L511.89 225.126V219.012Z" fill="white"/>
<path opacity="0.15" d="M511.829 231.301L449.109 267.505V273.68L511.829 237.476V231.301Z" fill="white"/>
<path d="M517.036 220.828C517.036 225.005 519.518 227.003 522.606 225.247C525.693 223.492 528.176 218.649 528.176 214.411C528.176 210.233 525.693 208.236 522.606 209.991C519.518 211.807 517.036 216.651 517.036 220.828Z" fill="#245FFF"/>
<path opacity="0.2" d="M148.282 287.301L246.177 230.817V281.792L148.282 338.337V287.301Z" fill="url(#paint7_linear)"/>
<path opacity="0.15" d="M221.113 257.575L187.573 276.948V283.063L221.113 263.69V257.575Z" fill="white"/>
<path opacity="0.15" d="M221.113 269.866L158.393 306.069V312.244L221.113 276.041V269.866Z" fill="white"/>
<path d="M226.259 259.392C226.259 263.569 228.741 265.567 231.829 263.811C234.916 262.056 237.398 257.212 237.398 252.975C237.398 248.797 234.916 246.799 231.829 248.555C228.741 250.311 226.259 255.215 226.259 259.392Z" fill="white"/>
</g>
<defs>
<linearGradient id="paint0_linear" x1="266.864" y1="88.6835" x2="455.056" y2="414.728" gradientUnits="userSpaceOnUse">
<stop stop-color="white"/>
<stop offset="1" stop-color="white" stop-opacity="0"/>
</linearGradient>
<linearGradient id="paint1_linear" x1="244.833" y1="72.1604" x2="433.024" y2="398.204" gradientUnits="userSpaceOnUse">
<stop stop-color="white"/>
<stop offset="1" stop-color="white" stop-opacity="0"/>
</linearGradient>
<linearGradient id="paint2_linear" x1="301.959" y1="159.78" x2="447.234" y2="421.909" gradientUnits="userSpaceOnUse">
<stop stop-color="white" stop-opacity="0"/>
<stop offset="1" stop-color="white"/>
</linearGradient>
<linearGradient id="paint3_linear" x1="315.625" y1="476.018" x2="396.909" y2="616.844" gradientUnits="userSpaceOnUse">
<stop stop-color="white"/>
<stop offset="1" stop-color="white" stop-opacity="0"/>
</linearGradient>
<linearGradient id="paint4_linear" x1="205.466" y1="281.047" x2="184.277" y2="452.902" gradientUnits="userSpaceOnUse">
<stop stop-color="white"/>
<stop offset="1" stop-color="white" stop-opacity="0"/>
</linearGradient>
<linearGradient id="paint5_linear" x1="452.983" y1="123.418" x2="537.608" y2="189.677" gradientUnits="userSpaceOnUse">
<stop stop-color="white"/>
<stop offset="1" stop-color="white" stop-opacity="0"/>
</linearGradient>
<linearGradient id="paint6_linear" x1="476.956" y1="226.898" x2="499.032" y2="265.146" gradientUnits="userSpaceOnUse">
<stop stop-color="white"/>
<stop offset="1" stop-color="white" stop-opacity="0"/>
</linearGradient>
<linearGradient id="paint7_linear" x1="186.201" y1="265.448" x2="208.279" y2="303.696" gradientUnits="userSpaceOnUse">
<stop stop-color="white"/>
<stop offset="1" stop-color="white" stop-opacity="0"/>
</linearGradient>
<clipPath id="clip0">
<rect width="696.218" height="696.218" fill="white" transform="translate(0.19873 0.881836)"/>
</clipPath>
</defs>
</svg>
