<svg width="698" height="697" viewBox="0 0 698 697" fill="none" xmlns="http://www.w3.org/2000/svg">
<g clip-path="url(#clip0)">
<rect x="0.898926" y="0.299805" width="696.218" height="696.218" rx="121.081" fill="#0F2C41"/>
<path opacity="0.1" d="M331.572 123.864L572.343 486.321L331.633 347.32L331.572 123.864Z" fill="url(#paint0_linear)"/>
<path opacity="0.4" d="M561.446 511.627C563.928 513.08 565.017 510.113 563.08 507.207L308.446 123.924C306.751 121.321 304.208 121.26 304.208 123.803L304.269 360.033C304.269 361.728 305.419 363.726 306.872 364.573L561.446 511.627ZM341.925 233.018C341.925 230.476 344.468 230.536 346.163 233.139L457.8 400.958C459.737 403.864 458.647 406.831 456.165 405.378L344.589 340.902C343.136 340.054 341.985 338.057 341.985 336.361L341.925 233.018Z" fill="url(#paint1_linear)"/>
<path opacity="0.3" d="M424.502 131.794L604.672 235.864V329.763L440.425 234.835L424.563 240.041L424.502 131.794Z" fill="url(#paint2_linear)"/>
<path d="M461.069 184.404C461.069 192.154 456.468 195.786 450.837 192.517C445.207 189.248 440.606 180.348 440.606 172.599C440.606 164.85 445.207 161.217 450.837 164.487C456.528 167.756 461.069 176.655 461.069 184.404Z" fill="white"/>
<path opacity="0.15" d="M470.816 181.377L510.288 204.201V212.435L470.816 189.611V181.377Z" fill="white"/>
<path opacity="0.15" d="M470.816 197.905L588.689 266.014V274.247L470.816 206.139V197.905Z" fill="white"/>
<path opacity="0.15" d="M470.816 214.433L563.019 267.708V275.942L470.816 222.666V214.433Z" fill="white"/>
<path opacity="0.3" d="M273.211 363.181L93.1021 259.112V353.01L257.349 447.878L273.271 471.428L273.211 363.181Z" fill="url(#paint3_linear)"/>
<path d="M236.645 373.473C236.645 381.223 241.246 390.122 246.876 393.391C252.506 396.66 257.107 393.028 257.107 385.279C257.107 377.53 252.506 368.63 246.876 365.361C241.246 362.152 236.645 365.785 236.645 373.473Z" fill="#245FFF"/>
<path opacity="0.15" d="M226.897 359.307L187.425 336.483V344.716L226.897 367.54V359.307Z" fill="white"/>
<path opacity="0.15" d="M226.958 375.774L109.024 307.666V315.899L226.897 384.007L226.958 375.774Z" fill="white"/>
<path opacity="0.15" d="M226.958 392.301L134.754 339.025V347.259L226.958 400.535V392.301Z" fill="white"/>
<path opacity="0.2" d="M209.159 120.353L284.411 163.821L284.472 326.857L209.159 283.389V120.353Z" fill="url(#paint4_linear)"/>
<path d="M185.608 165.092L244.817 199.297V218.852L185.608 184.646V165.092Z" fill="#245FFF"/>
<path opacity="0.15" d="M209.159 259.172L284.411 302.641V326.796L209.159 283.328V259.172Z" fill="white"/>
<path opacity="0.15" d="M218.421 149.957L249.297 167.756V175.989L218.421 158.19V149.957Z" fill="white"/>
<path opacity="0.15" d="M218.482 166.484L273.09 198.026V206.26L218.482 174.718V166.484Z" fill="white"/>
<path opacity="0.15" d="M250.508 256.69V264.924L218.482 246.398V238.165L250.508 256.69Z" fill="white"/>
<path opacity="0.2" d="M368.139 413.309L292.887 369.841L292.947 532.877L368.199 576.345L368.139 413.309Z" fill="url(#paint5_linear)"/>
<path d="M391.689 485.231L332.48 451.026V470.581L391.689 504.786V485.231Z" fill="white"/>
<path opacity="0.15" d="M368.2 552.129L292.948 508.661V532.816L368.2 576.285V552.129Z" fill="white"/>
<path opacity="0.15" d="M304.268 400.656L335.144 418.455V426.688L304.268 408.889V400.656Z" fill="white"/>
<path opacity="0.15" d="M304.268 417.184L358.876 448.725V456.959L304.268 425.417V417.184Z" fill="white"/>
<path opacity="0.15" d="M326.851 501.94V510.174L358.877 528.699V520.466L326.851 501.94Z" fill="white"/>
<path opacity="0.2" d="M521.731 309.603C525.363 311.661 528.269 316.747 528.269 320.924V339.389L540.498 346.412C544.131 348.47 547.037 353.555 547.037 357.733C547.037 361.91 544.131 363.605 540.498 361.547L528.269 354.524V372.989C528.269 377.166 525.363 378.861 521.731 376.803C518.098 374.745 515.192 369.659 515.192 365.482V347.017L502.963 339.934C499.331 337.875 496.425 332.79 496.425 328.552C496.425 324.375 499.331 322.68 502.963 324.738L515.192 331.761V313.296C515.192 309.179 518.098 307.484 521.731 309.603Z" fill="url(#paint6_linear)"/>
</g>
<defs>
<linearGradient id="paint0_linear" x1="506.958" y1="209.922" x2="383.691" y2="423.297" gradientUnits="userSpaceOnUse">
<stop stop-color="white"/>
<stop offset="1" stop-color="white" stop-opacity="0"/>
</linearGradient>
<linearGradient id="paint1_linear" x1="493.781" y1="213.747" x2="368.95" y2="429.697" gradientUnits="userSpaceOnUse">
<stop stop-color="white"/>
<stop offset="0.8963" stop-color="white" stop-opacity="0"/>
</linearGradient>
<linearGradient id="paint2_linear" x1="501.926" y1="134.864" x2="525.098" y2="323.765" gradientUnits="userSpaceOnUse">
<stop stop-color="white"/>
<stop offset="1" stop-color="white" stop-opacity="0"/>
</linearGradient>
<linearGradient id="paint3_linear" x1="233.945" y1="325.553" x2="140.918" y2="398.355" gradientUnits="userSpaceOnUse">
<stop stop-color="white"/>
<stop offset="1" stop-color="white" stop-opacity="0"/>
</linearGradient>
<linearGradient id="paint4_linear" x1="282.088" y1="162.495" x2="217.041" y2="275.092" gradientUnits="userSpaceOnUse">
<stop stop-color="white"/>
<stop offset="1" stop-color="white" stop-opacity="0"/>
</linearGradient>
<linearGradient id="paint5_linear" x1="365.856" y1="411.986" x2="300.808" y2="524.584" gradientUnits="userSpaceOnUse">
<stop stop-color="white"/>
<stop offset="1" stop-color="white" stop-opacity="0"/>
</linearGradient>
<linearGradient id="paint6_linear" x1="534.368" y1="333.194" x2="502.67" y2="358.209" gradientUnits="userSpaceOnUse">
<stop stop-color="white"/>
<stop offset="1" stop-color="white" stop-opacity="0"/>
</linearGradient>
<clipPath id="clip0">
<rect width="696.218" height="696.218" fill="white" transform="translate(0.898926 0.299805)"/>
</clipPath>
</defs>
</svg>
