<svg width="420" height="351" viewBox="0 0 420 351" fill="none" xmlns="http://www.w3.org/2000/svg">
<path d="M269.269 161.86L269.417 162.611L270.181 162.664C291.334 164.128 308 181.535 308 203C308 225.447 289.781 243.666 267.333 243.666H159C131.969 243.666 110 221.697 110 194.666C109.999 182.593 114.459 170.946 122.523 161.962C130.588 152.978 141.688 147.291 153.691 145.994L154.223 145.936L154.47 145.462C164.722 125.779 185.305 112.333 209 112.333L209 112.333C223.228 112.33 237.015 117.266 248.007 126.299C258.999 135.332 266.515 147.902 269.269 161.86Z" stroke="white" stroke-width="2"/>
<path d="M194 181.251H208.811L216.031 185.938H201.405L194 181.251Z" fill="white"/>
<path d="M195.406 174.22H209.272L216.031 185.938H202.339L195.406 174.22Z" fill="white" fill-opacity="0.75"/>
<path d="M197.281 167.188H209.886L216.031 185.937H203.584L197.281 167.188Z" fill="white" fill-opacity="0.65"/>
<path d="M199.625 160.625H210.654L216.031 185.937H205.14L199.625 160.625Z" fill="white" fill-opacity="0.4"/>
<path d="M201.969 155H211.422L216.031 185.937H206.696L201.969 155Z" fill="white" fill-opacity="0.25"/>
<path d="M224 192.03H209.189L201.969 187.343H216.595L224 192.03Z" fill="white"/>
<path d="M222.594 199.062H208.728L201.969 187.343H215.661L222.594 199.062Z" fill="white" fill-opacity="0.75"/>
<path d="M220.719 206.094H208.114L201.969 187.344H214.416L220.719 206.094Z" fill="white" fill-opacity="0.65"/>
<path d="M218.375 212.656H207.346L201.969 187.344H212.86L218.375 212.656Z" fill="white" fill-opacity="0.4"/>
<path d="M216.031 218.281H206.578L201.969 187.344H211.304L216.031 218.281Z" fill="white" fill-opacity="0.25"/>
<circle cx="209" cy="176" r="136" stroke="white" stroke-opacity="0.1" stroke-width="10"/>
<circle cx="209.5" cy="175.5" r="174.5" stroke="white" stroke-opacity="0.1" stroke-width="2"/>
<path d="M250.5 149L302 98H400.5" stroke="#868BFF" stroke-width="2" stroke-dasharray="4 4"/>
<circle cx="410" cy="98" r="8" stroke="#868BFF" stroke-width="4"/>
<line x1="250.5" y1="173" x2="380.5" y2="173" stroke="#868BFF" stroke-width="2"/>
<circle cx="390.5" cy="173" r="10" fill="#868BFF"/>
<path d="M250.5 196.999L302 247.999H400.5" stroke="#868BFF" stroke-width="2" stroke-dasharray="4 4"/>
<circle cx="10" cy="10" r="8" transform="matrix(1 0 0 -1 400 258)" stroke="#868BFF" stroke-width="4"/>
<path d="M169.5 202L118 253L19.5 253" stroke="#868BFF" stroke-width="2" stroke-dasharray="4 4"/>
<circle cx="10" cy="253" r="8" transform="rotate(-180 10 253)" stroke="#868BFF" stroke-width="4"/>
<line x1="169.5" y1="178" x2="39.5" y2="178" stroke="#868BFF" stroke-width="2"/>
<circle cx="29.5" cy="178" r="10" transform="rotate(-180 29.5 178)" fill="#868BFF"/>
<path d="M169.5 154.001L118 103.001L19.5 103.001" stroke="#868BFF" stroke-width="2" stroke-dasharray="4 4"/>
<circle cx="10" cy="10" r="8" transform="matrix(-1 0 0 1 20 93)" stroke="#868BFF" stroke-width="4"/>
<path d="M200.263 275H198.286L201.298 266.273H203.676L206.685 275H204.707L202.521 268.267H202.453L200.263 275ZM200.139 271.57H204.81V273.01H200.139V271.57ZM210.555 275V266.273H213.998C214.66 266.273 215.224 266.399 215.69 266.652C216.156 266.902 216.511 267.25 216.755 267.696C217.003 268.139 217.126 268.651 217.126 269.23C217.126 269.81 217.001 270.321 216.751 270.764C216.501 271.207 216.139 271.553 215.664 271.8C215.193 272.047 214.622 272.17 213.951 272.17H211.757V270.692H213.653C214.008 270.692 214.301 270.631 214.531 270.509C214.764 270.384 214.937 270.212 215.051 269.993C215.167 269.771 215.226 269.517 215.226 269.23C215.226 268.94 215.167 268.687 215.051 268.472C214.937 268.253 214.764 268.084 214.531 267.964C214.298 267.842 214.003 267.781 213.645 267.781H212.4V275H210.555ZM222.99 266.273V275H221.145V266.273H222.99Z" fill="white"/>
</svg>
