<svg width="642" height="596" viewBox="0 0 642 596" fill="none" xmlns="http://www.w3.org/2000/svg">
<path d="M343.609 45.25H302.391C300.311 45.25 298.625 46.9363 298.625 49.0164V77.1086C298.625 79.1887 300.311 80.875 302.391 80.875H343.609C345.689 80.875 347.375 79.1887 347.375 77.1086V49.0164C347.375 46.9363 345.689 45.25 343.609 45.25Z" stroke="white" stroke-width="2.5" stroke-linejoin="round"/>
<path d="M294.875 82.75H351.125Z" fill="white"/>
<path d="M294.875 82.75H351.125" stroke="white" stroke-width="2.5" stroke-miterlimit="10" stroke-linecap="round"/>
<circle cx="322.5" cy="63.5" r="62.5" stroke="white" stroke-opacity="0.2" stroke-width="2"/>
<circle cx="578.5" cy="144.5" r="62.5" stroke="white" stroke-opacity="0.2" stroke-width="2"/>
<path d="M561.5 142.5L565.25 131.25H592.75L596.5 142.5M592.75 155C591.755 155 590.802 154.605 590.098 153.902C589.395 153.198 589 152.245 589 151.25C589 150.255 589.395 149.302 590.098 148.598C590.802 147.895 591.755 147.5 592.75 147.5C593.745 147.5 594.698 147.895 595.402 148.598C596.105 149.302 596.5 150.255 596.5 151.25C596.5 152.245 596.105 153.198 595.402 153.902C594.698 154.605 593.745 155 592.75 155ZM565.25 155C564.255 155 563.302 154.605 562.598 153.902C561.895 153.198 561.5 152.245 561.5 151.25C561.5 150.255 561.895 149.302 562.598 148.598C563.302 147.895 564.255 147.5 565.25 147.5C566.245 147.5 567.198 147.895 567.902 148.598C568.605 149.302 569 150.255 569 151.25C569 152.245 568.605 153.198 567.902 153.902C567.198 154.605 566.245 155 565.25 155ZM596.3 130C595.8 128.55 594.4 127.5 592.75 127.5H565.25C563.6 127.5 562.2 128.55 561.7 130L556.5 145V165C556.5 165.663 556.763 166.299 557.232 166.768C557.701 167.237 558.337 167.5 559 167.5H561.5C562.163 167.5 562.799 167.237 563.268 166.768C563.737 166.299 564 165.663 564 165V162.5H594V165C594 165.663 594.263 166.299 594.732 166.768C595.201 167.237 595.837 167.5 596.5 167.5H599C599.663 167.5 600.299 167.237 600.768 166.768C601.237 166.299 601.5 165.663 601.5 165V145L596.3 130Z" fill="white"/>
<g clip-path="url(#clip0_3607_230)">
<path d="M75.25 118.75C76.2446 118.75 77.1984 119.145 77.9016 119.848C78.6049 120.552 79 121.505 79 122.5V167.5C79 168.495 78.6049 169.448 77.9016 170.152C77.1984 170.855 76.2446 171.25 75.25 171.25H52.75C51.7554 171.25 50.8016 170.855 50.0984 170.152C49.3951 169.448 49 168.495 49 167.5V122.5C49 121.505 49.3951 120.552 50.0984 119.848C50.8016 119.145 51.7554 118.75 52.75 118.75H75.25ZM52.75 115C50.7609 115 48.8532 115.79 47.4467 117.197C46.0402 118.603 45.25 120.511 45.25 122.5V167.5C45.25 169.489 46.0402 171.397 47.4467 172.803C48.8532 174.21 50.7609 175 52.75 175H75.25C77.2391 175 79.1468 174.21 80.5533 172.803C81.9598 171.397 82.75 169.489 82.75 167.5V122.5C82.75 120.511 81.9598 118.603 80.5533 117.197C79.1468 115.79 77.2391 115 75.25 115H52.75Z" fill="white"/>
<path d="M64 167.5C64.9946 167.5 65.9484 167.105 66.6516 166.402C67.3549 165.698 67.75 164.745 67.75 163.75C67.75 162.755 67.3549 161.802 66.6516 161.098C65.9484 160.395 64.9946 160 64 160C63.0054 160 62.0516 160.395 61.3484 161.098C60.6451 161.802 60.25 162.755 60.25 163.75C60.25 164.745 60.6451 165.698 61.3484 166.402C62.0516 167.105 63.0054 167.5 64 167.5Z" fill="white"/>
</g>
<circle cx="63.5" cy="144.5" r="62.5" stroke="white" stroke-opacity="0.2" stroke-width="2"/>
<path d="M176 442.5H185.874L190.687 445.625H180.937L176 442.5Z" fill="white"/>
<path d="M176.938 437.812H186.181L190.687 445.625H181.559L176.938 437.812Z" fill="white" fill-opacity="0.75"/>
<path d="M178.188 433.125H186.591L190.687 445.625H182.389L178.188 433.125Z" fill="white" fill-opacity="0.65"/>
<path d="M179.75 428.75H187.103L190.687 445.625H183.426L179.75 428.75Z" fill="white" fill-opacity="0.4"/>
<path d="M181.312 425H187.615L190.687 445.624H184.464L181.312 425Z" fill="white" fill-opacity="0.25"/>
<path d="M195.998 449.688H186.124L181.311 446.563H191.061L195.998 449.688Z" fill="white"/>
<path d="M195.061 454.375H185.817L181.311 446.563H190.439L195.061 454.375Z" fill="white" fill-opacity="0.75"/>
<path d="M193.811 459.062H185.407L181.311 446.563H189.609L193.811 459.062Z" fill="white" fill-opacity="0.65"/>
<path d="M192.248 463.438H184.895L181.311 446.563H188.572L192.248 463.438Z" fill="white" fill-opacity="0.4"/>
<path d="M190.686 467.188H184.383L181.311 446.563H187.534L190.686 467.188Z" fill="white" fill-opacity="0.25"/>
<circle cx="186" cy="446" r="45" stroke="white" stroke-opacity="0.2" stroke-width="10"/>
<circle cx="321" cy="407" r="45" stroke="white" stroke-opacity="0.2" stroke-width="10"/>
<path d="M311 403.5H320.874L325.687 406.625H315.937L311 403.5Z" fill="white"/>
<path d="M311.938 398.812H321.181L325.687 406.625H316.559L311.938 398.812Z" fill="white" fill-opacity="0.75"/>
<path d="M313.188 394.125H321.591L325.687 406.625H317.389L313.188 394.125Z" fill="white" fill-opacity="0.65"/>
<path d="M314.75 389.75H322.103L325.687 406.625H318.426L314.75 389.75Z" fill="white" fill-opacity="0.4"/>
<path d="M316.312 386H322.615L325.687 406.624H319.464L316.312 386Z" fill="white" fill-opacity="0.25"/>
<path d="M330.998 410.688H321.124L316.311 407.563H326.061L330.998 410.688Z" fill="white"/>
<path d="M330.061 415.375H320.817L316.311 407.563H325.439L330.061 415.375Z" fill="white" fill-opacity="0.75"/>
<path d="M328.811 420.062H320.407L316.311 407.563H324.609L328.811 420.062Z" fill="white" fill-opacity="0.65"/>
<path d="M327.248 424.438H319.895L316.311 407.563H323.572L327.248 424.438Z" fill="white" fill-opacity="0.4"/>
<path d="M325.686 428.188H319.383L316.311 407.563H322.534L325.686 428.188Z" fill="white" fill-opacity="0.25"/>
<circle cx="456" cy="449" r="45" stroke="white" stroke-opacity="0.2" stroke-width="10"/>
<path d="M446 441.5C446 441.058 446.176 440.634 446.488 440.321C446.801 440.009 447.225 439.833 447.667 439.833C448.109 439.833 448.533 440.009 448.845 440.321C449.158 440.634 449.333 441.058 449.333 441.5C449.333 441.942 449.158 442.366 448.845 442.678C448.533 442.991 448.109 443.166 447.667 443.166C447.225 443.166 446.801 442.991 446.488 442.678C446.176 442.366 446 441.942 446 441.5ZM451 441.5C451 441.058 451.176 440.634 451.488 440.321C451.801 440.009 452.225 439.833 452.667 439.833C453.109 439.833 453.533 440.009 453.845 440.321C454.158 440.634 454.333 441.058 454.333 441.5C454.333 441.942 454.158 442.366 453.845 442.678C453.533 442.991 453.109 443.166 452.667 443.166C452.225 443.166 451.801 442.991 451.488 442.678C451.176 442.366 451 441.942 451 441.5ZM447.667 451.5C447.225 451.5 446.801 451.675 446.488 451.988C446.176 452.3 446 452.724 446 453.166C446 453.608 446.176 454.032 446.488 454.345C446.801 454.657 447.225 454.833 447.667 454.833C448.109 454.833 448.533 454.657 448.845 454.345C449.158 454.032 449.333 453.608 449.333 453.166C449.333 452.724 449.158 452.3 448.845 451.988C448.533 451.675 448.109 451.5 447.667 451.5ZM452.667 451.5C452.225 451.5 451.801 451.675 451.488 451.988C451.176 452.3 451 452.724 451 453.166C451 453.608 451.176 454.032 451.488 454.345C451.801 454.657 452.225 454.833 452.667 454.833C453.109 454.833 453.533 454.657 453.845 454.345C454.158 454.032 454.333 453.608 454.333 453.166C454.333 452.724 454.158 452.3 453.845 451.988C453.533 451.675 453.109 451.5 452.667 451.5Z" fill="white"/>
<path fill-rule="evenodd" clip-rule="evenodd" d="M445.911 434.417C444.696 434.417 443.53 434.9 442.671 435.759C441.811 436.619 441.328 437.785 441.328 439V444C441.328 445.314 441.881 446.499 442.766 447.334C442.312 447.762 441.949 448.278 441.702 448.851C441.455 449.425 441.327 450.043 441.328 450.667V455.667C441.328 456.883 441.811 458.048 442.671 458.908C443.53 459.767 444.696 460.25 445.911 460.25H454.75V462.75H444.333C444.002 462.75 443.684 462.882 443.449 463.116C443.215 463.351 443.083 463.669 443.083 464C443.083 464.332 443.215 464.65 443.449 464.884C443.684 465.119 444.002 465.25 444.333 465.25H467.666C467.998 465.25 468.316 465.119 468.55 464.884C468.785 464.65 468.916 464.332 468.916 464C468.916 463.669 468.785 463.351 468.55 463.116C468.316 462.882 467.998 462.75 467.666 462.75H457.25V460.25H465.911C466.513 460.25 467.109 460.132 467.665 459.901C468.222 459.671 468.727 459.333 469.152 458.908C469.578 458.482 469.916 457.977 470.146 457.421C470.376 456.865 470.495 456.269 470.495 455.667V450.667C470.495 449.354 469.943 448.169 469.058 447.334C469.512 446.906 469.874 446.389 470.121 445.816C470.369 445.242 470.496 444.625 470.495 444V439C470.495 438.398 470.376 437.802 470.146 437.246C469.916 436.69 469.578 436.185 469.152 435.759C468.727 435.334 468.222 434.996 467.665 434.766C467.109 434.536 466.513 434.417 465.911 434.417H445.911ZM445.911 446.084H465.911C467.061 446.084 467.995 445.15 467.995 444V439C467.995 437.85 467.061 436.917 465.911 436.917H445.911C444.761 436.917 443.828 437.85 443.828 439V444C443.828 445.15 444.761 446.084 445.911 446.084ZM445.911 448.584C444.761 448.584 443.828 449.517 443.828 450.667V455.667C443.828 456.817 444.761 457.75 445.911 457.75H465.911C467.061 457.75 467.995 456.817 467.995 455.667V450.667C467.995 449.517 467.061 448.584 465.911 448.584H445.911Z" fill="white"/>
<circle cx="321" cy="546" r="45" stroke="white" stroke-opacity="0.2" stroke-width="10"/>
<path d="M311 538.5C311 538.058 311.176 537.634 311.488 537.321C311.801 537.009 312.225 536.833 312.667 536.833C313.109 536.833 313.533 537.009 313.845 537.321C314.158 537.634 314.333 538.058 314.333 538.5C314.333 538.942 314.158 539.366 313.845 539.678C313.533 539.991 313.109 540.166 312.667 540.166C312.225 540.166 311.801 539.991 311.488 539.678C311.176 539.366 311 538.942 311 538.5ZM316 538.5C316 538.058 316.176 537.634 316.488 537.321C316.801 537.009 317.225 536.833 317.667 536.833C318.109 536.833 318.533 537.009 318.845 537.321C319.158 537.634 319.333 538.058 319.333 538.5C319.333 538.942 319.158 539.366 318.845 539.678C318.533 539.991 318.109 540.166 317.667 540.166C317.225 540.166 316.801 539.991 316.488 539.678C316.176 539.366 316 538.942 316 538.5ZM312.667 548.5C312.225 548.5 311.801 548.675 311.488 548.988C311.176 549.3 311 549.724 311 550.166C311 550.608 311.176 551.032 311.488 551.345C311.801 551.657 312.225 551.833 312.667 551.833C313.109 551.833 313.533 551.657 313.845 551.345C314.158 551.032 314.333 550.608 314.333 550.166C314.333 549.724 314.158 549.3 313.845 548.988C313.533 548.675 313.109 548.5 312.667 548.5ZM317.667 548.5C317.225 548.5 316.801 548.675 316.488 548.988C316.176 549.3 316 549.724 316 550.166C316 550.608 316.176 551.032 316.488 551.345C316.801 551.657 317.225 551.833 317.667 551.833C318.109 551.833 318.533 551.657 318.845 551.345C319.158 551.032 319.333 550.608 319.333 550.166C319.333 549.724 319.158 549.3 318.845 548.988C318.533 548.675 318.109 548.5 317.667 548.5Z" fill="white"/>
<path fill-rule="evenodd" clip-rule="evenodd" d="M310.911 531.417C309.696 531.417 308.53 531.9 307.671 532.759C306.811 533.619 306.328 534.785 306.328 536V541C306.328 542.314 306.881 543.499 307.766 544.334C307.312 544.762 306.949 545.278 306.702 545.851C306.455 546.425 306.327 547.043 306.328 547.667V552.667C306.328 553.883 306.811 555.048 307.671 555.908C308.53 556.767 309.696 557.25 310.911 557.25H319.75V559.75H309.333C309.002 559.75 308.684 559.882 308.449 560.116C308.215 560.351 308.083 560.669 308.083 561C308.083 561.332 308.215 561.65 308.449 561.884C308.684 562.119 309.002 562.25 309.333 562.25H332.666C332.998 562.25 333.316 562.119 333.55 561.884C333.785 561.65 333.916 561.332 333.916 561C333.916 560.669 333.785 560.351 333.55 560.116C333.316 559.882 332.998 559.75 332.666 559.75H322.25V557.25H330.911C331.513 557.25 332.109 557.132 332.665 556.901C333.222 556.671 333.727 556.333 334.152 555.908C334.578 555.482 334.916 554.977 335.146 554.421C335.376 553.865 335.495 553.269 335.495 552.667V547.667C335.495 546.354 334.943 545.169 334.058 544.334C334.512 543.906 334.874 543.389 335.121 542.816C335.369 542.242 335.496 541.625 335.495 541V536C335.495 535.398 335.376 534.802 335.146 534.246C334.916 533.69 334.578 533.185 334.152 532.759C333.727 532.334 333.222 531.996 332.665 531.766C332.109 531.536 331.513 531.417 330.911 531.417H310.911ZM310.911 543.084H330.911C332.061 543.084 332.995 542.15 332.995 541V536C332.995 534.85 332.061 533.917 330.911 533.917H310.911C309.761 533.917 308.828 534.85 308.828 536V541C308.828 542.15 309.761 543.084 310.911 543.084ZM310.911 545.584C309.761 545.584 308.828 546.517 308.828 547.667V552.667C308.828 553.817 309.761 554.75 310.911 554.75H330.911C332.061 554.75 332.995 553.817 332.995 552.667V547.667C332.995 546.517 332.061 545.584 330.911 545.584H310.911Z" fill="white"/>
<path d="M455.999 397.251L512.864 352.31L524.8 254.536" stroke="#868BFF" stroke-width="2" stroke-dasharray="4 4"/>
<circle cx="10" cy="10" r="8" transform="matrix(0.121179 -0.992631 -0.992631 -0.121179 534.668 256.244)" stroke="#868BFF" stroke-width="4"/>
<path d="M186.089 395.251L129.224 350.31L117.288 252.536" stroke="#868BFF" stroke-width="2" stroke-dasharray="4 4"/>
<circle cx="116.138" cy="243.106" r="8" transform="rotate(-96.96 116.138 243.106)" stroke="#868BFF" stroke-width="4"/>
<line x1="321" y1="353" x2="321" y2="172" stroke="#868BFF" stroke-width="2" stroke-dasharray="4 4"/>
<circle cx="321" cy="162" r="8" transform="rotate(-90 321 162)" stroke="#868BFF" stroke-width="4"/>
<line x1="227.437" y1="468.1" x2="297.437" y2="502.1" stroke="#868BFF" stroke-width="2" stroke-dasharray="4 4"/>
<line x1="340.179" y1="502.443" x2="516.159" y2="249.429" stroke="#868BFF" stroke-width="2" stroke-dasharray="4 4"/>
<line x1="208.092" y1="397.582" x2="314.072" y2="167.581" stroke="#868BFF" stroke-width="2" stroke-dasharray="4 4"/>
<defs>
<clipPath id="clip0_3607_230">
<rect width="60" height="60" fill="white" transform="translate(34 115)"/>
</clipPath>
</defs>
</svg>
