<?xml version="1.0" encoding="UTF-8"?><svg id="Layer_2" xmlns="http://www.w3.org/2000/svg" viewBox="0 0 260 66.684" fill='white'><defs><style>.cls-1{fill:#d7ac11 !important;}.cls-2{fill:#8c8c8c !important;}.cls-3{fill:#e6e6e6 !important;}</style></defs><g id="assets"><g id="black-knight-logo"><g id="black-elements"><path d="M134.261,25.756c-.488-.461-.97-.852-1.409-1.077-1.895-.978-2.993-.917-2.993-.917l-.456-.228h0s-.248-.641-.982-.934c-1.02-.408-1.564-.173-1.564-.173h0l-.545-.296-.938-.371c.234-.696,.622-1.964,.959-3.707,.53-2.73,.581-3.422,.581-3.422l-.606,.162,.137-.87,.161-1.205c.288-.106,.471-.177,.471-.177,0,0,.112-3.169-2.66-5.248-.925-.693-1.727-1.139-2.389-1.429,.512-.317,.993-.802,1.253-1.555-.233,.499-.502-2.129-2.83-2.008-1.464,.074-3.022,1.108-4.248,1.71-1.957,.963-3.584,1.657-5.196,2.837-1.87,1.366-2.416,3.726-3.939,4.233-1.139,.38-2.677,.219-2.737,.134-.006,.015,.002,.033,.039,.062,.491,.368,3.637,1.661,5.179,.316,1.065-.93,2.456-1.709,3.28-2.132-1.366,3.112-.782,5.44-.307,7.33,.074,.293,.143,.571,.201,.84,.351,1.59,.802,3.161,.973,3.743l-.53,.125h0l-.372,.058c-.167-.104-.512-.264-1.031-.264-.243,0-.501,.035-.763,.105-1.042,.278-1.514,.714-1.564,.764l-.208,.218c-.813-.063-2.259-.026-4.246,.617-3.21,1.04-5.331,3.761-5.331,3.761,0,0,1.085,1.855,1.787,2.565l-.425,.731c-.015,.026-.374,.647-1.314,2.442-.941,1.796-1.761,4.143-2.054,5.439-.208,.916-.879,3.56-1.306,4.652-.29,.739-.128,1.222,.06,1.499,.094,.134,.218,.241,.356,.33-.141,.633-.205,1.242-.1,1.725,.251,1.146,2.084,3.107,2.753,3.789-.395,1.16-.309,1.925-.302,1.977l.043,.329,12.647,6.092c.118,.261,.546,1.17,1.123,2.07l-2.205,3.184-1.265,.737,3.481,2.365,.374-1.342,1.91-2.707c1.109,.719,1.996,1.395,1.996,1.395,0,0,2.129-1.687,2.741-2.91,.304-.607,.556-1.358,.735-1.962l3.742,2.17,.32-3.393c.633,.308,2.351,1.14,4.296,2.084,2.355,1.141,6.008,2.629,6.008,2.629,0,0,5.321-9.477,5.505-21.827,.103-6.958-.046-10.056-.196-11.433l4.555-6.01,.959-7.81-7.122,3.138-4.494,7.049Zm-27.525,18.823l-.232-.026c-.019-.002-.127-.013-.304-.013-.219,0-.525,.016-.892,.074v-.614s1.489-2.051,1.794-2.537c.253-.404,.894-1.597,1.328-2.727l.646,8.427-2.341-2.584Z"/><path d="M110.434,4.46c.346,.361,.806,.557,1.061,.647,.117,.04,.197,.062,.197,.062l.003-.004c.005-.002,.038-.02,.083-.046,.048-.026,.114-.064,.189-.104,.104-.057,.222-.119,.336-.176,.282-.142,1.456-.671,1.456-.671,0,0-1.708,.334-2.884-.303-1.1-.596-1.384-2.874-1.384-2.874,0,0-.104,.818,.102,1.769,.206,.951,.315,1.149,.841,1.698Z"/><path d="M63.467,52.428c-3.835,0-4.645-4.31-4.645-7.328s.809-7.326,4.645-7.326c3.74,0,4.932,2.624,5.456,5.008h1.047v-5.971h-1.047c0,.568-.311,1.071-1.097,1.071-.809,0-2.262-1.071-4.359-1.071-4.312,0-7.813,4.199-7.813,8.288,0,4.179,3.335,8.29,7.813,8.29,3.621,0,5.812-2.077,7.004-5.031l-1.048-.306c-.929,2.297-2.31,4.375-5.955,4.375Z"/><path d="M51.95,50.11l-5.766-13.298h-1.262l-5.907,13.319c-.597,1.334-1.239,1.837-2.836,1.946v.962h6.052v-.962c-.906,.044-2.145-.044-2.145-1.136,0-.154,.048-.373,.143-.613l.954-2.471h6.86l.763,1.815c.309,.7,.572,1.379,.572,1.641,0,.962-1.643,.743-2.287,.764v.962h7.79v-.962c-1.858,.066-2.192-.502-2.93-1.967Zm-10.315-3.216l3.049-6.824,2.93,6.824h-5.979Z"/><path d="M27.158,52.077c-2.62,0-2.858-.021-2.954-1.683v-10.804c0-.35,0-1.466,1.716-1.466h1.001v-.962h-8.29v.962h1c1.715,0,1.715,1.116,1.715,1.466v11.021c0,.353,0,1.467-1.715,1.467h-1v.962h15.316l.19-6.057h-1.047c-.668,3.761-1.715,5.095-5.932,5.095Z"/><path d="M88.026,49.913l-5.36-6.823,3.906-3.324c1.193-.918,2.669-1.727,4.289-1.641v-.962h-7.456v.962c.834,.044,2.264-.284,2.264,.634,0,.285-.668,.963-1.43,1.618l-5.67,4.834v-5.62c0-.35,0-1.466,1.715-1.466h.977v-.962h-8.266v.962h1.001c1.716,0,1.716,1.116,1.716,1.466v11.021c0,.353,0,1.467-1.716,1.467h-1.001v.962h8.266v-.962h-.977c-1.715,0-1.715-1.114-1.715-1.467v-3.935l2.073-1.881,3.978,5.031c.573,.721,1.097,1.444,1.097,1.639,0,.897-1.74,.612-2.312,.612v.962h8.172v-.962c-1.882,0-2.574-.896-3.55-2.165Z"/><path d="M9.909,44.752v-.045c2.121-.329,5.051-1.181,5.051-3.608,0-3.347-3.978-3.937-6.836-3.937H0v.919c2.835,.043,2.691,.24,2.691,2.515v8.748c0,2.231,.286,2.842-2.691,2.756v.939H5.598c.428,0,4.454,.089,5.955-.262,2.144-.502,4.288-1.423,4.288-3.784,0-2.931-3.359-3.848-5.933-4.242Zm-4.359-5.665c0-1.027,.881-.963,2.049-.963,2.501,0,4.194,.503,4.194,3.126,0,2.297-1.74,3.064-3.979,3.064h-2.263v-5.227Zm2.216,12.991c-2.31,0-2.216-.284-2.216-2.209v-4.592h2.263c3.764,0,4.86,1.422,4.86,3.586,0,2.668-2.574,3.215-4.907,3.215Z"/><path d="M258.933,38.713c0-.45-.262-.669-.82-.669h-.904v2.341h.364v-1.007h.385l.637,1.007h.392l-.67-1.034c.349-.038,.615-.214,.615-.638Zm-.98,.37h-.38v-.744h.482c.247,0,.514,.048,.514,.359,0,.37-.294,.385-.616,.385Z"/><path d="M238.137,37.172l-.143,5.707h1.044c.572-2.974,1.521-4.854,5.276-4.745v12.482c0,.352,0,1.466-1.712,1.466h-.998v.962h8.268v-.962h-.999c-1.709,0-1.709-1.114-1.709-1.466v-12.482c3.754-.109,4.703,1.771,5.274,4.745h1.047l-.143-5.707h-15.204Z"/><path d="M257.991,37.213c-1.098,0-2.019,.863-2.019,1.993,0,1.152,.921,2.014,2.019,2.014s2.009-.863,2.009-2.014c0-1.131-.916-1.993-2.009-1.993Zm0,3.712c-.938,0-1.655-.739-1.655-1.719,0-.959,.717-1.698,1.655-1.698,.926,0,1.645,.739,1.645,1.698,0,.98-.718,1.719-1.645,1.719Z"/><path d="M207.12,46.792c1.948,0,2.493,.109,2.493,1.945,0,2.471-.855,3.695-3.706,3.695-3.824,0-4.633-4.351-4.633-7.367s.809-7.28,4.633-7.28c3.136,.065,4.8,2.34,5.44,5.006h1.046v-5.968h-1.046c0,.568-.308,1.071-1.093,1.071-.665,.088-1.972-1.071-3.99-1.071-4.918,0-8.149,4.176-8.149,8.285,0,4.044,3.256,8.287,7.745,8.287,1.924,0,2.684-.502,3.682-.939,.404-.176,.809-.351,.903-.351,.474,0,.831,.983,.855,1.334h1.164v-4.832c0-1.749,.428-1.814,2.423-1.814v-.963h-7.768v.963Z"/><path d="M227.319,38.134h.998c1.71,0,1.71,1.116,1.71,1.464v4.876h-7.555v-4.876c0-.349,0-1.464,1.712-1.464h.998v-.962h-8.268v.962h.999c1.71,0,1.71,1.116,1.71,1.464v11.017c0,.352,0,1.466-1.71,1.466h-.999v.962h8.268v-.962h-.998c-1.712,0-1.712-1.114-1.712-1.466v-5.18h7.555v5.18c0,.352,0,1.466-1.71,1.466h-.998v.962h8.269v-.962h-.999c-1.71,0-1.71-1.114-1.71-1.466v-11.017c0-.349,0-1.464,1.71-1.464h.999v-.962h-8.269v.962Z"/><path d="M161.219,49.918l-5.345-6.821,3.895-3.322c1.189-.918,2.661-1.727,4.277-1.64v-.962h-7.437v.962c.832,.044,2.257-.285,2.257,.634,0,.285-.666,.963-1.425,1.618l-5.655,4.832v-5.619c0-.349,0-1.464,1.71-1.464h.974v-.962h-8.243v.962h.997c1.71,0,1.71,1.116,1.71,1.464v11.017c0,.352,0,1.466-1.71,1.466h-.997v.962h8.243v-.962h-.974c-1.71,0-1.71-1.114-1.71-1.466v-3.934l2.067-1.88,3.966,5.029c.571,.721,1.093,1.443,1.093,1.639,0,.896-1.734,.611-2.304,.611v.962h8.149v-.962c-1.877,0-2.567-.895-3.54-2.164Z"/><path d="M178.683,38.134h.999c1.709,0,1.709,1.116,1.709,1.464v9.553h-.047l-9.099-11.979h-5.655v.962h.999c1.709,0,1.709,1.116,1.709,1.464v11.017c0,.352,0,1.466-1.709,1.466h-.999v.962h6.675v-.962h-.997c-1.71,0-1.71-1.114-1.71-1.466v-11.388h.047l10.548,14.166h1.498v-13.796c0-.349,0-1.464,1.71-1.464h.997v-.962h-6.675v.962Z"/><path d="M187.392,38.134h.998c1.71,0,1.71,1.116,1.71,1.464v11.017c0,.352,0,1.466-1.71,1.466h-.998v.962h8.268v-.962h-.999c-1.71,0-1.71-1.114-1.71-1.466v-11.017c0-.349,0-1.464,1.71-1.464h.999v-.962h-8.268v.962Z"/></g><path id="gold-elements" class="cls-1" d="M123.291,4.296c-.002,.007-.006,.007-.009,.014-.233,.499-.502-2.129-2.83-2.008-1.464,.074-3.022,1.108-4.248,1.71-1.956,.963-3.584,1.657-5.196,2.837-1.87,1.366-2.416,3.726-3.939,4.233-1.139,.38-2.677,.219-2.737,.134-.007-.009,.002-.02,.038-.026,.054-.014,.155-.015,.274-.015,2.038,0,2.156-1.098,3.978-3.349,1.823-2.251,3.071-2.656,3.071-2.656l.003-.004c.005-.002,.038-.021,.083-.046,.048-.026,.114-.064,.189-.104,.04-.022,.08-.043,.122-.066l.015-.008c.065-.035,.134-.07,.199-.102,.282-.142,1.456-.67,1.456-.67,0,0-1.708,.334-2.884-.302-1.1-.596-1.384-2.874-1.384-2.874,0,0,.784,1.354,1.944,1.956C113.963,4.262,118.319,.001,119.953,0c3.068-.001,3.984,2.697,3.337,4.296Zm9.878,51.06c-.01-.022-2.385-4.98-5.101-9.75l-6.221,8.209-.707,.932c.771,.523,1.578,1.044,2.396,1.555,.401,.213,.837,.441,1.305,.679,1.47,.751,3.221,1.591,5.019,2.336,2.104,.871,3.963,1.239,4.705,1.363-.33-1.304-.812-3.167-1.396-5.324Zm-10.708-17.807c-1.295-1.117-2.595-1.732-3.812-2.038-.028-.007-.057-.014-.086-.02-.202-.049-.402-.092-.599-.124-.206-.033-.409-.058-.609-.075-2.826-.249-4.933,1.012-4.945,1.02-1.425,1.673-2.544,2.982-2.544,2.982,0,0,1.235,4.975,4.614,9.464,.124,.163,.249,.326,.378,.489,.127,.158,.258,.32,.39,.478,.067,.076,.133,.156,.201,.231,.134,.157,.273,.31,.413,.463,.365,.4,.749,.788,1.156,1.164,.159,.144,.326,.293,.498,.44l.719-1.126,6.649-10.431c-.879-1.268-1.713-2.301-2.424-2.916Z"/><path id="grey-1-elements" class="cls-3" d="M111.419,55.444l-.263,.71-10.429-6.254h-.001s.041-.093,.11-.233c.03-.063,.064-.136,.106-.215,.073-.144,.163-.307,.261-.468,.274-.449,.6-.847,.6-.847l.007,.007,9.609,7.299Zm1.985,1.21h0l-.004,.006c-.376,.683-.478,.94-.478,.94l1.277,.952,2.308,1.723,.01,.009s.017-.064,.053-.163c.006-.019,.008-.027,.017-.047,.003-.009,.006-.016,.01-.025l.022-.052c.051-.118,.115-.251,.187-.394,.035-.065,.067-.13,.107-.202,.055-.098-3.504-2.743-3.51-2.747Zm-10.034-25.08l-.015-.009c-.716-.499-1.496-1.013-1.582-1.071l-.017-.011s-.023,.038-.07,.124c-.036,.063-.087,.154-.154,.274-.2,.363-.543,.999-1.073,2.01-.943,1.801-1.359,2.812-1.616,3.943l-.007,.029c-.043,.19-.086,.397-.133,.62-.257,.929-.425,1.889-.62,2.732-.019,.072-.035,.139-.05,.208-.239,.996-.263,1.718-.263,1.718,0,0,.329-.22,.954-.526,.652-.318,1.496-.37,1.561-.375h.012s.446-3.007,1.384-5.249c.594-1.417,1.462-2.562,1.798-3.369,.197-.468,.215-.822-.11-1.048Zm26.381,11.813l-.095,.127-1.588,2.093c2.717,4.77,5.091,9.728,5.101,9.75h.001s-1.817-6.879-3.419-11.969Zm9.729-23.988l-.24,.122h-.001l-4.384,6.828h0l-1.052,1.636-1.416,2.202-3.359,5.233-1.407,2.189-.08,.125-2.193,3.414-6.552,10.204-.729,1.135-.011,.015,.618,.654s.029-.045,.083-.12c.123-.18,.383-.557,.757-1.102,1.251-1.824,3.759-5.482,6.588-9.622,.673-.985,1.363-1.996,2.06-3.017,.032-.049,.066-.098,.098-.145,.569-.837,1.146-1.679,1.714-2.518,1.559-2.29,3.088-4.545,4.448-6.563,.451-.668,.884-1.311,1.293-1.92,.106-.157,.206-.312,.31-.464,1.831-2.736,3.128-4.712,3.371-5.185,.839-1.631,.307-2.745,.085-3.099Zm-23.016-10.726c1.637-2.246,3.49-2.001,3.49-2.001v-1.127s-.14-.008-.349-.011c-.439-.007-1.209,.001-1.796,.128-1.177,.254-2.013,.97-3.032,2.344-.766,1.033-1.2,2.086-1.445,2.9-.022,.07-.041,.137-.061,.203-.021,.079-.043,.157-.062,.234-.029,.115-.053,.221-.074,.321-.013,.061-.025,.121-.037,.183-.019,.102-.033,.191-.045,.264-.008,.05-.015,.099-.021,.148-.009,.072-.013,.114-.013,.114h.001l2.347,.48s.009-2.688,1.095-4.18Zm-.8,7.061l-2.54-.72v.003c.031,.172,.066,.344,.103,.511l.002,.015c.05,.23,.105,.454,.159,.675,.027,.111,.054,.224,.082,.333,.078,.302,.15,.586,.211,.868,.038,.18,.079,.358,.12,.535l.002,.004v.009c.033,.129,.065,.256,.097,.385,.008,.031,.015,.062,.023,.092,.02,.083,.041,.161,.062,.242,.097,.392,.194,.764,.268,1.056,.026,.098,.051,.189,.076,.279,.033,.125,.067,.246,.098,.358l1.667,.875-.431-5.521Zm7.406,12.77c-.015-.023-.027-.045-.04-.068-.104-.176-.208-.354-.316-.531-.908-1.504-1.905-2.983-1.905-2.983,0,0-.591,1.136-1.821,3.025l-.004-.002-.003,.002,.005,.002c-.11,.17-.224,.343-.347,.525h0c-.013,.016-.023,.033-.035,.049-.103,.157-.208,.313-.316,.473-.007,.012-.016,.023-.023,.036-.576,.841-1.204,1.691-1.83,2.498-.131,.165-.263,.327-.395,.485-1.12,1.34-2.473,2.935-3.625,4.289l-.006,.007c.013-.007,2.119-1.268,4.945-1.02,.2,.017,.403,.042,.609,.075,.197,.032,.397,.075,.599,.124,.029,.006,.058,.013,.086,.02,1.217,.306,2.518,.921,3.812,2.038,.712,.615,1.545,1.649,2.424,2.916l2.296-3.601,.066-.105c-1.64-3.671-3.493-7.083-4.177-8.256Zm-19.214,.581c.09,.071,.183,.138,.275,.204,.069,.05,.136,.097,.199,.14,.174,.116,.371,.238,.587,.364-.064-.061-1.21-1.204-.607-3.57,.408-1.599,1.539-2.279,1.539-2.279,0,0-.049,.009-.122,.026-.777,.249-1.424,.559-1.945,.833-.164,.097-.334,.205-.511,.326-.081,.056-.155,.108-.228,.159-.74,.557-1.469,1.271-1.469,1.271,0,0,1.001,1.506,2.282,2.526Z"/><path id="grey-2-elements" class="cls-2" d="M118.004,55.913l-2.97-2.171-2.053-2.267,.943-.344,9.923,6.679-.278,1.839-5.566-3.735h.001Zm-13.046-17.532c.885-2.116,1.193-4.262,1.195-4.284l.05-.333c-.767-.285-2.004-.765-2.724-1.143-.337,.807-1.205,1.951-1.798,3.369-.938,2.242-1.384,5.249-1.384,5.249h-.012c.989,.023,1.92,.422,2.532,.763,.573-.776,1.546-2.201,2.141-3.621Zm10.277,16.503s-.593,.125-1.352,1.079c-.182,.227-.341,.466-.478,.691,.006,.004,3.565,2.648,3.51,2.747,.059-.108,.124-.222,.197-.338,.619-1.007,1.345-1.959,1.345-1.959l-3.221-2.22Zm-2.313,2.716s.103-.257,.478-.94c-.424,.706-.627,1.316-.627,1.316l1.191,.914,2.402,1.843s.032-.167,.14-.459l-2.308-1.723-1.277-.952Zm32.309-41.096l-5.75,2.894c.222,.354,.754,1.467-.085,3.099-.243,.474-1.54,2.449-3.371,5.185-.104,.152-.204,.307-.31,.464-.409,.609-.842,1.252-1.293,1.92-1.36,2.018-2.889,4.274-4.448,6.563-.568,.838-1.144,1.68-1.714,2.518-.032,.047-.066,.096-.098,.145-.697,1.021-1.387,2.032-2.06,3.017-2.828,4.14-5.337,7.799-6.588,9.622-.374,.545-.633,.922-.757,1.102-.053,.075-.083,.12-.083,.12l-.618-.654,1.303,1.385,.181-.263,.742-1.07,6.416-9.274h.001l1.916-2.769,.11-.159,1.718-2.481h0l5.51-7.962,.856-1.238,.305-.44,8.115-11.727Zm-21.876-2.852c-1.513,.244-3.4,.488-3.4,.488V6.672s-1.853-.245-3.49,2.001c-1.086,1.492-1.095,4.18-1.095,4.18l-2.347-.48c-.026,.231-.042,.457-.05,.677-.001,.027-.001,.053-.001,.079-.005,.195-.003,.384,.005,.572,.002,.035,.003,.07,.005,.105,.011,.179,.025,.355,.045,.528,.004,.032,.007,.066,.012,.099,.024,.196,.052,.387,.086,.575v.007l2.541,.72,.431,5.521-1.667-.875c.066,.235,.126,.438,.171,.594,.017,.061,.036,.125,.05,.17l5.304,3.095v-7.732l.004-.002h-.004l-6.437-2.118-.15-.926,5.853,1.17,.356,.693h.684l.245-.693,4.968-.825,.004-.021,.094-.71c-.702,.229-1.533,.467-2.217,.579Zm-11.704,38.174l-2.42-2.672-3.067-3.39c-.597,.007-2.458,.188-4.063,2.022-.108,.121-.193,.239-.289,.358l9.609,7.299-.263,.71-10.429-6.254c-.295,.687-.387,1.225-.407,1.54l10.728,5.168c.119-.52,.337-1.176,.718-1.671,.397-.517,1.058-.95,1.578-1.239l-1.694-1.872Zm2.92-25.248c-1.679-1.68-2.347-3.365-2.562-4.037-.061-.015-.141-.026-.243-.026-.136,0-.288,.021-.447,.064-.661,.175-.976,.418-1.029,.461l-.139,.148c.12,.597,.272,1.525,.314,2.545,.071,1.75-.683,3.532-.683,3.532,0,0-.047-2.086-.281-3.383-.102-.571-.296-1.066-.506-1.479-.189-.373-.388-.677-.554-.895-.096,.004-.189,.008-.297,.015h0c-.181,.013-.377,.029-.59,.053-.678,.076-1.283,.22-1.826,.393,.073-.016,.122-.026,.122-.026,0,0-1.131,.68-1.539,2.279-.603,2.366,.543,3.509,.607,3.57,.449,.264,.971,.545,1.496,.817,.806,.417,1.61,.805,2.15,1.063,.404,.192,.664,.312,.664,.312v1.137l.258,3.371c1.094-.842,3.001-2.367,4.274-3.682,1.393-1.441,2.732-3.435,3.327-4.366-.761-.409-1.653-1.004-2.518-1.867Z"/></g></g></svg>