<svg width="103" height="24" viewBox="0 0 103 24" fill="none" xmlns="http://www.w3.org/2000/svg">
<path d="M50.3396 5.95163C49.4219 4.94382 47.9421 4.36035 46.2274 4.36035C42.4851 4.36035 39.7686 7.16849 39.7686 11.025C39.7686 14.8815 42.4963 17.7146 46.2544 17.7146C47.8945 17.7146 49.4155 17.0906 50.3396 16.0921V17.451H53.4674V4.62557H50.3396V5.95163ZM46.5513 14.7739C44.5016 14.7739 42.8995 13.1155 42.8995 10.9985C42.8995 8.88145 44.4714 7.30266 46.5513 7.30266C48.3994 7.30266 50.3126 8.68488 50.3126 10.9985C50.3126 13.4759 48.42 14.7739 46.5513 14.7739Z" fill="#eee"/>
<path d="M75.5213 0H72.3951V4.62407H70.1357V7.27463H72.3951V17.4494H75.5213V7.27463H78.2109V4.62407H75.5213V0Z" fill="#eee"/>
<path d="M88.9662 11.4742C88.9662 13.8315 87.1419 14.6677 85.5812 14.6677C84.0205 14.6677 82.9757 13.5179 82.9757 11.7379V4.62549H79.8479V11.9204C79.8336 13.7925 80.3655 15.3198 81.3849 16.3292C82.301 17.2356 83.6077 17.7145 85.1509 17.7145C86.2322 17.7145 87.9675 17.2808 88.9615 16.1404V17.4493H92.0972V4.62549H88.9694L88.9662 11.4742Z" fill="#eee"/>
<path d="M63.1818 4.36035C61.5274 4.36035 59.9968 4.98438 59.0712 5.98439V4.62557H55.9434V21.4978H59.0728V16.1233C59.9889 17.1311 61.4686 17.7146 63.1834 17.7146C66.9415 17.7146 69.6692 14.9065 69.6692 11.0515C69.6692 7.19657 66.9399 4.36035 63.1818 4.36035ZM62.8642 14.7739C61.0145 14.7739 59.1029 13.3901 59.1029 11.0765C59.1029 8.60844 61.0399 7.27613 62.8642 7.27613C64.9473 7.27613 66.516 8.90953 66.516 11.0765C66.5128 13.2185 64.9759 14.7739 62.8595 14.7739H62.8642Z" fill="#eee"/>
<path d="M100.629 4.36035V4.37127C99.2846 4.4446 98.27 5.11699 97.6016 6.37597V4.62868H94.4468V17.4525H97.6016V12.7723C97.6016 11.1436 97.9032 7.36974 100.679 7.33386H103V4.36971L100.629 4.36035Z" fill="#eee"/>
<path d="M34.2596 7.28217C34.794 7.28634 35.3221 7.39617 35.8124 7.60511C36.1533 7.7806 36.4798 7.98195 36.7889 8.2073L37.4017 8.60823L39.1069 6.08716C39.1196 6.06531 37.9193 5.31804 37.8193 5.25564C37.0525 4.79542 36.1914 4.50771 35.298 4.41319C34.9824 4.37038 34.6639 4.35109 34.3454 4.35547H34.1787C32.6532 4.32964 31.1644 4.81616 29.9585 5.73458C28.258 6.97328 27.3213 8.85473 27.3213 11.0186C27.3213 13.1824 28.2596 15.0654 29.9537 16.2994C31.161 17.219 32.6513 17.7065 34.1787 17.6816H34.3454C35.5088 17.7001 36.6574 17.4228 37.6796 16.8766L37.7971 16.8096C38.2464 16.5459 38.6735 16.237 39.1085 15.9515L37.4033 13.4367C37.416 13.457 36.2221 14.2167 36.1046 14.2744C35.6367 14.5312 35.12 14.6905 34.5867 14.7425C34.4835 14.7518 34.3787 14.7581 34.2692 14.7612C32.0559 14.7003 30.4491 13.1262 30.4491 11.017C30.4491 8.90777 32.0606 7.34302 34.2596 7.28217Z" fill="#eee"/>
<path d="M20.561 2.43945H5.08071C3.73322 2.43945 2.44092 2.96542 1.4881 3.90165C0.535286 4.83788 0 6.10767 0 7.4317V19.0075C0 20.3315 0.535286 21.6013 1.4881 22.5375C2.44092 23.4737 3.73322 23.9997 5.08071 23.9997H18.4176V20.931H5.08071C4.56079 20.9306 4.06229 20.7275 3.69465 20.3663C3.32702 20.005 3.12029 19.5152 3.11987 19.0043V7.42858C3.12029 6.91771 3.32702 6.42789 3.69465 6.06665C4.06229 5.70542 4.56079 5.5023 5.08071 5.50188C6.54141 5.50188 8.00212 5.51124 9.46282 5.5128H18.4271V17.5831H21.5549V2.43945H20.561Z" fill="#eee"/>
<path d="M6.15869 8.50537V12.5662H11.2839V17.6022H15.4167V8.50537H6.15869Z" fill="#47BFE2"/>
<path d="M11.2839 12.5664H6.15869V17.6023H11.2839V12.5664Z" fill="#72EFDD"/>
</svg>
