<svg width="680" height="587" viewBox="0 0 680 587" fill="none" xmlns="http://www.w3.org/2000/svg">
<path fill-rule="evenodd" clip-rule="evenodd" d="M65 106C65 97.7157 71.7081 91 80.0051 91H109.995C118.282 91 125 97.7139 125 106C125 114.284 118.292 121 109.995 121H80.0051C71.718 121 65 114.286 65 106ZM78.3832 107.232C78.4663 107.125 78.7052 106.885 79.0606 106.636C79.6133 106.247 80.2173 106.017 80.8619 105.999L80.7534 105.999C81.4066 106.017 82.0107 106.247 82.5592 106.634C82.9101 106.881 83.144 107.118 83.2236 107.221L84.4449 108.805L87.6125 106.363L86.3912 104.779C86.0849 104.381 85.5779 103.868 84.864 103.364C83.7121 102.552 82.3708 102.042 80.8615 102.001L80.7529 102.001C79.2524 102.042 77.9149 102.552 76.7612 103.363C76.048 103.864 75.5396 104.374 75.2316 104.768L74 106.344L77.1516 108.807L78.3832 107.232ZM106.383 107.232C106.466 107.125 106.705 106.885 107.061 106.636C107.613 106.247 108.217 106.017 108.862 105.999L108.753 105.999C109.407 106.017 110.011 106.247 110.559 106.634C110.91 106.881 111.144 107.118 111.224 107.221L112.445 108.805L115.613 106.363L114.391 104.779C114.085 104.381 113.578 103.868 112.864 103.364C111.712 102.552 110.371 102.042 108.861 102.001L108.753 102.001C107.252 102.042 105.915 102.552 104.761 103.363C104.048 103.864 103.54 104.374 103.232 104.768L102 106.344L105.152 108.807L106.383 107.232Z" fill="white"/>
<path fill-rule="evenodd" clip-rule="evenodd" d="M95 66C116.434 66 126.382 74.6138 131 82.6101V57.9417V56H135V57.9417V104.058V105.029V116C135 116 135 136 95 136C55 136 55 116 55 116V105.029V104.058V57.9417V56H59V57.9417V82.6101C63.6177 74.6138 73.5664 66 95 66ZM59 96V116C59 115.972 59.007 116.077 59.0379 116.294C59.1025 116.746 59.2244 117.274 59.4197 117.86C60.01 119.631 61.0934 121.437 62.8284 123.172C68.2453 128.588 78.4799 132 95 132C111.52 132 121.755 128.588 127.172 123.172C128.907 121.437 129.99 119.631 130.58 117.86C130.776 117.274 130.897 116.746 130.962 116.294C130.993 116.077 131 115.972 131 116V96C131 95.8884 130.986 95.575 130.94 95.0902C130.857 94.2239 130.707 93.2438 130.47 92.1802C129.79 89.1207 128.566 86.0606 126.672 83.2188C121.188 74.993 111.202 70 95 70C78.7981 70 68.8121 74.993 63.3282 83.2188C61.4337 86.0606 60.2096 89.1207 59.5297 92.1802C59.2934 93.2438 59.1426 94.2239 59.0601 95.0902C59.0161 95.5522 59 96 59 96ZM59 56C59 54.8954 58.1046 54 57 54C55.8954 54 55 54.8954 55 56H59ZM135 56C135 54.8954 134.105 54 133 54C131.895 54 131 54.8954 131 56H135Z" fill="white"/>
<path d="M185.5 94.5H347V214M347 370.5V492H495" stroke="#868BFF" stroke-width="2"/>
<path d="M595.417 454.5C597.074 454.5 598.664 455.158 599.836 456.331C601.008 457.503 601.667 459.092 601.667 460.75V481.583C601.667 483.241 601.008 484.831 599.836 486.003C598.664 487.175 597.074 487.833 595.417 487.833C593.759 487.833 592.169 487.175 590.997 486.003C589.825 484.831 589.167 483.241 589.167 481.583V460.75C589.167 459.092 589.825 457.503 590.997 456.331C592.169 455.158 593.759 454.5 595.417 454.5ZM553.75 496.167H560V502.417C560 503.653 559.633 504.861 558.947 505.889C558.26 506.917 557.284 507.718 556.142 508.191C555 508.664 553.743 508.788 552.531 508.547C551.318 508.305 550.205 507.71 549.331 506.836C548.457 505.962 547.861 504.848 547.62 503.636C547.379 502.424 547.503 501.167 547.976 500.025C548.449 498.883 549.25 497.907 550.278 497.22C551.305 496.533 552.514 496.167 553.75 496.167ZM589.167 517H595.417C596.653 517 597.861 517.367 598.889 518.053C599.917 518.74 600.718 519.716 601.191 520.858C601.664 522 601.788 523.257 601.547 524.469C601.305 525.682 600.71 526.795 599.836 527.669C598.962 528.543 597.848 529.139 596.636 529.38C595.424 529.621 594.167 529.497 593.025 529.024C591.883 528.551 590.907 527.75 590.22 526.722C589.533 525.695 589.167 524.486 589.167 523.25V517ZM595.417 496.167H616.25C617.908 496.167 619.497 496.825 620.669 497.997C621.842 499.169 622.5 500.759 622.5 502.417C622.5 504.074 621.842 505.664 620.669 506.836C619.497 508.008 617.908 508.667 616.25 508.667H595.417C593.759 508.667 592.169 508.008 590.997 506.836C589.825 505.664 589.167 504.074 589.167 502.417C589.167 500.759 589.825 499.169 590.997 497.997C592.169 496.825 593.759 496.167 595.417 496.167ZM616.25 475.333C617.908 475.333 619.497 475.992 620.669 477.164C621.842 478.336 622.5 479.926 622.5 481.583C622.5 483.241 621.842 484.831 620.669 486.003C619.497 487.175 617.908 487.833 616.25 487.833H610V481.583C610 479.926 610.658 478.336 611.831 477.164C613.003 475.992 614.592 475.333 616.25 475.333ZM553.75 475.333H574.583C576.241 475.333 577.831 475.992 579.003 477.164C580.175 478.336 580.833 479.926 580.833 481.583C580.833 483.241 580.175 484.831 579.003 486.003C577.831 487.175 576.241 487.833 574.583 487.833H553.75C552.092 487.833 550.503 487.175 549.331 486.003C548.158 484.831 547.5 483.241 547.5 481.583C547.5 479.926 548.158 478.336 549.331 477.164C550.503 475.992 552.092 475.333 553.75 475.333ZM574.583 454.5C576.241 454.5 577.831 455.158 579.003 456.331C580.175 457.503 580.833 459.092 580.833 460.75V467H574.583C572.926 467 571.336 466.342 570.164 465.169C568.992 463.997 568.333 462.408 568.333 460.75C568.333 459.092 568.992 457.503 570.164 456.331C571.336 455.158 572.926 454.5 574.583 454.5ZM574.583 496.167C576.241 496.167 577.831 496.825 579.003 497.997C580.175 499.169 580.833 500.759 580.833 502.417V523.25C580.833 524.908 580.175 526.497 579.003 527.669C577.831 528.842 576.241 529.5 574.583 529.5C572.926 529.5 571.336 528.842 570.164 527.669C568.992 526.497 568.333 524.908 568.333 523.25V502.417C568.333 500.759 568.992 499.169 570.164 497.997C571.336 496.825 572.926 496.167 574.583 496.167Z" fill="white"/>
<path d="M328 285.001H347.748L357.375 291.251H337.874L328 285.001Z" fill="white"/>
<path d="M329.875 275.626H348.362L357.375 291.251H339.119L329.875 275.626Z" fill="white" fill-opacity="0.75"/>
<path d="M332.375 266.25H349.182L357.375 291.25H340.778L332.375 266.25Z" fill="white" fill-opacity="0.65"/>
<path d="M335.5 257.5H350.206L357.375 291.25H342.853L335.5 257.5Z" fill="white" fill-opacity="0.4"/>
<path d="M338.624 250H351.229L357.374 291.25H344.927L338.624 250Z" fill="white" fill-opacity="0.25"/>
<path d="M368 299.374H348.252L338.625 293.124H358.126L368 299.374Z" fill="white"/>
<path d="M366.125 308.749H347.638L338.625 293.124H356.881L366.125 308.749Z" fill="white" fill-opacity="0.75"/>
<path d="M363.625 318.125H346.818L338.625 293.125H355.222L363.625 318.125Z" fill="white" fill-opacity="0.65"/>
<path d="M360.5 326.875H345.794L338.625 293.125H353.147L360.5 326.875Z" fill="white" fill-opacity="0.4"/>
<path d="M357.376 334.375H344.771L338.626 293.125H351.073L357.376 334.375Z" fill="white" fill-opacity="0.25"/>
<circle cx="180" cy="94" r="6" fill="#868BFF"/>
<circle cx="347" cy="219" r="5" stroke="#868BFF" stroke-width="2"/>
<circle cx="347" cy="365" r="5" stroke="#868BFF" stroke-width="2"/>
<circle cx="500" cy="492" r="6" fill="#868BFF"/>
<g filter="url(#filter0_d_3478_40)">
<circle cx="348.5" cy="290.5" r="147" stroke="white" stroke-opacity="0.2" shape-rendering="crispEdges"/>
</g>
<circle cx="348.5" cy="291.5" r="86.5" stroke="white" stroke-opacity="0.2" stroke-width="20"/>
<circle cx="95" cy="95" r="85" stroke="white" stroke-opacity="0.2" stroke-width="20"/>
<circle cx="585" cy="492" r="85" stroke="white" stroke-opacity="0.2" stroke-width="20"/>
<defs>
<filter id="filter0_d_3478_40" x="171" y="114" width="355" height="355" filterUnits="userSpaceOnUse" color-interpolation-filters="sRGB">
<feFlood flood-opacity="0" result="BackgroundImageFix"/>
<feColorMatrix in="SourceAlpha" type="matrix" values="0 0 0 0 0 0 0 0 0 0 0 0 0 0 0 0 0 0 127 0" result="hardAlpha"/>
<feOffset dy="1"/>
<feGaussianBlur stdDeviation="15"/>
<feComposite in2="hardAlpha" operator="out"/>
<feColorMatrix type="matrix" values="0 0 0 0 1 0 0 0 0 1 0 0 0 0 1 0 0 0 0.25 0"/>
<feBlend mode="normal" in2="BackgroundImageFix" result="effect1_dropShadow_3478_40"/>
<feBlend mode="normal" in="SourceGraphic" in2="effect1_dropShadow_3478_40" result="shape"/>
</filter>
</defs>
</svg>
