<svg width="867" height="430" viewBox="0 0 867 430" fill="none" xmlns="http://www.w3.org/2000/svg">
<path d="M450 205.001H469.748L479.375 211.251H459.874L450 205.001Z" fill="white"/>
<path d="M451.875 195.626H470.362L479.375 211.251H461.119L451.875 195.626Z" fill="white" fill-opacity="0.75"/>
<path d="M454.375 186.25H471.182L479.375 211.25H462.778L454.375 186.25Z" fill="white" fill-opacity="0.65"/>
<path d="M457.5 177.5H472.206L479.375 211.25H464.853L457.5 177.5Z" fill="white" fill-opacity="0.4"/>
<path d="M460.624 170H473.229L479.374 211.25H466.927L460.624 170Z" fill="white" fill-opacity="0.25"/>
<path d="M490 219.374H470.252L460.625 213.124H480.126L490 219.374Z" fill="white"/>
<path d="M488.125 228.749H469.638L460.625 213.124H478.881L488.125 228.749Z" fill="white" fill-opacity="0.75"/>
<path d="M485.625 238.125H468.818L460.625 213.125H477.222L485.625 238.125Z" fill="white" fill-opacity="0.65"/>
<path d="M482.5 246.875H467.794L460.625 213.125H475.147L482.5 246.875Z" fill="white" fill-opacity="0.4"/>
<path d="M479.376 254.375H466.771L460.626 213.125H473.073L479.376 254.375Z" fill="white" fill-opacity="0.25"/>
<g filter="url(#filter0_d_3506_160)">
<circle cx="470.5" cy="210.5" r="147" stroke="white" stroke-opacity="0.2" shape-rendering="crispEdges"/>
</g>
<circle cx="470.5" cy="211.5" r="86.5" stroke="white" stroke-opacity="0.2" stroke-width="20"/>
<path fill-rule="evenodd" clip-rule="evenodd" d="M72.5 223C72.5 216.787 77.5311 211.75 83.7538 211.75H106.246C112.461 211.75 117.5 216.785 117.5 223C117.5 229.213 112.469 234.25 106.246 234.25H83.7538C77.5385 234.25 72.5 229.215 72.5 223ZM82.5374 223.924C82.5997 223.844 82.7789 223.664 83.0455 223.477C83.46 223.186 83.913 223.013 84.3964 222.999L84.315 222.999C84.805 223.013 85.258 223.185 85.6694 223.475C85.9326 223.661 86.108 223.839 86.1677 223.916L87.0837 225.104L89.4594 223.272L88.5434 222.084C88.3137 221.786 87.9335 221.401 87.398 221.023C86.5341 220.414 85.5281 220.031 84.3961 220.001L84.3147 220.001C83.1893 220.031 82.1862 220.414 81.3209 221.022C80.786 221.398 80.4047 221.781 80.1737 222.076L79.25 223.258L81.6137 225.106L82.5374 223.924ZM103.537 223.924C103.6 223.844 103.779 223.664 104.045 223.477C104.46 223.186 104.913 223.013 105.396 222.999L105.315 222.999C105.805 223.013 106.258 223.185 106.669 223.475C106.933 223.661 107.108 223.839 107.168 223.916L108.084 225.104L110.459 223.272L109.543 222.084C109.314 221.786 108.933 221.401 108.398 221.023C107.534 220.414 106.528 220.031 105.396 220.001L105.315 220.001C104.189 220.031 103.186 220.414 102.321 221.022C101.786 221.398 101.405 221.781 101.174 222.076L100.25 223.258L102.614 225.106L103.537 223.924Z" fill="white"/>
<path fill-rule="evenodd" clip-rule="evenodd" d="M95 193C111.075 193 118.537 199.46 122 205.458V186.956V185.5H125V186.956V221.544V222.272V230.5C125 230.5 125 245.5 95 245.5C65 245.5 65 230.5 65 230.5V222.272V221.544V186.956V185.5H68V186.956V205.458C71.4633 199.46 78.9248 193 95 193ZM68 215.5V230.5C68 230.479 68.0052 230.558 68.0284 230.72C68.0769 231.059 68.1683 231.456 68.3148 231.895C68.7575 233.223 69.5701 234.577 70.8713 235.879C74.934 239.941 82.6099 242.5 95 242.5C107.39 242.5 115.066 239.941 119.129 235.879C120.43 234.577 121.243 233.223 121.685 231.895C121.832 231.456 121.923 231.059 121.972 230.72C121.995 230.558 122 230.479 122 230.5V215.5C122 215.416 121.99 215.181 121.955 214.818C121.893 214.168 121.78 213.433 121.603 212.635C121.093 210.34 120.175 208.045 118.754 205.914C114.641 199.745 107.151 196 95 196C82.8485 196 75.3591 199.745 71.2462 205.914C69.8253 208.045 68.9072 210.34 68.3973 212.635C68.22 213.433 68.107 214.168 68.0451 214.818C68.0121 215.164 68 215.5 68 215.5ZM68 185.5C68 184.672 67.3284 184 66.5 184C65.6716 184 65 184.672 65 185.5H68ZM125 185.5C125 184.672 124.328 184 123.5 184C122.672 184 122 184.672 122 185.5H125Z" fill="white"/>
<circle cx="95" cy="213" r="85" stroke="white" stroke-opacity="0.2" stroke-width="20"/>
<g filter="url(#filter1_d_3506_160)">
<circle cx="207" cy="211" r="6" fill="#868BFF"/>
<circle cx="356" cy="211" r="5" stroke="#868BFF" stroke-width="2"/>
<path d="M213 211L350 211" stroke="#868BFF" stroke-width="2"/>
</g>
<g filter="url(#filter2_d_3506_160)">
<circle cx="713.136" cy="73.0575" r="6" transform="rotate(153.271 713.136 73.0575)" fill="#868BFF"/>
<circle cx="580.058" cy="140.073" r="5" transform="rotate(153.271 580.058 140.073)" stroke="#868BFF" stroke-width="2"/>
<path d="M707.777 75.7559L585.417 137.375" stroke="#868BFF" stroke-width="2"/>
</g>
<g filter="url(#filter3_d_3506_160)">
<circle cx="743.79" cy="154.282" r="6" transform="rotate(165.896 743.79 154.282)" fill="#868BFF"/>
<circle cx="599.281" cy="190.59" r="5" transform="rotate(165.896 599.281 190.59)" stroke="#868BFF" stroke-width="2"/>
<path d="M737.971 155.744L605.101 189.129" stroke="#868BFF" stroke-width="2"/>
</g>
<g filter="url(#filter4_d_3506_160)">
<circle cx="744.81" cy="265.248" r="6" transform="rotate(-165.9 744.81 265.248)" fill="#868BFF"/>
<circle cx="600.3" cy="228.95" r="5" transform="rotate(-165.9 600.3 228.95)" stroke="#868BFF" stroke-width="2"/>
<path d="M738.991 263.787L606.119 230.412" stroke="#868BFF" stroke-width="2"/>
</g>
<g filter="url(#filter5_d_3506_160)">
<circle cx="719.196" cy="348.09" r="6" transform="rotate(-153.27 719.196 348.09)" fill="#868BFF"/>
<circle cx="586.119" cy="281.071" r="5" transform="rotate(-153.27 586.119 281.071)" stroke="#868BFF" stroke-width="2"/>
<path d="M713.838 345.392L591.478 283.771" stroke="#868BFF" stroke-width="2"/>
</g>
<path d="M793.208 26.25C794.037 26.25 794.832 26.5792 795.418 27.1653C796.004 27.7513 796.333 28.5462 796.333 29.375V39.7917C796.333 40.6205 796.004 41.4153 795.418 42.0014C794.832 42.5874 794.037 42.9167 793.208 42.9167C792.38 42.9167 791.585 42.5874 790.999 42.0014C790.413 41.4153 790.083 40.6205 790.083 39.7917V29.375C790.083 28.5462 790.413 27.7513 790.999 27.1653C791.585 26.5792 792.38 26.25 793.208 26.25ZM772.375 47.0833H775.5V50.2083C775.5 50.8264 775.317 51.4306 774.973 51.9445C774.63 52.4584 774.142 52.8589 773.571 53.0955C773 53.332 772.372 53.3939 771.765 53.2733C771.159 53.1527 770.602 52.8551 770.165 52.418C769.728 51.981 769.431 51.4242 769.31 50.818C769.189 50.2118 769.251 49.5835 769.488 49.0124C769.724 48.4414 770.125 47.9534 770.639 47.61C771.153 47.2666 771.757 47.0833 772.375 47.0833ZM790.083 57.5H793.208C793.826 57.5 794.431 57.6833 794.944 58.0267C795.458 58.37 795.859 58.8581 796.095 59.4291C796.332 60.0001 796.394 60.6285 796.273 61.2347C796.153 61.8408 795.855 62.3977 795.418 62.8347C794.981 63.2717 794.424 63.5694 793.818 63.69C793.212 63.8105 792.583 63.7486 792.012 63.5121C791.441 63.2756 790.953 62.8751 790.61 62.3612C790.267 61.8473 790.083 61.2431 790.083 60.625V57.5ZM793.208 47.0833H803.625C804.454 47.0833 805.249 47.4126 805.835 47.9986C806.421 48.5847 806.75 49.3795 806.75 50.2083C806.75 51.0371 806.421 51.832 805.835 52.418C805.249 53.0041 804.454 53.3333 803.625 53.3333H793.208C792.38 53.3333 791.585 53.0041 790.999 52.418C790.413 51.832 790.083 51.0371 790.083 50.2083C790.083 49.3795 790.413 48.5847 790.999 47.9986C791.585 47.4126 792.38 47.0833 793.208 47.0833ZM803.625 36.6667C804.454 36.6667 805.249 36.9959 805.835 37.582C806.421 38.168 806.75 38.9629 806.75 39.7917C806.75 40.6205 806.421 41.4153 805.835 42.0014C805.249 42.5874 804.454 42.9167 803.625 42.9167H800.5V39.7917C800.5 38.9629 800.829 38.168 801.415 37.582C802.001 36.9959 802.796 36.6667 803.625 36.6667ZM772.375 36.6667H782.792C783.62 36.6667 784.415 36.9959 785.001 37.582C785.587 38.168 785.917 38.9629 785.917 39.7917C785.917 40.6205 785.587 41.4153 785.001 42.0014C784.415 42.5874 783.62 42.9167 782.792 42.9167H772.375C771.546 42.9167 770.751 42.5874 770.165 42.0014C769.579 41.4153 769.25 40.6205 769.25 39.7917C769.25 38.9629 769.579 38.168 770.165 37.582C770.751 36.9959 771.546 36.6667 772.375 36.6667ZM782.792 26.25C783.62 26.25 784.415 26.5792 785.001 27.1653C785.587 27.7513 785.917 28.5462 785.917 29.375V32.5H782.792C781.963 32.5 781.168 32.1708 780.582 31.5847C779.996 30.9987 779.667 30.2038 779.667 29.375C779.667 28.5462 779.996 27.7513 780.582 27.1653C781.168 26.5792 781.963 26.25 782.792 26.25ZM782.792 47.0833C783.62 47.0833 784.415 47.4126 785.001 47.9986C785.587 48.5847 785.917 49.3795 785.917 50.2083V60.625C785.917 61.4538 785.587 62.2487 785.001 62.8347C784.415 63.4208 783.62 63.75 782.792 63.75C781.963 63.75 781.168 63.4208 780.582 62.8347C779.996 62.2487 779.667 61.4538 779.667 60.625V50.2083C779.667 49.3795 779.996 48.5847 780.582 47.9986C781.168 47.4126 781.963 47.0833 782.792 47.0833Z" fill="white"/>
<circle cx="788" cy="45" r="40" stroke="white" stroke-opacity="0.2" stroke-width="10"/>
<path d="M813.435 157.76C813.268 157.433 813.117 157.098 812.985 156.755C812.879 156.349 812.828 155.93 812.835 155.51V151.01C812.889 150.375 812.812 149.735 812.608 149.131C812.404 148.528 812.078 147.972 811.65 147.5C810.624 146.66 809.312 146.251 807.99 146.36C807.256 146.356 806.525 146.446 805.815 146.63C805.184 146.779 804.575 147.006 804 147.305C803.849 147.374 803.715 147.477 803.61 147.605C803.538 147.754 803.507 147.92 803.52 148.085V148.775C803.52 149.06 803.61 149.21 803.805 149.21H804.03L804.57 149C805.059 148.809 805.56 148.648 806.07 148.52C806.562 148.404 807.065 148.344 807.57 148.34C808.384 148.256 809.2 148.487 809.85 148.985C810.348 149.618 810.579 150.419 810.495 151.22V152.24C809.94 152.105 809.415 152 808.89 151.925C808.392 151.861 807.892 151.826 807.39 151.82C806.166 151.753 804.96 152.137 804 152.9C803.582 153.248 803.25 153.688 803.029 154.184C802.808 154.681 802.704 155.222 802.725 155.765C802.701 156.26 802.78 156.755 802.959 157.217C803.137 157.679 803.41 158.099 803.76 158.45C804.132 158.806 804.572 159.083 805.054 159.263C805.537 159.444 806.051 159.524 806.565 159.5C807.351 159.512 808.129 159.345 808.841 159.013C809.553 158.68 810.18 158.19 810.675 157.58C810.804 157.863 810.949 158.138 811.11 158.405C811.252 158.637 811.418 158.853 811.605 159.05C811.659 159.109 811.723 159.156 811.795 159.19C811.867 159.223 811.945 159.242 812.025 159.245C812.155 159.247 812.282 159.205 812.385 159.125L813.27 158.54C813.335 158.509 813.393 158.463 813.438 158.406C813.483 158.349 813.515 158.283 813.53 158.212C813.546 158.142 813.546 158.068 813.529 157.998C813.513 157.927 813.481 157.861 813.435 157.805V157.76ZM810.54 154.37C810.548 154.779 810.503 155.188 810.405 155.585C810.339 155.916 810.201 156.229 810 156.5C809.642 156.905 809.188 157.214 808.68 157.4C808.197 157.563 807.69 157.644 807.18 157.64C806.77 157.623 806.374 157.484 806.043 157.241C805.712 156.999 805.461 156.663 805.321 156.277C805.181 155.892 805.159 155.473 805.258 155.074C805.356 154.676 805.571 154.316 805.875 154.04C806.485 153.633 807.214 153.443 807.945 153.5C808.38 153.5 808.815 153.5 809.265 153.575C809.715 153.65 810.135 153.725 810.54 153.815V154.37ZM817.5 158.45C817.543 158.657 817.641 158.849 817.785 159.005C817.945 159.108 818.135 159.155 818.325 159.14H819.525C819.72 159.158 819.915 159.11 820.08 159.005C820.223 158.845 820.317 158.647 820.35 158.435L822.495 149.435L824.67 158.435C824.689 158.644 824.779 158.84 824.925 158.99C825.091 159.107 825.293 159.161 825.495 159.14H826.695C826.882 159.15 827.066 159.097 827.22 158.99C827.37 158.843 827.475 158.655 827.52 158.45L831 147.665C831.051 147.557 831.081 147.44 831.09 147.32C831.096 147.245 831.096 147.17 831.09 147.095C831.098 147.048 831.094 147 831.08 146.954C831.065 146.909 831.04 146.868 831.006 146.834C830.972 146.8 830.931 146.775 830.886 146.76C830.84 146.746 830.792 146.742 830.745 146.75H829.44C829.251 146.744 829.064 146.791 828.9 146.885C828.767 147.04 828.675 147.226 828.63 147.425L826.2 156.785L823.965 147.5C823.939 147.298 823.85 147.108 823.71 146.96C823.539 146.855 823.339 146.807 823.14 146.825H822C821.9 146.808 821.798 146.812 821.7 146.838C821.603 146.864 821.511 146.91 821.433 146.974C821.355 147.038 821.291 147.118 821.247 147.209C821.202 147.3 821.178 147.399 821.175 147.5L819 156.68L816.675 147.5C816.632 147.3 816.539 147.114 816.405 146.96C816.241 146.853 816.045 146.805 815.85 146.825H814.5C814.275 146.825 814.17 146.945 814.17 147.17C814.182 147.36 814.223 147.547 814.29 147.725L817.5 158.45ZM832.5 158.705C833.006 158.964 833.547 159.151 834.105 159.26C834.808 159.427 835.527 159.513 836.25 159.515C836.931 159.518 837.609 159.416 838.26 159.215C838.807 159.057 839.317 158.792 839.76 158.435C840.186 158.105 840.534 157.685 840.78 157.205C841.027 156.701 841.151 156.146 841.14 155.585C841.15 154.881 840.923 154.194 840.495 153.635C839.973 153.006 839.28 152.542 838.5 152.3L836.52 151.67C835.972 151.516 835.461 151.25 835.02 150.89C834.885 150.763 834.778 150.61 834.706 150.439C834.634 150.269 834.597 150.085 834.6 149.9C834.586 149.652 834.641 149.405 834.757 149.186C834.873 148.966 835.047 148.783 835.26 148.655C835.8 148.386 836.397 148.253 837 148.265C837.925 148.248 838.842 148.438 839.685 148.82C839.849 148.905 840.027 148.96 840.21 148.985C840.42 148.985 840.54 148.835 840.54 148.535V147.875C840.55 147.714 840.502 147.554 840.405 147.425C840.297 147.272 840.152 147.149 839.985 147.065C839.797 146.964 839.602 146.879 839.4 146.81C839.145 146.81 838.89 146.66 838.605 146.6L837.705 146.435H836.76C836.167 146.425 835.576 146.5 835.005 146.66C834.464 146.811 833.956 147.06 833.505 147.395C833.09 147.697 832.747 148.086 832.5 148.535C832.249 148.995 832.12 149.511 832.125 150.035C832.131 150.767 832.373 151.477 832.815 152.06C833.392 152.758 834.174 153.256 835.05 153.485L837.075 154.115C837.598 154.232 838.083 154.48 838.485 154.835C838.611 154.964 838.71 155.116 838.777 155.284C838.844 155.451 838.877 155.63 838.875 155.81C838.883 156.078 838.819 156.343 838.69 156.578C838.56 156.813 838.371 157.008 838.14 157.145C837.515 157.481 836.808 157.636 836.1 157.595C835.541 157.599 834.983 157.544 834.435 157.43C833.919 157.325 833.416 157.164 832.935 156.95L832.59 156.8H832.335C832.125 156.8 832.005 156.95 832.005 157.235V158C832.006 158.135 832.037 158.268 832.095 158.39C832.222 158.538 832.388 158.647 832.575 158.705H832.5ZM838.23 165.245C833.233 167.349 827.872 168.455 822.45 168.5C815.157 168.491 807.992 166.584 801.66 162.965C801.15 162.665 800.76 163.19 801.18 163.58C806.888 168.727 814.315 171.552 822 171.5C828.063 171.522 833.992 169.713 839.01 166.31C839.73 165.74 839.07 164.9 838.305 165.245H838.23ZM842.73 162.62C842.235 162.005 837.915 161.465 835.23 163.31C834.825 163.61 834.9 164 835.335 163.94C836.835 163.76 840.135 163.37 840.72 164.12C841.305 164.87 840.06 167.975 839.505 169.37C839.34 169.775 839.7 169.955 840.075 169.625C842.7 167.555 843.345 163.25 842.835 162.62H842.73Z" fill="white"/>
<circle cx="822" cy="155" r="40" stroke="white" stroke-opacity="0.2" stroke-width="10"/>
<path d="M835.814 261.752C837.385 261.752 838.659 260.478 838.659 258.907C838.659 257.335 837.385 256.062 835.814 256.062C834.243 256.062 832.969 257.335 832.969 258.907C832.969 260.478 834.243 261.752 835.814 261.752Z" fill="white"/>
<path d="M832.969 264.189H838.657V270.282C838.657 271.852 837.382 273.125 835.812 273.125H832.969V264.189ZM805.344 252V278L824.032 281.299V248.702L805.344 252ZM819.157 261.019L815.907 261.1V270.687H813.469V261.262L810.22 261.425V259.232L819.157 258.745V261.019ZM825.655 261.75V275.564H828.905C830.252 275.564 831.344 274.472 831.344 273.127V261.75H825.655ZM828.094 253.625C827.117 253.625 826.252 254.065 825.655 254.747V259.005C826.25 259.687 827.117 260.127 828.094 260.127C828.956 260.127 829.783 259.785 830.392 259.175C831.002 258.565 831.345 257.738 831.345 256.876C831.345 256.014 831.002 255.187 830.392 254.578C829.783 253.968 828.956 253.625 828.094 253.625Z" fill="white"/>
<circle cx="822" cy="265" r="40" stroke="white" stroke-opacity="0.2" stroke-width="10"/>
<path d="M800.117 373.884C797.9 372.85 795.5 372.1 793 371.667C792.978 371.666 792.956 371.67 792.936 371.679C792.916 371.688 792.898 371.701 792.883 371.717C792.583 372.267 792.233 372.984 792 373.534C789.348 373.134 786.652 373.134 784 373.534C783.767 372.967 783.417 372.267 783.1 371.717C783.083 371.684 783.033 371.667 782.983 371.667C780.483 372.1 778.1 372.85 775.867 373.884C775.85 373.884 775.833 373.9 775.817 373.917C771.283 380.7 770.033 387.3 770.65 393.834C770.65 393.867 770.667 393.9 770.7 393.917C773.7 396.117 776.583 397.45 779.433 398.334C779.483 398.35 779.533 398.334 779.55 398.3C780.217 397.384 780.817 396.417 781.333 395.4C781.367 395.334 781.333 395.267 781.267 395.25C780.317 394.884 779.417 394.45 778.533 393.95C778.467 393.917 778.467 393.817 778.517 393.767C778.7 393.634 778.883 393.484 779.067 393.35C779.1 393.317 779.15 393.317 779.183 393.334C784.917 395.95 791.1 395.95 796.767 393.334C796.8 393.317 796.85 393.317 796.883 393.35C797.067 393.5 797.25 393.634 797.433 393.784C797.5 393.834 797.5 393.934 797.417 393.967C796.55 394.484 795.633 394.9 794.683 395.267C794.617 395.284 794.6 395.367 794.617 395.417C795.15 396.434 795.75 397.4 796.4 398.317C796.45 398.334 796.5 398.35 796.55 398.334C799.417 397.45 802.3 396.117 805.3 393.917C805.333 393.9 805.35 393.867 805.35 393.834C806.083 386.284 804.133 379.734 800.183 373.917C800.167 373.9 800.15 373.884 800.117 373.884ZM782.2 389.85C780.483 389.85 779.05 388.267 779.05 386.317C779.05 384.367 780.45 382.784 782.2 382.784C783.967 382.784 785.367 384.384 785.35 386.317C785.35 388.267 783.95 389.85 782.2 389.85ZM793.817 389.85C792.1 389.85 790.667 388.267 790.667 386.317C790.667 384.367 792.067 382.784 793.817 382.784C795.583 382.784 796.983 384.384 796.967 386.317C796.967 388.267 795.583 389.85 793.817 389.85Z" fill="white"/>
<circle cx="788" cy="385" r="40" stroke="white" stroke-opacity="0.2" stroke-width="10"/>
<defs>
<filter id="filter0_d_3506_160" x="293" y="34" width="355" height="355" filterUnits="userSpaceOnUse" color-interpolation-filters="sRGB">
<feFlood flood-opacity="0" result="BackgroundImageFix"/>
<feColorMatrix in="SourceAlpha" type="matrix" values="0 0 0 0 0 0 0 0 0 0 0 0 0 0 0 0 0 0 127 0" result="hardAlpha"/>
<feOffset dy="1"/>
<feGaussianBlur stdDeviation="15"/>
<feComposite in2="hardAlpha" operator="out"/>
<feColorMatrix type="matrix" values="0 0 0 0 1 0 0 0 0 1 0 0 0 0 1 0 0 0 0.25 0"/>
<feBlend mode="normal" in2="BackgroundImageFix" result="effect1_dropShadow_3506_160"/>
<feBlend mode="normal" in="SourceGraphic" in2="effect1_dropShadow_3506_160" result="shape"/>
</filter>
<filter id="filter1_d_3506_160" x="171" y="176" width="221" height="72" filterUnits="userSpaceOnUse" color-interpolation-filters="sRGB">
<feFlood flood-opacity="0" result="BackgroundImageFix"/>
<feColorMatrix in="SourceAlpha" type="matrix" values="0 0 0 0 0 0 0 0 0 0 0 0 0 0 0 0 0 0 127 0" result="hardAlpha"/>
<feOffset dy="1"/>
<feGaussianBlur stdDeviation="15"/>
<feComposite in2="hardAlpha" operator="out"/>
<feColorMatrix type="matrix" values="0 0 0 0 1 0 0 0 0 1 0 0 0 0 1 0 0 0 0.25 0"/>
<feBlend mode="normal" in2="BackgroundImageFix" result="effect1_dropShadow_3506_160"/>
<feBlend mode="normal" in="SourceGraphic" in2="effect1_dropShadow_3506_160" result="shape"/>
</filter>
<filter id="filter2_d_3506_160" x="544.057" y="38.0566" width="205.08" height="139.018" filterUnits="userSpaceOnUse" color-interpolation-filters="sRGB">
<feFlood flood-opacity="0" result="BackgroundImageFix"/>
<feColorMatrix in="SourceAlpha" type="matrix" values="0 0 0 0 0 0 0 0 0 0 0 0 0 0 0 0 0 0 127 0" result="hardAlpha"/>
<feOffset dy="1"/>
<feGaussianBlur stdDeviation="15"/>
<feComposite in2="hardAlpha" operator="out"/>
<feColorMatrix type="matrix" values="0 0 0 0 1 0 0 0 0 1 0 0 0 0 1 0 0 0 0.25 0"/>
<feBlend mode="normal" in2="BackgroundImageFix" result="effect1_dropShadow_3506_160"/>
<feBlend mode="normal" in="SourceGraphic" in2="effect1_dropShadow_3506_160" result="shape"/>
</filter>
<filter id="filter3_d_3506_160" x="563.28" y="119.28" width="216.511" height="108.312" filterUnits="userSpaceOnUse" color-interpolation-filters="sRGB">
<feFlood flood-opacity="0" result="BackgroundImageFix"/>
<feColorMatrix in="SourceAlpha" type="matrix" values="0 0 0 0 0 0 0 0 0 0 0 0 0 0 0 0 0 0 127 0" result="hardAlpha"/>
<feOffset dy="1"/>
<feGaussianBlur stdDeviation="15"/>
<feComposite in2="hardAlpha" operator="out"/>
<feColorMatrix type="matrix" values="0 0 0 0 1 0 0 0 0 1 0 0 0 0 1 0 0 0 0.25 0"/>
<feBlend mode="normal" in2="BackgroundImageFix" result="effect1_dropShadow_3506_160"/>
<feBlend mode="normal" in="SourceGraphic" in2="effect1_dropShadow_3506_160" result="shape"/>
</filter>
<filter id="filter4_d_3506_160" x="564.298" y="193.948" width="216.514" height="108.302" filterUnits="userSpaceOnUse" color-interpolation-filters="sRGB">
<feFlood flood-opacity="0" result="BackgroundImageFix"/>
<feColorMatrix in="SourceAlpha" type="matrix" values="0 0 0 0 0 0 0 0 0 0 0 0 0 0 0 0 0 0 127 0" result="hardAlpha"/>
<feOffset dy="1"/>
<feGaussianBlur stdDeviation="15"/>
<feComposite in2="hardAlpha" operator="out"/>
<feColorMatrix type="matrix" values="0 0 0 0 1 0 0 0 0 1 0 0 0 0 1 0 0 0 0.25 0"/>
<feBlend mode="normal" in2="BackgroundImageFix" result="effect1_dropShadow_3506_160"/>
<feBlend mode="normal" in="SourceGraphic" in2="effect1_dropShadow_3506_160" result="shape"/>
</filter>
<filter id="filter5_d_3506_160" x="550.118" y="246.07" width="205.079" height="139.021" filterUnits="userSpaceOnUse" color-interpolation-filters="sRGB">
<feFlood flood-opacity="0" result="BackgroundImageFix"/>
<feColorMatrix in="SourceAlpha" type="matrix" values="0 0 0 0 0 0 0 0 0 0 0 0 0 0 0 0 0 0 127 0" result="hardAlpha"/>
<feOffset dy="1"/>
<feGaussianBlur stdDeviation="15"/>
<feComposite in2="hardAlpha" operator="out"/>
<feColorMatrix type="matrix" values="0 0 0 0 1 0 0 0 0 1 0 0 0 0 1 0 0 0 0.25 0"/>
<feBlend mode="normal" in2="BackgroundImageFix" result="effect1_dropShadow_3506_160"/>
<feBlend mode="normal" in="SourceGraphic" in2="effect1_dropShadow_3506_160" result="shape"/>
</filter>
</defs>
</svg>
