<svg width="80" height="36" viewBox="0 0 80 36" fill="none" xmlns="http://www.w3.org/2000/svg">
<path d="M75.8827 36H4.11728C1.84336 36 0 34.1457 0 31.8584V4.14141C0 1.85416 1.84336 0 4.11728 0H75.8827C78.1566 0 80 1.85416 80 4.14141V31.8584C80 34.1457 78.1566 36 75.8827 36Z" fill="#eee"/>
<path d="M52.9602 7.39285V15.0796C51.7279 14.1699 50.3699 13.6311 48.7278 13.6311C44.6241 13.6311 41.2852 16.9902 41.2852 21.1191C41.2852 25.2479 44.6239 28.6071 48.7278 28.6071C50.3699 28.6071 51.7281 28.0684 52.9602 27.1586V28.3126H56.7068V7.39285H52.9602ZM49.0612 25.0848C46.8878 25.0848 45.1195 23.3057 45.1195 21.1189C45.1195 18.9322 46.8876 17.1532 49.0612 17.1532C51.2348 17.1532 53.0029 18.9322 53.0029 21.1189C53.0029 23.3059 51.2348 25.0848 49.0612 25.0848Z" fill="rgb(23,23,23)"/>
<path d="M19.3859 7.39285V15.0796C18.1537 14.1699 16.7955 13.6311 15.1536 13.6311C11.0498 13.6311 7.71088 16.9902 7.71088 21.1191C7.71088 25.2479 11.0496 28.6071 15.1536 28.6071C16.7956 28.6071 18.1538 28.0684 19.3859 27.1586V28.3126H23.1326V7.39285H19.3859ZM15.4869 25.0848C13.3135 25.0848 11.5452 23.3057 11.5452 21.1189C11.5452 18.9322 13.3135 17.1532 15.4869 17.1532C17.6605 17.1532 19.4288 18.9322 19.4288 21.1189C19.4288 23.3059 17.6605 25.0848 15.4869 25.0848Z" fill="rgb(23,23,23)"/>
<path d="M59.1265 15.6989L60.4385 18.2866C61.9594 17.2562 63.3994 16.6718 65.0767 16.6718C68.4313 16.6718 68.4655 19.2765 68.4655 19.2765C68.4655 19.2765 66.6175 19.1764 65.1534 19.2049C63.1918 19.2478 58.9559 19.9061 58.9559 24.0563C58.9559 26.8613 61.1306 28.6071 64.1158 28.6071C67.1578 28.6071 68.3375 27.4909 68.6219 26.9901L68.636 28.3319H72.2892V19.7917C72.2892 16.972 70.3987 13.5 65.1678 13.5C61.9979 13.5 60.0646 14.969 59.1265 15.6989ZM64.5991 25.745C63.7461 25.745 62.3247 25.5303 62.3247 23.8988C62.3247 22.7111 63.732 22.0813 65.1391 22.0526C66.66 22.024 68.4653 22.0526 68.4653 22.0526C68.4655 24.6574 66.3049 25.745 64.5991 25.745Z" fill="rgb(23,23,23)"/>
<path d="M29.2812 21.6733C29.2812 23.296 30.5862 24.6115 32.1959 24.6115H32.3565C33.9664 24.6115 35.2713 23.296 35.2713 21.6733C35.2713 19.8132 35.2713 14.4643 35.2713 14.4643H39.0362V28.2857H35.4118L35.4065 26.5134C35.0104 27.0905 33.8585 28.2436 31.3713 28.2436C29.666 28.2436 27.8678 27.3603 26.937 26.2825C26.0115 25.2112 25.5422 23.6286 25.5422 21.5783V14.4643H29.281V21.6733H29.2812Z" fill="rgb(23,23,23)"/>
</svg>
