<?xml version="1.0" encoding="utf-8"?>
<!-- Generator: Adobe Illustrator 25.2.0, SVG Export Plug-In . SVG Version: 6.00 Build 0)  -->
<svg version="1.1" id="Layer_1" xmlns="http://www.w3.org/2000/svg" xmlns:xlink="http://www.w3.org/1999/xlink" x="0px" y="0px"
	 viewBox="0 0 222 64" style="enable-background:new 0 0 222 64;" xml:space="preserve">
<style type="text/css">
	.st0{fill:#FFFFFF;}
	.st1{fill:#00C08B;}
</style>
<g>
	<g>
		<path class="st0" d="M72.04,13.06c1.38-0.22,2.75-0.34,4.1-0.34c1.35,0,2.73,0.11,4.16,0.34v40.38c-1.42,0.22-2.79,0.34-4.1,0.34
			c-1.39,0-2.77-0.11-4.16-0.34V13.06z"/>
		<path class="st0" d="M88.16,24.4c0.52-0.11,1.05-0.2,1.57-0.25c0.52-0.06,1.1-0.08,1.74-0.08c0.64,0,1.2,0.03,1.68,0.08
			c0.49,0.06,0.99,0.14,1.52,0.25c0.11,0.19,0.21,0.46,0.31,0.81c0.09,0.36,0.18,0.73,0.25,1.12c0.07,0.39,0.14,0.78,0.2,1.15
			c0.06,0.37,0.1,0.69,0.14,0.95c0.37-0.56,0.82-1.12,1.35-1.68c0.52-0.56,1.13-1.07,1.83-1.52c0.69-0.45,1.47-0.81,2.33-1.1
			c0.86-0.28,1.82-0.42,2.86-0.42c3.29,0,5.77,0.9,7.44,2.7c1.67,1.8,2.5,4.62,2.5,8.48v18.53c-1.35,0.22-2.68,0.34-3.99,0.34
			c-1.31,0-2.64-0.11-3.99-0.34v-16.4c0-2.02-0.31-3.57-0.93-4.66c-0.62-1.09-1.69-1.63-3.23-1.63c-0.64,0-1.29,0.09-1.97,0.28
			c-0.67,0.19-1.28,0.55-1.83,1.1c-0.54,0.54-0.98,1.3-1.32,2.27c-0.34,0.97-0.51,2.25-0.51,3.82v15.22
			c-1.35,0.22-2.68,0.34-3.99,0.34c-1.31,0-2.64-0.11-3.99-0.34V24.4z"/>
		<path class="st0" d="M123.03,30.47h-4.6c-0.11-0.6-0.19-1.14-0.22-1.63c-0.04-0.49-0.06-0.99-0.06-1.52c0-0.49,0.02-0.95,0.06-1.4
			c0.04-0.45,0.11-0.95,0.22-1.52h4.6V23c0-1.8,0.27-3.4,0.81-4.8c0.54-1.4,1.32-2.58,2.33-3.54c1.01-0.95,2.22-1.68,3.62-2.19
			c1.4-0.51,2.95-0.76,4.63-0.76c1.12,0,2.07,0.05,2.84,0.14c0.77,0.09,1.6,0.27,2.5,0.53c-0.08,1.24-0.2,2.35-0.37,3.34
			c-0.17,0.99-0.44,1.98-0.81,2.95c-0.41-0.07-0.84-0.16-1.29-0.25c-0.45-0.09-1.05-0.14-1.8-0.14c-1.31,0-2.38,0.31-3.2,0.93
			c-0.82,0.62-1.27,1.94-1.35,3.96v1.24h6.74c0.11,0.6,0.19,1.14,0.22,1.63c0.04,0.49,0.06,0.99,0.06,1.52
			c0,0.49-0.02,0.95-0.06,1.4c-0.04,0.45-0.11,0.95-0.22,1.52h-6.74v22.97c-1.35,0.22-2.66,0.34-3.93,0.34
			c-1.31,0-2.64-0.11-3.99-0.34V30.47z"/>
		<path class="st0" d="M143.36,24.4c0.56-0.11,1.1-0.2,1.6-0.25c0.51-0.06,1.06-0.08,1.66-0.08c0.56,0,1.11,0.04,1.66,0.11
			c0.54,0.08,1.08,0.17,1.6,0.28c0.11,0.19,0.21,0.46,0.31,0.81c0.09,0.36,0.18,0.73,0.25,1.12c0.07,0.39,0.14,0.79,0.2,1.18
			c0.06,0.39,0.1,0.72,0.14,0.98c0.82-1.16,1.83-2.2,3.03-3.12c1.2-0.92,2.7-1.38,4.49-1.38c0.37,0,0.8,0.02,1.29,0.06
			c0.49,0.04,0.84,0.09,1.07,0.17c0.07,0.37,0.13,0.81,0.17,1.29c0.04,0.49,0.06,0.99,0.06,1.52c0,0.64-0.03,1.33-0.08,2.08
			c-0.06,0.75-0.16,1.46-0.31,2.13c-0.41-0.07-0.87-0.11-1.38-0.11c-0.51,0-0.81,0-0.93,0c-0.64,0-1.35,0.07-2.13,0.2
			c-0.79,0.13-1.54,0.48-2.25,1.04c-0.71,0.56-1.3,1.4-1.77,2.53c-0.47,1.12-0.7,2.7-0.7,4.72v13.81c-0.67,0.11-1.35,0.19-2.02,0.22
			c-0.67,0.04-1.33,0.06-1.97,0.06c-0.64,0-1.28-0.02-1.94-0.06c-0.66-0.04-1.34-0.11-2.05-0.22V24.4z"/>
		<path class="st0" d="M165.94,24.4c0.56-0.11,1.1-0.2,1.6-0.25c0.51-0.06,1.06-0.08,1.66-0.08c0.56,0,1.11,0.04,1.66,0.11
			c0.54,0.08,1.08,0.17,1.6,0.28c0.11,0.19,0.21,0.46,0.31,0.81c0.09,0.36,0.18,0.73,0.25,1.12c0.07,0.39,0.14,0.79,0.2,1.18
			c0.06,0.39,0.1,0.72,0.14,0.98c0.82-1.16,1.83-2.2,3.03-3.12c1.2-0.92,2.7-1.38,4.49-1.38c0.37,0,0.8,0.02,1.29,0.06
			c0.49,0.04,0.84,0.09,1.07,0.17c0.07,0.37,0.13,0.81,0.17,1.29c0.04,0.49,0.06,0.99,0.06,1.52c0,0.64-0.03,1.33-0.08,2.08
			c-0.06,0.75-0.16,1.46-0.31,2.13c-0.41-0.07-0.87-0.11-1.38-0.11s-0.81,0-0.93,0c-0.64,0-1.35,0.07-2.13,0.2
			c-0.79,0.13-1.54,0.48-2.25,1.04c-0.71,0.56-1.3,1.4-1.77,2.53c-0.47,1.12-0.7,2.7-0.7,4.72v13.81c-0.67,0.11-1.35,0.19-2.02,0.22
			c-0.67,0.04-1.33,0.06-1.97,0.06c-0.64,0-1.28-0.02-1.94-0.06c-0.66-0.04-1.34-0.11-2.05-0.22V24.4z"/>
		<path class="st0" d="M205.08,12.38c0.67-0.11,1.34-0.19,1.99-0.22c0.65-0.04,1.3-0.06,1.94-0.06c0.64,0,1.29,0.02,1.97,0.06
			c0.67,0.04,1.35,0.11,2.02,0.22v40.1c-1.76,0.52-3.55,0.93-5.36,1.21c-1.82,0.28-4.02,0.42-6.6,0.42c-1.98,0-3.88-0.27-5.7-0.81
			c-1.82-0.54-3.42-1.4-4.8-2.58c-1.39-1.18-2.48-2.7-3.29-4.58c-0.81-1.87-1.21-4.16-1.21-6.85c0-2.13,0.35-4.15,1.04-6.04
			c0.69-1.89,1.68-3.53,2.98-4.91c1.29-1.38,2.85-2.48,4.69-3.29c1.83-0.8,3.87-1.21,6.12-1.21c0.67,0,1.38,0.03,2.11,0.08
			c0.73,0.06,1.43,0.18,2.11,0.36V12.38z M205.08,30.41c-0.75-0.19-1.36-0.31-1.83-0.37c-0.47-0.06-1.06-0.08-1.77-0.08
			c-1.24,0-2.31,0.25-3.23,0.76c-0.92,0.51-1.68,1.18-2.27,2.02c-0.6,0.84-1.04,1.83-1.32,2.98c-0.28,1.14-0.42,2.33-0.42,3.57
			c0,1.54,0.19,2.84,0.56,3.9c0.37,1.07,0.89,1.92,1.54,2.56c0.65,0.64,1.43,1.1,2.33,1.38c0.9,0.28,1.87,0.42,2.92,0.42
			c0.64,0,1.22-0.03,1.74-0.08c0.52-0.06,1.1-0.18,1.74-0.37V30.41z"/>
	</g>
	<g>
		<g>
			<path class="st1" d="M20.56,31.76c0-3.03,1.36-5.73,3.51-7.54H12.36c-0.97,2.32-1.51,4.86-1.51,7.54H20.56z"/>
			<path class="st1" d="M3.94,12.21H30.4c7.21,0,13.51,3.9,16.9,9.71c0.01,0.02,0.03,0.04,0.04,0.07c0.42,0.72,0.79,1.47,1.11,2.24
				c0.97,2.32,1.51,4.86,1.51,7.54h-9.71c0-3.03-1.37-5.73-3.51-7.54c-1.44-1.21-3.23-2.01-5.2-2.24c-0.37-0.04-0.75-0.07-1.13-0.07
				H13.51c0,0,0,0,0,0C8.24,21.78,4,17.5,3.94,12.21z"/>
		</g>
		<g>
			<path class="st1" d="M48.42,41.61c0.99-2.34,1.54-4.91,1.54-7.61h-9.71c0,3.07-1.4,5.8-3.6,7.61H48.42z"/>
			<path class="st1" d="M10.85,34h9.71c0,3.07,1.4,5.8,3.6,7.61c1.7,1.39,3.87,2.23,6.24,2.23H47.3c0,0,0,0,0,0
				c0.06,0,0.12,0.01,0.18,0.01c5.18,0.24,9.32,4.48,9.39,9.7H30.41c-7.21,0-13.5-3.9-16.89-9.7c0,0,0-0.01,0-0.01
				c-0.42-0.72-0.79-1.46-1.12-2.23C11.4,39.27,10.86,36.7,10.85,34z"/>
		</g>
	</g>
</g>
</svg>
