<svg width="128" height="29" viewBox="0 0 128 29" fill="none" xmlns="http://www.w3.org/2000/svg" class="text-gray-900 translate-y-1 transform"><path d="M32.962 6.037l-.025 8.622a3.14 3.14 0 00.185 1.186c.078.23.216.436.399.595.197.129.407.236.627.32a.317.317 0 01.197.297c0 .315-.246.716-.738 1.203-.492.487-1.132.73-1.92.73-.672 0-1.214-.194-1.625-.582a2.618 2.618 0 01-.767-1.571l-.114-.996c-.427 1.007-1.052 1.844-1.806 2.356a4.388 4.388 0 01-2.412.791c-1.034.016-1.859-.296-2.474-.935-.615-.64-.923-1.588-.923-2.845V10.28c0-1.447-.627-1.805-.627-1.805a2.596 2.596 0 00-.653-.297.333.333 0 01-.22-.322c0-.33.25-.738.749-1.224a2.633 2.633 0 011.908-.73c.787 0 1.423.243 1.908.73.485.486.727 1.158.726 2.015v5.64c0 .725.127 1.253.382 1.584a1.113 1.113 0 00.971.469c.609-.032 1.167-.457 1.674-1.274.508-.817.763-1.841.764-3.073V6.037a16.46 16.46 0 013.814 0zM42.68 7.93h-2.606v5.346c0 1.187.148 2.016.443 2.485.295.47.827.705 1.596.706.244-.006.487-.035.726-.087.175-.04.353-.07.532-.087a.239.239 0 01.265.267c0 .495-.373 1.023-1.12 1.584-.745.56-1.644.841-2.694.84-2.363 0-3.545-1.459-3.545-4.377V7.925h-1.413a3.986 3.986 0 010-1.682h1.396V3.207a15.79 15.79 0 013.84.024v3.017h2.58a4.291 4.291 0 010 1.683zM57.093 16.436c.207.128.426.236.653.32a.351.351 0 01.221.297c0 .396-.27.816-.811 1.262a2.86 2.86 0 01-1.87.668c-.74 0-1.335-.227-1.785-.68-.452-.453-.745-1.137-.798-1.962a4.646 4.646 0 01-1.595 1.924 4.041 4.041 0 01-2.326.694c-1.462 0-2.635-.606-3.52-1.819-.884-1.212-1.327-2.75-1.329-4.613 0-1.781.46-3.327 1.379-4.638.919-1.31 2.125-1.964 3.618-1.963 1.706 0 3.011.802 3.765 2.272V.188a9.746 9.746 0 013.815 0l-.012 6.778c-.008 4.024-.012 6.563-.012 7.617 0 0-.01 1.452.608 1.853zm-5.124-1.25c.484-.766.726-1.678.726-2.733 0-1.088-.23-2.023-.689-2.807-.459-.783-1.074-1.174-1.845-1.174-.71 0-1.292.356-1.749 1.069-.456.713-.694 1.643-.714 2.793-.016 1.22.21 2.193.678 2.918.469.725 1.055 1.088 1.76 1.088.738 0 1.35-.383 1.833-1.15v-.003zM69.805 7.617c1.197 1.211 1.796 2.782 1.797 4.711 0 1.946-.59 3.541-1.772 4.787-1.182 1.245-2.741 1.869-4.678 1.87-1.87 0-3.416-.597-4.639-1.793-1.223-1.195-1.834-2.807-1.832-4.834 0-1.896.611-3.463 1.834-4.7 1.222-1.237 2.767-1.856 4.636-1.855 1.906 0 3.457.605 4.654 1.814zM67.17 15.58c.46-.802.69-1.853.69-3.154 0-1.287-.225-2.35-.676-3.19-.451-.84-1.129-1.26-2.033-1.257-.82 0-1.476.401-1.968 1.203s-.738 1.844-.74 3.128c0 1.352.255 2.437.764 3.254.509.817 1.165 1.225 1.97 1.224.869-.002 1.534-.403 1.995-1.203l-.001-.005zM84.13 7.617c1.197 1.211 1.796 2.782 1.796 4.711 0 1.946-.59 3.541-1.771 4.787-1.18 1.245-2.74 1.869-4.678 1.87-1.869 0-3.415-.597-4.639-1.793-1.223-1.195-1.834-2.807-1.833-4.834 0-1.896.611-3.463 1.833-4.7 1.223-1.237 2.77-1.856 4.64-1.855 1.903 0 3.454.605 4.652 1.814zm-2.634 7.964c.46-.802.69-1.853.69-3.154 0-1.287-.226-2.35-.677-3.19-.451-.84-1.128-1.261-2.032-1.262-.82 0-1.476.4-1.969 1.202-.493.802-.739 1.845-.738 3.129 0 1.352.255 2.437.764 3.253.508.817 1.165 1.225 1.969 1.224.87.002 1.534-.397 1.993-1.197v-.005zM91.857 18.815v-5.17c.018-1.257.215-2.331.59-3.222.377-.891.85-1.35 1.423-1.38a.753.753 0 01.726.334c.163.263.244.569.234.879-.007.315-.048.629-.123.935l-.123.544c0 .298.304.446.911.446.738 0 1.398-.321 1.981-.964.576-.626.889-1.45.874-2.301 0-.908-.254-1.642-.763-2.201-.51-.56-1.188-.838-2.037-.835a3.267 3.267 0 00-2.29.99c-.655.642-1.178 1.643-1.462 2.732 0-.445-.052-.91-.068-1.125-.067-.825-.305-1.464-.714-1.917-.41-.454-.965-.68-1.666-.68a2.665 2.665 0 00-1.92.73c-.508.486-.763.886-.763 1.202a.355.355 0 00.222.296c.357.126.67.354.898.657.188.267.282.763.282 1.47v8.58h3.788zM103.881 10.491a6.979 6.979 0 001.883.828c.737.214 1.476.45 2.215.706a4.855 4.855 0 011.883 1.162 2.673 2.673 0 01.775 1.966c0 1.122-.521 2.037-1.562 2.746-1.042.71-2.466 1.072-4.271 1.09-1.691 0-3.057-.273-4.098-.817-1.042-.544-1.563-1.246-1.564-2.104a1.685 1.685 0 01.567-1.336 2.121 2.121 0 011.452-.495c.38.003.755.08 1.107.223.378.147.567.288.567.42l-.024.198a3.583 3.583 0 00-.026.401 1.468 1.468 0 00.492 1.137c.329.298.838.447 1.527.447.639 0 1.139-.153 1.501-.459a1.39 1.39 0 00.541-1.1c0-.446-.258-.809-.775-1.088a8.66 8.66 0 00-1.871-.718c-.73-.198-1.46-.428-2.19-.692a4.662 4.662 0 01-1.87-1.247 2.947 2.947 0 01-.776-2.078c0-1.069.517-1.972 1.551-2.708 1.033-.737 2.305-1.101 3.814-1.093 1.692 0 3.008.28 3.951.84.942.56 1.413 1.244 1.412 2.051 0 .577-.181 1.03-.541 1.36-.361.33-.837.495-1.428.496a2.922 2.922 0 01-1.089-.223c-.37-.148-.554-.296-.554-.445a.42.42 0 01.024-.099c.02-.069.033-.14.038-.21.008-.09.012-.177.012-.26a1.656 1.656 0 00-.418-1.137c-.279-.314-.714-.47-1.306-.47a1.75 1.75 0 00-1.241.444 1.332 1.332 0 00-.483.993c0 .509.258.932.775 1.271zM127.31 19.575c-.513-.28-1.32-.286-1.646-.3-.461-.02-.903-.018-1.319 0V6.036a13.33 13.33 0 00-3.789 0v5.95c0 1.237-.255 2.261-.763 3.073-.509.811-1.067 1.236-1.674 1.273a1.107 1.107 0 01-.972-.469c-.256-.33-.383-.857-.382-1.583V8.647c0-.856-.242-1.528-.726-2.015-.484-.487-1.12-.73-1.908-.73a2.62 2.62 0 00-1.912.73c-.5.486-.75.894-.75 1.224a.337.337 0 00.222.322c.717.032 1.071.902 1.071.902.153.381.224.791.208 1.203v4.848c0 1.253.308 2.205.923 2.856.615.652 1.44.97 2.474.953a4.596 4.596 0 002.412-.742c.754-.478 1.411-1.298 1.822-2.271v4.009c-.101.03-.219.056-.352.093-1.831.524-3.366 1.288-4.564 2.303-.968.82-1.675 1.737-1.575 2.95.142 1.712 2.501 2.988 4.905 2.672 1.397-.185 2.321-.737 3.022-1.47 1.089-1.127 1.583-2.465 1.901-3.86.096-.423.172-.854.266-1.32.74.1 1.472.252 2.191.453.645.163 1.509.267 1.596-.942a1.2 1.2 0 00-.681-1.24zm-10.42 5.612c-.387-1.105.921-2.096 2.07-2.729.415-.234.846-.439 1.29-.613.161-.065.258-.1.258-.1-.399 5.154-3.057 5.05-3.618 3.449v-.007zM18.58 7.089c-1.819-3.764-5.652-5.586-8.89-5.586-1.806 0-3.584.456-5.17 1.326C1.33 4.644-.335 7.847.058 9.152c0 0 .349 1.163 1.921 1.123.74-.02 1.034-.52 1.087-.95.19-2.139 1.886-4.607 4.302-5.686 1.3-.582 2.785-.588 4.408.152a5.982 5.982 0 012.984 3.032c.545 1.049.821 2.342.821 3.887 0 1.685-.321 3.044-.965 4.078-.645 1.035-1.615 1.552-2.833 1.552-1.128 0-2.008-.535-2.72-1.584-.713-1.049-1.064-2.297-1.064-4.046 0-1.664.344-3.172 1.034-4.206a3.538 3.538 0 011.206-1.172.483.483 0 00.223-.61.469.469 0 00-.434-.28c-3.947 0-5.887 3.39-5.887 6.268 0 6.445 4.536 8.278 7.63 8.278 4.348 0 7.614-3.875 7.614-8.309a8.58 8.58 0 00-.804-3.59z" fill="#eee"></path></svg>