<svg width="1024" height="1024" viewBox="0 0 1024 1024" fill="none" xmlns="http://www.w3.org/2000/svg">
<rect width="1024" height="1024" fill="white"/>
<path d="M325 445.459H509.149L598.922 503.756H417.075L325 445.459Z" fill="#2E59C7"/>
<path opacity="0.85" d="M342.484 358.015H514.879L598.922 503.756H428.682L342.484 358.015Z" fill="#2E59C7"/>
<path opacity="0.75" d="M365.797 270.57H522.52L598.922 503.756H444.158L365.797 270.57Z" fill="#2E59C7"/>
<path opacity="0.5" d="M394.938 188.956H532.07L598.922 503.756H463.504L394.938 188.956Z" fill="#2E59C7"/>
<path opacity="0.25" d="M424.078 119H541.62L598.922 503.756H482.849L424.078 119Z" fill="#2E59C7"/>
<path d="M698 579.541H513.851L424.078 521.245H605.925L698 579.541Z" fill="#2E59C7"/>
<path opacity="0.85" d="M680.516 666.985H508.121L424.078 521.244H594.318L680.516 666.985Z" fill="#2E59C7"/>
<path opacity="0.75" d="M657.203 754.43H500.48L424.078 521.244H578.842L657.203 754.43Z" fill="#2E59C7"/>
<path opacity="0.5" d="M628.062 836.044H490.93L424.078 521.244H559.496L628.062 836.044Z" fill="#2E59C7"/>
<path opacity="0.25" d="M598.922 906H481.38L424.078 521.244H540.151L598.922 906Z" fill="#2E59C7"/>
</svg>
