<svg width="1024" height="1024" viewBox="0 0 1024 1024" fill="none" xmlns="http://www.w3.org/2000/svg">
<rect width="1024" height="1024" fill="#2E59C7"/>
<path d="M325 445.375H509.149L598.922 503.656H417.075L325 445.375Z" fill="white"/>
<path opacity="0.85" d="M342.484 357.953H514.879L598.922 503.656H428.682L342.484 357.953Z" fill="white"/>
<path opacity="0.75" d="M365.797 270.531H522.52L598.922 503.656H444.158L365.797 270.531Z" fill="white"/>
<path opacity="0.5" d="M394.938 188.938H532.07L598.922 503.656H463.504L394.938 188.938Z" fill="white"/>
<path opacity="0.25" d="M424.078 119H541.62L598.922 503.656H482.849L424.078 119Z" fill="white"/>
<path d="M698 579.422H513.851L424.078 521.141H605.925L698 579.422Z" fill="white"/>
<path opacity="0.85" d="M680.516 666.844H508.121L424.078 521.141H594.318L680.516 666.844Z" fill="white"/>
<path opacity="0.75" d="M657.203 754.266H500.48L424.078 521.141H578.842L657.203 754.266Z" fill="white"/>
<path opacity="0.5" d="M628.062 835.859H490.93L424.078 521.141H559.496L628.062 835.859Z" fill="white"/>
<path opacity="0.25" d="M598.922 905.797H481.38L424.078 521.141H540.151L598.922 905.797Z" fill="white"/>
</svg>
