<svg width="697" height="697" viewBox="0 0 697 697" fill="none" xmlns="http://www.w3.org/2000/svg">
<g clip-path="url(#clip0)">
<rect x="0.19873" y="0.299805" width="696.218" height="696.218" rx="121.081" fill="#0F2C41"/>
<path opacity="0.3" d="M382.756 287.99L562.926 392.059V485.958L398.679 391.03L382.817 396.237L382.756 287.99Z" fill="url(#paint0_linear)"/>
<path d="M419.383 340.6C419.383 348.349 414.782 351.981 409.151 348.712C403.521 345.443 398.92 336.543 398.92 328.794C398.92 321.045 403.521 317.413 409.151 320.682C414.782 323.89 419.383 332.851 419.383 340.6Z" fill="#245FFF"/>
<path opacity="0.15" d="M429.07 337.573L468.542 360.397V368.63L429.07 345.806V337.573Z" fill="white"/>
<path opacity="0.15" d="M429.07 354.1L546.943 422.208V430.442L429.07 362.334V354.1Z" fill="white"/>
<path opacity="0.15" d="M429.07 370.567L521.273 423.843V432.077L429.07 378.801V370.567Z" fill="white"/>
<path opacity="0.3" d="M251.867 162.731L353.333 221.274V409.253L251.867 350.71V162.731Z" fill="url(#paint1_linear)"/>
<path opacity="0.15" d="M261.856 274.308L343.344 321.348V329.581L261.856 282.541V274.308Z" fill="white"/>
<path opacity="0.15" d="M267.547 293.62L337.592 334.061V342.295L267.547 301.854V293.62Z" fill="white"/>
<path d="M297.152 327.281L226.561 286.537V307.544L297.152 348.288V327.281Z" fill="white"/>
<path d="M314.163 236.591C314.163 245.672 308.896 249.97 302.418 246.217C295.94 242.463 290.673 231.99 290.673 222.848C290.673 213.767 295.94 209.469 302.418 213.222C308.896 217.097 314.163 227.51 314.163 236.591Z" fill="white"/>
<path d="M302.418 253.542C291.945 247.428 283.288 253.179 281.774 266.316C281.532 268.617 283.227 271.644 285.346 272.855L319.491 292.833C321.61 294.044 323.305 293.075 323.063 290.472C321.549 275.518 312.892 259.657 302.418 253.542Z" fill="white"/>
<path opacity="0.3" d="M322.276 387.882L423.742 446.425V634.404L322.276 575.861V387.882Z" fill="url(#paint2_linear)"/>
<path opacity="0.15" d="M332.205 499.458L413.692 546.499V554.732L332.205 507.692V499.458Z" fill="white"/>
<path opacity="0.15" d="M337.895 518.771L407.941 559.212V567.446L337.895 527.005V518.771Z" fill="white"/>
<path d="M448.866 599.351L378.276 558.607V579.615L448.866 620.358V599.351Z" fill="#245FFF"/>
<path d="M384.512 461.742C384.512 470.823 379.245 475.121 372.767 471.368C366.289 467.554 361.022 457.141 361.022 447.999C361.022 438.918 366.289 434.62 372.767 438.373C379.245 442.187 384.512 452.661 384.512 461.742Z" fill="#245FFF"/>
<path d="M372.767 478.693C362.293 472.578 353.636 478.33 352.122 491.467C351.88 493.768 353.575 496.795 355.694 498.006L389.839 517.984C391.958 519.195 393.653 518.226 393.411 515.623C391.897 500.669 383.24 484.808 372.767 478.693Z" fill="#245FFF"/>
<path opacity="0.3" d="M292.914 371.476L112.745 267.406V361.305L277.052 456.172L292.974 479.723L292.914 371.476Z" fill="url(#paint3_linear)"/>
<path d="M256.287 381.767C256.287 389.517 260.888 398.416 266.518 401.685C272.148 404.955 276.749 401.322 276.749 393.573C276.749 385.824 272.148 376.924 266.518 373.655C260.888 370.386 256.287 374.018 256.287 381.767Z" fill="white"/>
<path opacity="0.15" d="M246.6 367.54L207.127 344.777V353.01L246.6 375.834V367.54Z" fill="white"/>
<path opacity="0.15" d="M246.6 384.068L128.727 315.959V324.193L246.6 392.301V384.068Z" fill="white"/>
<path opacity="0.15" d="M246.6 400.596L154.396 347.32V355.553L246.6 408.829V400.596Z" fill="white"/>
<path opacity="0.4" d="M559.535 139.725C457.342 80.6982 373.796 150.623 373.796 297.373L347.703 282.299C347.764 116.538 442.268 35.8981 559.535 103.583V139.725Z" fill="url(#paint4_linear)"/>
<path opacity="0.4" d="M474.294 355.493C474.294 290.351 512.434 259.535 559.475 286.658V250.515C498.026 215.038 448.201 255.298 448.201 340.418L474.294 355.493Z" fill="url(#paint5_linear)"/>
<path opacity="0.4" d="M423.439 325.464C423.439 221.455 484.343 172.296 559.353 215.644V179.501C469.935 127.859 397.346 186.463 397.346 310.39L423.439 325.464Z" fill="url(#paint6_linear)"/>
<path opacity="0.4" d="M534.713 390.304C548.396 398.235 559.474 389.214 559.474 370.265C559.474 351.315 548.396 329.521 534.713 321.59C521.031 313.659 509.952 322.68 509.952 341.629C509.952 360.639 521.031 382.373 534.713 390.304Z" fill="url(#paint7_linear)"/>
<path opacity="0.07" d="M583.751 122.169C481.498 63.1416 398.012 133.066 398.012 279.817L371.919 264.742C371.979 98.9817 466.484 18.3414 583.751 86.026V122.169Z" fill="url(#paint8_linear)"/>
<path opacity="0.07" d="M498.51 337.936C498.51 272.794 536.651 241.979 583.691 269.101V232.958C522.242 197.481 472.417 237.741 472.417 322.861L498.51 337.936Z" fill="url(#paint9_linear)"/>
<path opacity="0.07" d="M447.656 307.908C447.656 203.899 508.56 154.74 583.569 198.087V161.944C494.151 110.303 421.562 168.906 421.562 292.833L447.656 307.908Z" fill="url(#paint10_linear)"/>
<path opacity="0.07" d="M558.93 372.747C572.612 380.678 583.691 371.657 583.691 352.708C583.691 333.759 572.612 311.964 558.93 304.033C545.247 296.103 534.168 305.123 534.168 324.072C534.168 343.082 545.247 364.816 558.93 372.747Z" fill="url(#paint11_linear)"/>
<path opacity="0.2" d="M479.621 466.766C483.253 468.825 486.159 473.91 486.159 478.088V496.552L498.389 503.575C502.021 505.634 504.927 510.719 504.927 514.957C504.927 519.134 502.021 520.829 498.389 518.771L486.159 511.748V530.213C486.159 534.39 483.253 536.086 479.621 534.027C475.989 531.969 473.083 526.883 473.083 522.646V504.181L460.853 497.158C457.221 495.099 454.315 490.014 454.315 485.837C454.315 481.659 457.221 479.964 460.853 482.023L473.083 489.045V470.58C473.083 466.403 475.989 464.708 479.621 466.766Z" fill="url(#paint12_linear)"/>
<path opacity="0.2" d="M191.145 203.051L207.975 236.107C210.276 240.647 209.912 245.188 207.128 246.277C204.343 247.367 200.226 244.522 197.925 239.981L197.744 239.557V276.245C197.744 280.422 194.838 282.117 191.205 280.059C187.573 277.94 184.667 272.915 184.667 268.738V232.05L184.485 232.232C182.185 234.109 178.007 232.171 175.283 227.873C172.498 223.575 172.135 218.61 174.436 216.733L191.145 203.051Z" fill="url(#paint13_linear)"/>
</g>
<defs>
<linearGradient id="paint0_linear" x1="460.207" y1="291.046" x2="483.379" y2="479.947" gradientUnits="userSpaceOnUse">
<stop stop-color="white"/>
<stop offset="1" stop-color="white" stop-opacity="0"/>
</linearGradient>
<linearGradient id="paint1_linear" x1="364.2" y1="179.272" x2="274.135" y2="335.31" gradientUnits="userSpaceOnUse">
<stop stop-color="white"/>
<stop offset="1" stop-color="white" stop-opacity="0"/>
</linearGradient>
<linearGradient id="paint2_linear" x1="434.553" y1="404.41" x2="344.488" y2="560.448" gradientUnits="userSpaceOnUse">
<stop stop-color="white"/>
<stop offset="1" stop-color="white" stop-opacity="0"/>
</linearGradient>
<linearGradient id="paint3_linear" x1="253.607" y1="333.819" x2="160.58" y2="406.621" gradientUnits="userSpaceOnUse">
<stop stop-color="white"/>
<stop offset="1" stop-color="white" stop-opacity="0"/>
</linearGradient>
<linearGradient id="paint4_linear" x1="523.536" y1="75.9181" x2="373.001" y2="251.569" gradientUnits="userSpaceOnUse">
<stop stop-color="white"/>
<stop offset="1" stop-color="white" stop-opacity="0"/>
</linearGradient>
<linearGradient id="paint5_linear" x1="616.262" y1="155.455" x2="465.727" y2="331.106" gradientUnits="userSpaceOnUse">
<stop stop-color="white"/>
<stop offset="1" stop-color="white" stop-opacity="0"/>
</linearGradient>
<linearGradient id="paint6_linear" x1="570.861" y1="115.95" x2="420.326" y2="291.601" gradientUnits="userSpaceOnUse">
<stop stop-color="white"/>
<stop offset="1" stop-color="white" stop-opacity="0"/>
</linearGradient>
<linearGradient id="paint7_linear" x1="668.37" y1="200.022" x2="517.834" y2="375.673" gradientUnits="userSpaceOnUse">
<stop stop-color="white"/>
<stop offset="1" stop-color="white" stop-opacity="0"/>
</linearGradient>
<linearGradient id="paint8_linear" x1="547.751" y1="58.3614" x2="397.215" y2="234.013" gradientUnits="userSpaceOnUse">
<stop stop-color="white"/>
<stop offset="1" stop-color="white" stop-opacity="0"/>
</linearGradient>
<linearGradient id="paint9_linear" x1="640.477" y1="137.899" x2="489.942" y2="313.55" gradientUnits="userSpaceOnUse">
<stop stop-color="white"/>
<stop offset="1" stop-color="white" stop-opacity="0"/>
</linearGradient>
<linearGradient id="paint10_linear" x1="595.077" y1="98.3932" x2="444.542" y2="274.044" gradientUnits="userSpaceOnUse">
<stop stop-color="white"/>
<stop offset="1" stop-color="white" stop-opacity="0"/>
</linearGradient>
<linearGradient id="paint11_linear" x1="692.586" y1="182.465" x2="542.05" y2="358.116" gradientUnits="userSpaceOnUse">
<stop stop-color="white"/>
<stop offset="1" stop-color="white" stop-opacity="0"/>
</linearGradient>
<linearGradient id="paint12_linear" x1="492.278" y1="490.389" x2="460.58" y2="515.405" gradientUnits="userSpaceOnUse">
<stop stop-color="white"/>
<stop offset="1" stop-color="white" stop-opacity="0"/>
</linearGradient>
<linearGradient id="paint13_linear" x1="203.14" y1="236.375" x2="172.434" y2="253.493" gradientUnits="userSpaceOnUse">
<stop stop-color="white"/>
<stop offset="1" stop-color="white" stop-opacity="0"/>
</linearGradient>
<clipPath id="clip0">
<rect width="696.218" height="696.218" fill="white" transform="translate(0.19873 0.299805)"/>
</clipPath>
</defs>
</svg>
