<svg width="697" height="697" viewBox="0 0 697 697" fill="none" xmlns="http://www.w3.org/2000/svg">
<g clip-path="url(#clip0)">
<rect x="0.299805" y="0.299805" width="696.218" height="696.218" rx="121.081" fill="#0F2C41"/>
<path opacity="0.2" d="M318.986 229.386L188.521 155.587L187.916 223.211L318.381 297.01L318.986 229.386Z" fill="url(#paint0_linear)"/>
<path opacity="0.15" d="M221.758 190.761L260.988 212.979L260.928 221.092L221.697 198.873L221.758 190.761Z" fill="white"/>
<path opacity="0.15" d="M221.637 207.046L305.183 254.329L305.122 262.562L221.576 215.28L221.637 207.046Z" fill="white"/>
<path d="M214.796 193.243C214.735 198.813 211.405 201.477 207.289 199.116C203.172 196.815 199.903 190.398 199.963 184.828C200.024 179.258 203.354 176.594 207.47 178.956C211.587 181.256 214.856 187.673 214.796 193.243Z" fill="white"/>
<path opacity="0.2" d="M615.636 532.332L485.231 458.533L484.625 526.157L615.091 599.956L615.636 532.332Z" fill="url(#paint1_linear)"/>
<path opacity="0.15" d="M518.468 493.707L557.698 515.925L557.638 524.037L518.407 501.819L518.468 493.707Z" fill="white"/>
<path opacity="0.15" d="M518.347 509.992L601.893 557.274L601.832 565.508L518.286 518.226L518.347 509.992Z" fill="white"/>
<path d="M511.506 496.188C511.445 501.758 508.115 504.422 503.999 502.061C499.882 499.76 496.613 493.343 496.673 487.773C496.734 482.204 500.063 479.54 504.18 481.901C508.297 484.201 511.566 490.619 511.506 496.188Z" fill="white"/>
<path opacity="0.1" d="M463.497 99.405C438.917 104.188 383.644 110.363 359.548 96.7412C359.73 193.122 383.341 329.884 460.53 442.671C538.931 417.91 564.66 309.118 566.477 213.888C542.381 200.205 487.774 131.855 463.497 99.405Z" fill="url(#paint2_linear)"/>
<path opacity="0.3" d="M433.468 119.384C408.889 124.166 353.615 130.341 329.52 116.72C329.702 213.101 353.313 349.862 430.502 462.649C508.902 437.888 534.632 329.036 536.448 233.866C512.353 220.184 457.745 151.833 433.468 119.384Z" fill="url(#paint3_linear)"/>
<path opacity="0.4" d="M536.509 233.805C512.354 220.123 457.806 151.833 433.529 119.383L430.563 462.589C508.903 437.888 534.632 329.036 536.509 233.805Z" fill="url(#paint4_linear)"/>
<path opacity="0.1" d="M302.398 301.49L423.903 368.387L423.964 591.601L302.458 524.764L302.398 301.49Z" fill="url(#paint5_linear)"/>
<path opacity="0.2" d="M318.139 431.955L409.737 482.385L409.979 562.42L318.381 511.99L318.139 431.955Z" fill="url(#paint6_linear)"/>
<path opacity="0.15" d="M319.773 378.679L362.152 401.987V410.221L319.773 386.913V378.679Z" fill="white"/>
<path opacity="0.15" d="M319.955 395.025L362.333 418.334V426.567L319.955 403.259V395.025Z" fill="white"/>
<path opacity="0.15" d="M319.894 410.766L400.292 455.021V463.255L319.894 419V410.766Z" fill="white"/>
<path opacity="0.2" d="M302.398 301.49L423.903 368.387L424.024 406.952L302.458 340.115L302.398 301.49Z" fill="url(#paint7_linear)"/>
<path opacity="0.2" d="M332.789 337.754C332.789 343.566 329.339 346.411 325.101 344.05C320.863 341.689 317.352 335.09 317.352 329.217C317.352 323.405 320.802 320.56 325.04 322.921C329.339 325.282 332.789 331.942 332.789 337.754Z" fill="white"/>
<path d="M374.562 431.229L374.441 398.052L456.837 443.397L456.958 476.574L374.562 431.229Z" fill="white"/>
<path opacity="0.3" d="M280.482 291.137L100.313 187.189L100.374 281.088L264.621 375.894L280.543 399.445L280.482 291.137Z" fill="url(#paint8_linear)"/>
<path d="M81.1216 223.756V198.268L149.109 237.498V262.986L81.1216 223.756Z" fill="#245FFF"/>
<path opacity="0.15" d="M234.169 287.263L194.696 264.5V272.733L234.169 295.496V287.263Z" fill="white"/>
<path opacity="0.15" d="M234.169 303.79L158.069 259.898V268.132L234.169 312.024V303.79Z" fill="white"/>
<path opacity="0.15" d="M234.168 320.257L141.965 267.042V275.276L234.168 328.491V320.257Z" fill="white"/>
<path d="M243.855 301.49C243.855 309.239 248.456 318.138 254.086 321.407C259.717 324.677 264.318 321.044 264.318 313.295C264.318 305.546 259.717 296.646 254.086 293.377C248.456 290.108 243.855 293.74 243.855 301.49Z" fill="#245FFF"/>
<path opacity="0.2" d="M222.484 387.882C226.117 389.94 229.023 395.025 229.023 399.203V417.668L241.252 424.69C244.884 426.749 247.79 431.834 247.79 436.012C247.79 440.189 244.884 441.884 241.252 439.826L229.023 432.803V451.268C229.023 455.445 226.117 457.14 222.484 455.082C218.852 453.023 215.946 447.938 215.946 443.761V425.296L203.717 418.213C200.084 416.154 197.178 411.069 197.178 406.891C197.178 402.714 200.084 401.019 203.717 403.077L215.946 410.1V391.635C215.946 387.518 218.852 385.823 222.484 387.882Z" fill="url(#paint9_linear)"/>
</g>
<defs>
<linearGradient id="paint0_linear" x1="268.006" y1="200.548" x2="238.88" y2="252.019" gradientUnits="userSpaceOnUse">
<stop stop-color="white"/>
<stop offset="1" stop-color="white" stop-opacity="0"/>
</linearGradient>
<linearGradient id="paint1_linear" x1="564.703" y1="503.498" x2="535.578" y2="554.97" gradientUnits="userSpaceOnUse">
<stop stop-color="white"/>
<stop offset="1" stop-color="white" stop-opacity="0"/>
</linearGradient>
<linearGradient id="paint2_linear" x1="305.034" y1="130.534" x2="473.677" y2="281.469" gradientUnits="userSpaceOnUse">
<stop stop-color="white"/>
<stop offset="1" stop-color="white" stop-opacity="0"/>
</linearGradient>
<linearGradient id="paint3_linear" x1="275.012" y1="150.496" x2="443.654" y2="301.431" gradientUnits="userSpaceOnUse">
<stop stop-color="white"/>
<stop offset="1" stop-color="white" stop-opacity="0"/>
</linearGradient>
<linearGradient id="paint4_linear" x1="545.255" y1="269.318" x2="409.97" y2="295.21" gradientUnits="userSpaceOnUse">
<stop stop-color="white"/>
<stop offset="1" stop-color="white" stop-opacity="0"/>
</linearGradient>
<linearGradient id="paint5_linear" x1="303.12" y1="388.296" x2="430.538" y2="511.949" gradientUnits="userSpaceOnUse">
<stop stop-color="white"/>
<stop offset="1" stop-color="white" stop-opacity="0"/>
</linearGradient>
<linearGradient id="paint6_linear" x1="334.291" y1="433.719" x2="388.868" y2="550.101" gradientUnits="userSpaceOnUse">
<stop stop-color="white"/>
<stop offset="1" stop-color="white" stop-opacity="0"/>
</linearGradient>
<linearGradient id="paint7_linear" x1="343.614" y1="301.379" x2="381.632" y2="404.067" gradientUnits="userSpaceOnUse">
<stop stop-color="white"/>
<stop offset="1" stop-color="white" stop-opacity="0"/>
</linearGradient>
<linearGradient id="paint8_linear" x1="241.17" y1="253.538" x2="148.148" y2="326.371" gradientUnits="userSpaceOnUse">
<stop stop-color="white"/>
<stop offset="1" stop-color="white" stop-opacity="0"/>
</linearGradient>
<linearGradient id="paint9_linear" x1="235.132" y1="411.508" x2="203.435" y2="436.523" gradientUnits="userSpaceOnUse">
<stop stop-color="white"/>
<stop offset="1" stop-color="white" stop-opacity="0"/>
</linearGradient>
<clipPath id="clip0">
<rect width="696.218" height="696.218" fill="white" transform="translate(0.299805 0.299805)"/>
</clipPath>
</defs>
</svg>
