<?xml version="1.0" encoding="utf-8"?>
<svg width="140" height="20" viewBox="0 0 140 20" fill="none" xmlns="http://www.w3.org/2000/svg">
  <g>
    <path d="M 7.996 0.284 C 7.894 0.11 7.707 0.003 7.504 0.003 C 7.301 0.003 7.114 0.11 7.013 0.284 L 0.076 12.219 C -0.025 12.393 -0.025 12.608 0.076 12.782 C 0.177 12.956 0.364 13.063 0.567 13.063 C 0.567 13.063 4.304 13.06 4.304 13.058 C 5.13 13.017 6.014 12.711 6.631 11.578 L 7.505 10.074 L 8.379 11.578 C 9.026 12.768 9.969 13.045 10.831 13.062 L 14.442 13.063 C 14.645 13.063 14.832 12.956 14.933 12.782 C 15.034 12.607 15.034 12.392 14.933 12.219 L 7.996 0.284 Z M 10.915 11.914 C 10.292 11.914 9.795 11.764 9.397 11.032 L 7.996 8.62 C 7.894 8.446 7.707 8.338 7.504 8.338 C 7.301 8.338 7.114 8.446 7.013 8.62 L 5.61 11.032 C 5.213 11.764 4.716 11.914 4.092 11.914 L 1.59 11.914 L 7.505 1.738 L 13.42 11.914 L 10.915 11.914 Z" fill="#eee"/>
    <path d="M 131.767 5.724 C 131.19 5.382 130.586 5.152 129.968 5.041 C 129.355 4.931 128.806 4.874 128.335 4.874 C 127.598 4.874 126.839 4.975 126.078 5.174 C 125.316 5.374 124.606 5.726 123.965 6.223 C 123.613 6.497 122.96 7.099 122.542 8.067 C 122.44 8.302 122.452 8.582 122.573 8.763 C 122.66 8.894 122.794 8.964 122.958 8.964 L 124.171 8.964 C 124.437 8.964 124.735 8.942 124.908 8.681 C 125.147 8.321 125.479 7.985 125.952 7.623 C 126.548 7.167 127.384 6.935 128.439 6.935 C 129.494 6.935 130.218 7.191 130.715 7.694 C 131.213 8.197 131.464 8.915 131.464 9.828 L 131.464 14.038 C 131.464 16.389 130.086 17.169 129.633 17.426 C 129.032 17.766 128.285 17.937 127.411 17.937 C 126.638 17.937 125.839 17.881 125.23 17.467 C 124.588 17.032 124.258 16.186 124.411 15.363 C 124.604 14.328 125.642 13.856 126.078 13.7 C 127.116 13.332 128.204 13.131 129.407 13.084 C 129.748 13.07 130.014 12.791 130.014 12.449 L 130.014 11.685 C 130.014 11.331 129.725 11.042 129.346 11.042 C 127.847 11.095 125.695 11.368 123.959 12.374 C 123.019 12.918 122.366 13.79 122.121 14.829 C 121.871 15.894 122.077 16.995 122.701 17.928 C 123.147 18.598 123.761 19.117 124.523 19.47 C 125.304 19.832 126.137 20 127.146 20 C 130.121 20 131.063 18.521 131.467 17.872 L 131.467 19.116 C 131.467 19.467 131.754 19.753 132.108 19.753 L 133.185 19.753 C 133.539 19.753 133.827 19.467 133.827 19.116 L 133.827 10.073 C 133.827 8.949 133.623 8.011 133.221 7.286 C 132.838 6.596 132.349 6.07 131.768 5.725 L 131.767 5.724 Z" fill="#eee"/>
    <path d="M 118.298 16.831 C 117.847 16.831 117.455 16.986 117.131 17.291 C 116.806 17.598 116.643 17.97 116.643 18.4 C 116.643 18.83 116.806 19.203 117.131 19.51 C 117.455 19.815 117.848 19.968 118.298 19.968 C 118.748 19.968 119.141 19.814 119.466 19.51 C 119.79 19.204 119.954 18.831 119.954 18.4 C 119.954 17.969 119.79 17.598 119.466 17.291 C 119.142 16.985 118.748 16.831 118.298 16.831 Z" fill="#eee"/>
    <path d="M 138.345 3.175 C 138.795 3.175 139.188 3.02 139.512 2.715 C 139.837 2.41 140.001 2.036 140.001 1.605 C 140.001 1.174 139.837 0.802 139.512 0.495 C 139.189 0.19 138.795 0.036 138.345 0.036 C 137.894 0.036 137.502 0.191 137.178 0.495 C 136.853 0.802 136.689 1.176 136.689 1.605 C 136.689 2.034 136.853 2.409 137.178 2.715 C 137.502 3.02 137.894 3.175 138.345 3.175 Z" fill="#eee"/>
    <path d="M 137.806 5.121 L 138.883 5.121 C 139.237 5.121 139.524 5.406 139.524 5.758 L 139.524 19.116 C 139.524 19.467 139.237 19.753 138.883 19.753 L 137.806 19.753 C 137.452 19.753 137.164 19.467 137.164 19.116 L 137.164 5.757 C 137.164 5.406 137.452 5.12 137.806 5.12 L 137.806 5.121 Z" fill="#eee"/>
    <path d="M 43.037 5.455 C 42.287 5.051 41.402 4.847 40.407 4.847 C 39.23 4.847 38.164 5.097 37.48 5.533 C 36.772 5.984 36.31 6.602 36.079 6.97 L 36.079 5.732 C 36.079 5.38 35.79 5.094 35.436 5.094 L 34.356 5.094 C 34.002 5.094 33.713 5.38 33.713 5.732 L 33.713 19.114 C 33.713 19.466 34.002 19.752 34.356 19.752 L 35.436 19.752 C 35.79 19.752 36.079 19.466 36.079 19.114 L 36.079 10.908 C 36.079 10.05 36.249 9.266 36.558 8.7 C 36.875 8.12 37.314 7.672 37.864 7.369 C 38.418 7.065 39.054 6.911 39.759 6.911 C 40.779 6.911 41.592 7.228 42.176 7.853 C 42.761 8.482 43.057 9.369 43.057 10.491 L 43.057 19.113 C 43.057 19.466 43.346 19.751 43.7 19.751 L 44.78 19.751 C 45.134 19.751 45.423 19.466 45.423 19.113 L 45.423 10.395 C 45.423 9.154 45.212 8.112 44.797 7.296 C 44.381 6.478 43.789 5.859 43.038 5.453 L 43.037 5.455 Z" fill="#eee"/>
    <path d="M 57.747 5.455 C 56.997 5.051 56.112 4.847 55.117 4.847 C 53.941 4.847 52.873 5.097 52.19 5.533 C 51.481 5.984 51.02 6.602 50.789 6.97 L 50.789 5.732 C 50.789 5.38 50.501 5.094 50.147 5.094 L 49.067 5.094 C 48.713 5.094 48.424 5.38 48.424 5.732 L 48.424 19.114 C 48.424 19.466 48.712 19.752 49.067 19.752 L 50.147 19.752 C 50.501 19.752 50.789 19.466 50.789 19.114 L 50.789 10.908 C 50.789 10.05 50.959 9.266 51.269 8.7 C 51.586 8.12 52.025 7.672 52.575 7.369 C 53.129 7.065 53.765 6.911 54.47 6.911 C 55.49 6.911 56.302 7.228 56.887 7.853 C 57.471 8.482 57.768 9.369 57.768 10.491 L 57.768 19.113 C 57.768 19.466 58.057 19.751 58.411 19.751 L 59.491 19.751 C 59.845 19.751 60.133 19.466 60.133 19.113 L 60.133 10.395 C 60.133 9.154 59.923 8.112 59.508 7.296 C 59.092 6.478 58.5 5.859 57.749 5.453 L 57.747 5.455 Z" fill="#eee"/>
    <path d="M 28.652 5.698 C 28.074 5.355 27.468 5.126 26.85 5.015 C 26.236 4.903 25.685 4.847 25.213 4.847 C 24.475 4.847 23.716 4.948 22.953 5.147 C 22.19 5.347 21.477 5.701 20.836 6.199 C 20.483 6.473 19.829 7.077 19.409 8.046 C 19.307 8.281 19.32 8.561 19.441 8.743 C 19.527 8.875 19.661 8.944 19.826 8.944 L 21.042 8.944 C 21.308 8.944 21.607 8.922 21.78 8.661 C 22.019 8.301 22.352 7.964 22.827 7.601 C 23.422 7.144 24.261 6.911 25.318 6.911 C 26.375 6.911 27.1 7.168 27.598 7.671 C 28.097 8.175 28.349 8.895 28.349 9.809 L 28.349 14.026 C 28.349 16.382 26.968 17.164 26.515 17.42 C 25.913 17.761 25.164 17.934 24.287 17.934 C 23.513 17.934 22.713 17.877 22.103 17.462 C 21.459 17.026 21.129 16.178 21.282 15.355 C 21.476 14.317 22.515 13.843 22.953 13.687 C 23.992 13.32 25.08 13.117 26.28 13.071 C 26.621 13.057 26.888 12.777 26.888 12.434 L 26.888 11.669 C 26.888 11.317 26.598 11.03 26.219 11.03 L 26.217 11.03 C 24.715 11.083 22.561 11.356 20.828 12.358 C 19.886 12.904 19.233 13.778 18.989 14.818 C 18.738 15.886 18.944 16.988 19.568 17.922 C 20.016 18.594 20.631 19.113 21.394 19.467 C 22.176 19.829 23.011 19.998 24.022 19.998 C 27.002 19.998 27.945 18.516 28.35 17.865 L 28.35 19.113 C 28.35 19.466 28.638 19.751 28.993 19.751 L 30.072 19.751 C 30.427 19.751 30.715 19.466 30.715 19.113 L 30.715 10.055 C 30.715 8.929 30.511 7.989 30.108 7.262 C 29.725 6.57 29.235 6.044 28.652 5.698 L 28.652 5.698 Z" fill="#eee"/>
    <path d="M 72.344 5.698 C 71.766 5.355 71.161 5.126 70.542 5.015 C 69.928 4.903 69.378 4.847 68.906 4.847 C 68.168 4.847 67.408 4.948 66.645 5.147 C 65.882 5.347 65.169 5.701 64.528 6.199 C 64.176 6.473 63.521 7.077 63.102 8.046 C 63 8.281 63.013 8.561 63.133 8.743 C 63.221 8.875 63.354 8.944 63.519 8.944 L 64.735 8.944 C 65.001 8.944 65.299 8.922 65.474 8.661 C 65.713 8.3 66.046 7.964 66.519 7.601 C 67.116 7.144 67.954 6.911 69.011 6.911 C 70.068 6.911 70.793 7.168 71.292 7.671 C 71.79 8.175 72.043 8.895 72.043 9.809 L 72.043 14.026 C 72.043 16.382 70.662 17.164 70.207 17.42 C 69.605 17.761 68.857 17.934 67.98 17.934 C 67.206 17.934 66.406 17.877 65.797 17.462 C 65.152 17.026 64.822 16.178 64.976 15.355 C 65.168 14.317 66.209 13.843 66.646 13.687 C 67.686 13.32 68.776 13.117 69.981 13.071 C 70.321 13.057 70.588 12.777 70.588 12.434 L 70.588 11.669 C 70.588 11.314 70.298 11.025 69.918 11.025 C 68.417 11.078 66.262 11.351 64.522 12.358 C 63.58 12.904 62.925 13.778 62.682 14.818 C 62.431 15.886 62.638 16.988 63.262 17.922 C 63.709 18.594 64.324 19.113 65.087 19.467 C 65.869 19.829 66.705 19.998 67.714 19.998 C 70.695 19.998 71.639 18.516 72.043 17.865 L 72.043 19.113 C 72.043 19.466 72.332 19.751 72.686 19.751 L 73.766 19.751 C 74.12 19.751 74.409 19.466 74.409 19.113 L 74.409 10.055 C 74.409 8.929 74.204 7.99 73.801 7.262 C 73.418 6.57 72.929 6.044 72.346 5.698 L 72.344 5.698 Z" fill="#eee"/>
    <path d="M 96.157 11.591 L 93.984 11.061 C 93.132 10.849 92.497 10.582 92.1 10.267 C 91.708 9.957 91.51 9.529 91.51 8.995 C 91.51 8.392 91.802 7.888 92.377 7.494 C 92.953 7.099 93.669 6.908 94.566 6.908 C 95.217 6.908 95.786 7.012 96.167 7.2 C 97.026 7.626 97.345 8.234 97.467 8.465 C 97.7 8.895 98.045 8.945 98.284 8.945 L 99.215 8.945 C 99.472 8.945 99.606 8.833 99.673 8.741 C 99.806 8.555 99.789 8.297 99.727 8.12 C 99.496 7.456 98.91 6.498 97.962 5.804 C 97.12 5.188 95.919 4.849 94.581 4.849 C 93.548 4.849 92.611 5.032 91.798 5.393 C 90.982 5.755 90.33 6.262 89.859 6.898 C 89.387 7.535 89.146 8.279 89.146 9.111 C 89.146 10.124 89.468 10.98 90.101 11.653 C 90.733 12.324 91.735 12.825 93.08 13.142 L 95.521 13.71 C 96.246 13.877 96.788 14.133 97.134 14.468 C 97.477 14.799 97.651 15.213 97.651 15.7 C 97.651 16.303 97.346 16.827 96.745 17.259 C 96.137 17.695 95.306 17.916 94.275 17.916 C 93.369 17.916 92.629 17.721 92.073 17.338 C 91.64 17.041 91.313 16.622 91.096 16.092 C 90.984 15.815 90.762 15.698 90.356 15.698 L 89.177 15.7 C 89.024 15.737 88.895 15.832 88.816 15.965 C 88.732 16.105 88.709 16.273 88.751 16.438 C 89.028 17.507 89.693 18.45 90.573 19.025 C 91.567 19.671 92.826 20 94.315 20 C 95.452 20 96.467 19.807 97.331 19.427 C 98.195 19.045 98.877 18.516 99.361 17.854 C 99.847 17.192 100.092 16.428 100.092 15.586 C 100.092 14.559 99.763 13.707 99.113 13.052 C 98.467 12.401 97.473 11.91 96.159 11.592 L 96.157 11.591 Z" fill="#eee"/>
    <path d="M 79.474 0.246 L 78.395 0.246 C 78.04 0.246 77.752 0.531 77.752 0.884 L 77.752 19.114 C 77.752 19.466 78.04 19.752 78.395 19.752 L 79.474 19.752 C 79.828 19.752 80.116 19.466 80.116 19.114 L 80.116 0.884 C 80.116 0.532 79.829 0.246 79.474 0.246 Z" fill="#eee"/>
    <path d="M 114.665 8.728 C 114.301 7.797 113.806 7.036 113.191 6.467 C 112.577 5.899 111.887 5.483 111.14 5.229 C 110.395 4.976 109.628 4.847 108.863 4.847 C 107.535 4.847 106.358 5.174 105.365 5.818 C 104.373 6.46 103.589 7.366 103.037 8.511 C 102.487 9.654 102.207 10.988 102.207 12.479 C 102.207 13.97 102.487 15.296 103.037 16.419 C 103.589 17.544 104.389 18.432 105.414 19.056 C 106.44 19.681 107.677 19.998 109.091 19.998 C 110.084 19.998 110.992 19.842 111.791 19.534 C 112.525 19.252 113.125 18.851 113.738 18.234 C 114.306 17.663 114.578 17.097 114.815 16.6 C 114.925 16.372 114.921 16.095 114.804 15.91 C 114.715 15.772 114.571 15.696 114.399 15.696 L 113.243 15.696 C 112.818 15.696 112.645 15.862 112.504 16.129 C 112.341 16.439 112.139 16.711 111.901 16.94 C 111.558 17.27 111.147 17.522 110.678 17.685 C 110.205 17.85 109.671 17.933 109.091 17.933 C 108.195 17.933 107.401 17.736 106.726 17.348 C 106.052 16.96 105.519 16.385 105.142 15.638 C 104.769 14.901 104.571 13.926 104.571 12.815 C 104.569 12.792 104.428 10.545 105.089 9.247 C 105.443 8.551 105.942 7.983 106.571 7.559 C 107.21 7.128 107.981 6.91 108.862 6.91 C 109.661 6.91 110.364 7.095 110.952 7.46 C 111.531 7.818 111.979 8.31 112.324 8.962 C 112.64 9.561 112.811 10.605 112.807 11.023 L 106.667 11.023 C 106.313 11.023 106.024 11.309 106.024 11.661 L 106.024 12.43 C 106.024 12.782 106.313 13.069 106.667 13.069 L 114.569 13.069 C 114.923 13.069 115.211 12.782 115.211 12.43 L 115.211 12.064 C 115.211 11.823 115.202 11.595 115.188 11.37 C 115.129 10.355 114.953 9.465 114.665 8.726 L 114.665 8.728 Z" fill="#eee"/>
    <path d="M 84.644 0 C 84.192 0 83.799 0.155 83.474 0.46 C 83.149 0.768 82.984 1.141 82.984 1.573 C 82.984 2.004 83.149 2.377 83.474 2.684 C 83.799 2.99 84.192 3.144 84.644 3.144 C 85.096 3.144 85.489 2.99 85.813 2.684 C 86.138 2.378 86.303 2.004 86.303 1.573 C 86.303 1.142 86.138 0.768 85.813 0.46 C 85.489 0.155 85.096 0 84.644 0 Z" fill="#eee"/>
    <path d="M 85.183 5.094 L 84.103 5.094 C 83.749 5.094 83.461 5.38 83.461 5.732 L 83.461 19.114 C 83.461 19.467 83.75 19.752 84.103 19.752 L 85.183 19.752 C 85.537 19.752 85.826 19.467 85.826 19.114 L 85.826 5.731 C 85.826 5.379 85.537 5.093 85.183 5.093 L 85.183 5.094 Z" fill="#eee"/>
  </g>
</svg>