<svg width="1052" height="430" viewBox="0 0 1052 430" fill="none" xmlns="http://www.w3.org/2000/svg">
<path d="M635 205.001H654.748L664.375 211.251H644.874L635 205.001Z" fill="white"/>
<path d="M636.875 195.626H655.362L664.375 211.251H646.119L636.875 195.626Z" fill="white" fill-opacity="0.75"/>
<path d="M639.375 186.25H656.182L664.375 211.25H647.778L639.375 186.25Z" fill="white" fill-opacity="0.65"/>
<path d="M642.5 177.5H657.206L664.375 211.25H649.853L642.5 177.5Z" fill="white" fill-opacity="0.4"/>
<path d="M645.624 170H658.229L664.374 211.25H651.927L645.624 170Z" fill="white" fill-opacity="0.25"/>
<path d="M675 219.374H655.252L645.625 213.124H665.126L675 219.374Z" fill="white"/>
<path d="M673.125 228.749H654.638L645.625 213.124H663.881L673.125 228.749Z" fill="white" fill-opacity="0.75"/>
<path d="M670.625 238.125H653.818L645.625 213.125H662.222L670.625 238.125Z" fill="white" fill-opacity="0.65"/>
<path d="M667.5 246.875H652.794L645.625 213.125H660.147L667.5 246.875Z" fill="white" fill-opacity="0.4"/>
<path d="M664.376 254.375H651.771L645.626 213.125H658.073L664.376 254.375Z" fill="white" fill-opacity="0.25"/>
<g filter="url(#filter0_d_3548_41)">
<circle cx="655.5" cy="210.5" r="147" stroke="white" stroke-opacity="0.2" shape-rendering="crispEdges"/>
</g>
<circle cx="655.5" cy="211.5" r="86.5" stroke="white" stroke-opacity="0.2" stroke-width="20"/>
<path d="M299.177 217.667C300.162 217.667 301.137 217.861 302.047 218.238C302.957 218.615 303.784 219.167 304.48 219.864C305.176 220.56 305.729 221.387 306.106 222.297C306.483 223.207 306.677 224.182 306.677 225.167V228.18C306.677 229.982 306.288 231.763 305.536 233.4C304.784 235.038 303.687 236.493 302.32 237.667C297.103 242.147 289.633 244.334 280 244.334C270.367 244.334 262.907 242.147 257.7 237.667C256.335 236.494 255.239 235.04 254.488 233.404C253.737 231.769 253.347 229.99 253.347 228.19V225.164C253.348 223.175 254.138 221.268 255.545 219.863C256.951 218.457 258.858 217.667 260.847 217.667H299.177ZM279.667 177.687L280 177.667C280.604 177.667 281.188 177.886 281.643 178.283C282.098 178.68 282.395 179.228 282.477 179.827L282.5 180.167L282.497 182.664H294.163C296.152 182.664 298.06 183.454 299.467 184.86C300.873 186.267 301.663 188.175 301.663 190.164V205.18C301.663 207.169 300.873 209.077 299.467 210.484C298.06 211.89 296.152 212.68 294.163 212.68H265.83C263.841 212.68 261.933 211.89 260.527 210.484C259.12 209.077 258.33 207.169 258.33 205.18V190.167C258.33 189.182 258.524 188.206 258.901 187.296C259.278 186.386 259.831 185.559 260.528 184.863C261.225 184.166 262.052 183.614 262.962 183.237C263.873 182.86 264.848 182.667 265.833 182.667L277.5 182.664V180.167C277.5 179.562 277.719 178.978 278.117 178.523C278.515 178.068 279.064 177.772 279.663 177.69L280 177.667L279.66 177.69L279.667 177.687ZM272.497 192.667C271.936 192.645 271.376 192.736 270.852 192.935C270.327 193.134 269.848 193.437 269.443 193.826C269.039 194.215 268.717 194.681 268.497 195.197C268.277 195.714 268.163 196.269 268.163 196.83C268.163 197.392 268.277 197.947 268.497 198.463C268.717 198.98 269.039 199.446 269.443 199.835C269.848 200.224 270.327 200.527 270.852 200.726C271.376 200.925 271.936 201.016 272.497 200.994C273.572 200.951 274.589 200.493 275.335 199.717C276.08 198.941 276.497 197.907 276.497 196.83C276.497 195.754 276.08 194.72 275.335 193.944C274.589 193.167 273.572 192.71 272.497 192.667ZM287.473 192.667C286.913 192.645 286.353 192.736 285.828 192.935C285.304 193.134 284.825 193.437 284.42 193.826C284.015 194.215 283.693 194.681 283.473 195.197C283.253 195.714 283.14 196.269 283.14 196.83C283.14 197.392 283.253 197.947 283.473 198.463C283.693 198.98 284.015 199.446 284.42 199.835C284.825 200.224 285.304 200.527 285.828 200.726C286.353 200.925 286.913 201.016 287.473 200.994C288.549 200.951 289.566 200.493 290.311 199.717C291.057 198.941 291.473 197.907 291.473 196.83C291.473 195.754 291.057 194.72 290.311 193.944C289.566 193.167 288.549 192.71 287.473 192.667Z" fill="white"/>
<circle cx="280" cy="213" r="85" stroke="white" stroke-opacity="0.2" stroke-width="20"/>
<g filter="url(#filter1_d_3548_41)">
<circle cx="392" cy="211" r="6" fill="#868BFF"/>
<circle cx="541" cy="211" r="5" stroke="#868BFF" stroke-width="2"/>
<path d="M398 211L535 211" stroke="#868BFF" stroke-width="2"/>
</g>
<g filter="url(#filter2_d_3548_41)">
<circle cx="168.473" cy="84.5023" r="6" transform="rotate(48.0783 168.473 84.5023)" fill="#868BFF"/>
<circle cx="223.221" cy="145.408" r="5" transform="rotate(48.0783 223.221 145.408)" stroke="#868BFF" stroke-width="2"/>
<path d="M172.481 88.9668L219.249 141.051" stroke="#868BFF" stroke-width="2"/>
</g>
<g filter="url(#filter3_d_3548_41)">
<circle cx="111" cy="211.043" r="6" fill="#868BFF"/>
<circle cx="192.896" cy="211" r="5" stroke="#868BFF" stroke-width="2"/>
<path d="M117 211.044L187 211.044" stroke="#868BFF" stroke-width="2"/>
</g>
<g filter="url(#filter4_d_3548_41)">
<circle cx="168.505" cy="338.439" r="6" transform="rotate(-48.08 168.505 338.439)" fill="#868BFF"/>
<circle cx="223.187" cy="277.473" r="5" transform="rotate(-48.08 223.187 277.473)" stroke="#868BFF" stroke-width="2"/>
<path d="M172.514 333.974L219.28 281.888" stroke="#868BFF" stroke-width="2"/>
</g>
<g filter="url(#filter5_d_3548_41)">
<circle cx="898.136" cy="73.0575" r="6" transform="rotate(153.271 898.136 73.0575)" fill="#868BFF"/>
<circle cx="765.058" cy="140.073" r="5" transform="rotate(153.271 765.058 140.073)" stroke="#868BFF" stroke-width="2"/>
<path d="M892.777 75.7559L770.417 137.375" stroke="#868BFF" stroke-width="2"/>
</g>
<g filter="url(#filter6_d_3548_41)">
<circle cx="932.055" cy="211.099" r="6" transform="rotate(-180 932.055 211.099)" fill="#868BFF"/>
<circle cx="783.055" cy="211.099" r="5" transform="rotate(-180 783.055 211.099)" stroke="#868BFF" stroke-width="2"/>
<path d="M926.055 211.099L789.055 211.099" stroke="#868BFF" stroke-width="2"/>
</g>
<g filter="url(#filter7_d_3548_41)">
<circle cx="904.196" cy="348.09" r="6" transform="rotate(-153.27 904.196 348.09)" fill="#868BFF"/>
<circle cx="771.119" cy="281.071" r="5" transform="rotate(-153.27 771.119 281.071)" stroke="#868BFF" stroke-width="2"/>
<path d="M898.838 345.392L776.478 283.771" stroke="#868BFF" stroke-width="2"/>
</g>
<path d="M978.208 26.25C979.037 26.25 979.832 26.5792 980.418 27.1653C981.004 27.7513 981.333 28.5462 981.333 29.375V39.7917C981.333 40.6205 981.004 41.4153 980.418 42.0014C979.832 42.5874 979.037 42.9167 978.208 42.9167C977.38 42.9167 976.585 42.5874 975.999 42.0014C975.413 41.4153 975.083 40.6205 975.083 39.7917V29.375C975.083 28.5462 975.413 27.7513 975.999 27.1653C976.585 26.5792 977.38 26.25 978.208 26.25ZM957.375 47.0833H960.5V50.2083C960.5 50.8264 960.317 51.4306 959.973 51.9445C959.63 52.4584 959.142 52.8589 958.571 53.0955C958 53.332 957.372 53.3939 956.765 53.2733C956.159 53.1527 955.602 52.8551 955.165 52.418C954.728 51.981 954.431 51.4242 954.31 50.818C954.189 50.2118 954.251 49.5835 954.488 49.0124C954.724 48.4414 955.125 47.9534 955.639 47.61C956.153 47.2666 956.757 47.0833 957.375 47.0833ZM975.083 57.5H978.208C978.826 57.5 979.431 57.6833 979.944 58.0267C980.458 58.37 980.859 58.8581 981.095 59.4291C981.332 60.0001 981.394 60.6285 981.273 61.2347C981.153 61.8408 980.855 62.3977 980.418 62.8347C979.981 63.2717 979.424 63.5694 978.818 63.69C978.212 63.8105 977.583 63.7486 977.012 63.5121C976.441 63.2756 975.953 62.8751 975.61 62.3612C975.267 61.8473 975.083 61.2431 975.083 60.625V57.5ZM978.208 47.0833H988.625C989.454 47.0833 990.249 47.4126 990.835 47.9986C991.421 48.5847 991.75 49.3795 991.75 50.2083C991.75 51.0371 991.421 51.832 990.835 52.418C990.249 53.0041 989.454 53.3333 988.625 53.3333H978.208C977.38 53.3333 976.585 53.0041 975.999 52.418C975.413 51.832 975.083 51.0371 975.083 50.2083C975.083 49.3795 975.413 48.5847 975.999 47.9986C976.585 47.4126 977.38 47.0833 978.208 47.0833ZM988.625 36.6667C989.454 36.6667 990.249 36.9959 990.835 37.582C991.421 38.168 991.75 38.9629 991.75 39.7917C991.75 40.6205 991.421 41.4153 990.835 42.0014C990.249 42.5874 989.454 42.9167 988.625 42.9167H985.5V39.7917C985.5 38.9629 985.829 38.168 986.415 37.582C987.001 36.9959 987.796 36.6667 988.625 36.6667ZM957.375 36.6667H967.792C968.62 36.6667 969.415 36.9959 970.001 37.582C970.587 38.168 970.917 38.9629 970.917 39.7917C970.917 40.6205 970.587 41.4153 970.001 42.0014C969.415 42.5874 968.62 42.9167 967.792 42.9167H957.375C956.546 42.9167 955.751 42.5874 955.165 42.0014C954.579 41.4153 954.25 40.6205 954.25 39.7917C954.25 38.9629 954.579 38.168 955.165 37.582C955.751 36.9959 956.546 36.6667 957.375 36.6667ZM967.792 26.25C968.62 26.25 969.415 26.5792 970.001 27.1653C970.587 27.7513 970.917 28.5462 970.917 29.375V32.5H967.792C966.963 32.5 966.168 32.1708 965.582 31.5847C964.996 30.9987 964.667 30.2038 964.667 29.375C964.667 28.5462 964.996 27.7513 965.582 27.1653C966.168 26.5792 966.963 26.25 967.792 26.25ZM967.792 47.0833C968.62 47.0833 969.415 47.4126 970.001 47.9986C970.587 48.5847 970.917 49.3795 970.917 50.2083V60.625C970.917 61.4538 970.587 62.2487 970.001 62.8347C969.415 63.4208 968.62 63.75 967.792 63.75C966.963 63.75 966.168 63.4208 965.582 62.8347C964.996 62.2487 964.667 61.4538 964.667 60.625V50.2083C964.667 49.3795 964.996 48.5847 965.582 47.9986C966.168 47.4126 966.963 47.0833 967.792 47.0833Z" fill="white"/>
<circle cx="973" cy="45" r="40" stroke="white" stroke-opacity="0.2" stroke-width="10"/>
<path d="M1020.81 208.752C1022.39 208.752 1023.66 207.478 1023.66 205.907C1023.66 204.335 1022.39 203.062 1020.81 203.062C1019.24 203.062 1017.97 204.335 1017.97 205.907C1017.97 207.478 1019.24 208.752 1020.81 208.752Z" fill="white"/>
<path d="M1017.97 211.189H1023.66V217.282C1023.66 218.852 1022.38 220.125 1020.81 220.125H1017.97V211.189ZM990.344 199V225L1009.03 228.299V195.702L990.344 199ZM1004.16 208.019L1000.91 208.1V217.687H998.469V208.262L995.22 208.425V206.232L1004.16 205.745V208.019ZM1010.66 208.75V222.564H1013.91C1015.25 222.564 1016.34 221.472 1016.34 220.127V208.75H1010.66ZM1013.09 200.625C1012.12 200.625 1011.25 201.065 1010.66 201.747V206.005C1011.25 206.687 1012.12 207.127 1013.09 207.127C1013.96 207.127 1014.78 206.785 1015.39 206.175C1016 205.565 1016.34 204.738 1016.34 203.876C1016.34 203.014 1016 202.187 1015.39 201.578C1014.78 200.968 1013.96 200.625 1013.09 200.625Z" fill="white"/>
<circle cx="1007" cy="212" r="40" stroke="white" stroke-opacity="0.2" stroke-width="10"/>
<path d="M985.117 373.884C982.9 372.85 980.5 372.1 978 371.667C977.978 371.666 977.956 371.67 977.936 371.679C977.916 371.688 977.898 371.701 977.883 371.717C977.583 372.267 977.233 372.984 977 373.534C974.348 373.134 971.652 373.134 969 373.534C968.767 372.967 968.417 372.267 968.1 371.717C968.083 371.684 968.033 371.667 967.983 371.667C965.483 372.1 963.1 372.85 960.867 373.884C960.85 373.884 960.833 373.9 960.817 373.917C956.283 380.7 955.033 387.3 955.65 393.834C955.65 393.867 955.667 393.9 955.7 393.917C958.7 396.117 961.583 397.45 964.433 398.334C964.483 398.35 964.533 398.334 964.55 398.3C965.217 397.384 965.817 396.417 966.333 395.4C966.367 395.334 966.333 395.267 966.267 395.25C965.317 394.884 964.417 394.45 963.533 393.95C963.467 393.917 963.467 393.817 963.517 393.767C963.7 393.634 963.883 393.484 964.067 393.35C964.1 393.317 964.15 393.317 964.183 393.334C969.917 395.95 976.1 395.95 981.767 393.334C981.8 393.317 981.85 393.317 981.883 393.35C982.067 393.5 982.25 393.634 982.433 393.784C982.5 393.834 982.5 393.934 982.417 393.967C981.55 394.484 980.633 394.9 979.683 395.267C979.617 395.284 979.6 395.367 979.617 395.417C980.15 396.434 980.75 397.4 981.4 398.317C981.45 398.334 981.5 398.35 981.55 398.334C984.417 397.45 987.3 396.117 990.3 393.917C990.333 393.9 990.35 393.867 990.35 393.834C991.083 386.284 989.133 379.734 985.183 373.917C985.167 373.9 985.15 373.884 985.117 373.884ZM967.2 389.85C965.483 389.85 964.05 388.267 964.05 386.317C964.05 384.367 965.45 382.784 967.2 382.784C968.967 382.784 970.367 384.384 970.35 386.317C970.35 388.267 968.95 389.85 967.2 389.85ZM978.817 389.85C977.1 389.85 975.667 388.267 975.667 386.317C975.667 384.367 977.067 382.784 978.817 382.784C980.583 382.784 981.983 384.384 981.967 386.317C981.967 388.267 980.583 389.85 978.817 389.85Z" fill="white"/>
<circle cx="973" cy="385" r="40" stroke="white" stroke-opacity="0.2" stroke-width="10"/>
<path d="M111.435 47.76C111.268 47.433 111.117 47.0976 110.985 46.755C110.879 46.3488 110.828 45.9299 110.835 45.51V41.01C110.889 40.3749 110.812 39.7354 110.608 39.1315C110.404 38.5276 110.078 37.9722 109.65 37.5C108.624 36.66 107.312 36.2512 105.99 36.36C105.256 36.3555 104.525 36.4463 103.815 36.63C103.184 36.7791 102.575 37.0058 102 37.305C101.849 37.3742 101.715 37.4767 101.61 37.605C101.538 37.7542 101.507 37.9199 101.52 38.085V38.775C101.52 39.06 101.61 39.21 101.805 39.21H102.03L102.57 39C103.059 38.8086 103.56 38.6483 104.07 38.52C104.562 38.404 105.065 38.3436 105.57 38.34C106.384 38.2564 107.2 38.4871 107.85 38.985C108.348 39.6176 108.579 40.4195 108.495 41.22V42.24C107.94 42.105 107.415 42 106.89 41.925C106.392 41.8606 105.892 41.8256 105.39 41.82C104.166 41.7532 102.96 42.1374 102 42.9C101.582 43.2483 101.25 43.6877 101.029 44.1844C100.808 44.681 100.704 45.2218 100.725 45.765C100.701 46.26 100.78 46.7545 100.959 47.2169C101.137 47.6793 101.41 48.0993 101.76 48.45C102.132 48.8062 102.572 49.0829 103.054 49.2635C103.537 49.444 104.051 49.5245 104.565 49.5C105.351 49.512 106.129 49.3454 106.841 49.0129C107.553 48.6803 108.18 48.1903 108.675 47.58C108.804 47.863 108.949 48.1384 109.11 48.405C109.252 48.6367 109.418 48.8529 109.605 49.05C109.659 49.1087 109.723 49.1562 109.795 49.1897C109.867 49.2232 109.945 49.242 110.025 49.245C110.155 49.2473 110.282 49.205 110.385 49.125L111.27 48.54C111.335 48.5087 111.393 48.4629 111.438 48.4062C111.483 48.3494 111.515 48.2832 111.53 48.2125C111.546 48.1418 111.546 48.0684 111.529 47.9978C111.513 47.9272 111.481 47.8613 111.435 47.805V47.76ZM108.54 44.37C108.548 44.7792 108.503 45.1877 108.405 45.585C108.339 45.9163 108.201 46.2288 108 46.5C107.642 46.905 107.188 47.2143 106.68 47.4C106.197 47.5628 105.69 47.6439 105.18 47.64C104.77 47.6227 104.374 47.484 104.043 47.2413C103.712 46.9987 103.461 46.6631 103.321 46.2773C103.181 45.8915 103.159 45.4728 103.258 45.0745C103.356 44.6761 103.571 44.3161 103.875 44.04C104.485 43.633 105.214 43.4429 105.945 43.5C106.38 43.5 106.815 43.5 107.265 43.575C107.715 43.65 108.135 43.725 108.54 43.815V44.37ZM115.5 48.45C115.543 48.6574 115.641 48.8492 115.785 49.005C115.945 49.108 116.135 49.1554 116.325 49.14H117.525C117.72 49.1576 117.915 49.1101 118.08 49.005C118.223 48.8451 118.317 48.6471 118.35 48.435L120.495 39.435L122.67 48.435C122.689 48.6438 122.779 48.8397 122.925 48.99C123.091 49.1072 123.293 49.1605 123.495 49.14H124.695C124.882 49.1499 125.066 49.0971 125.22 48.99C125.37 48.8431 125.475 48.6554 125.52 48.45L129 37.665C129.051 37.5565 129.081 37.4396 129.09 37.32C129.096 37.2452 129.096 37.1699 129.09 37.095C129.098 37.048 129.094 36.9997 129.08 36.9543C129.065 36.9089 129.04 36.8676 129.006 36.8339C128.972 36.8001 128.931 36.7749 128.886 36.7604C128.84 36.7458 128.792 36.7422 128.745 36.75H127.44C127.251 36.7441 127.064 36.7908 126.9 36.885C126.767 37.0405 126.675 37.2258 126.63 37.425L124.2 46.785L121.965 37.5C121.939 37.2975 121.85 37.1083 121.71 36.96C121.539 36.8548 121.339 36.8075 121.14 36.825H120C119.9 36.8078 119.798 36.8122 119.7 36.8379C119.603 36.8636 119.511 36.91 119.433 36.9741C119.355 37.0381 119.291 37.1182 119.247 37.2089C119.202 37.2997 119.178 37.399 119.175 37.5L117 46.68L114.675 37.5C114.632 37.3 114.539 37.1141 114.405 36.96C114.241 36.8527 114.045 36.8051 113.85 36.825H112.5C112.275 36.825 112.17 36.945 112.17 37.17C112.182 37.36 112.223 37.547 112.29 37.725L115.5 48.45ZM130.5 48.705C131.006 48.9639 131.547 49.1507 132.105 49.26C132.808 49.427 133.527 49.5126 134.25 49.515C134.931 49.5175 135.609 49.4164 136.26 49.215C136.807 49.0571 137.317 48.792 137.76 48.435C138.186 48.1048 138.534 47.6849 138.78 47.205C139.027 46.7014 139.151 46.146 139.14 45.585C139.15 44.881 138.923 44.1942 138.495 43.635C137.973 43.0061 137.28 42.5423 136.5 42.3L134.52 41.67C133.972 41.516 133.461 41.2504 133.02 40.89C132.885 40.7632 132.778 40.6096 132.706 40.4392C132.634 40.2688 132.597 40.0852 132.6 39.9C132.586 39.6521 132.641 39.4052 132.757 39.1858C132.873 38.9664 133.047 38.7829 133.26 38.655C133.8 38.3865 134.397 38.2526 135 38.265C135.925 38.2482 136.842 38.4378 137.685 38.82C137.849 38.9046 138.027 38.9604 138.21 38.985C138.42 38.985 138.54 38.835 138.54 38.535V37.875C138.55 37.7137 138.502 37.554 138.405 37.425C138.297 37.2724 138.152 37.1487 137.985 37.065C137.797 36.9642 137.602 36.8789 137.4 36.81C137.145 36.81 136.89 36.66 136.605 36.6L135.705 36.435H134.76C134.167 36.4246 133.576 36.5004 133.005 36.66C132.464 36.8109 131.956 37.0601 131.505 37.395C131.09 37.6967 130.747 38.0859 130.5 38.535C130.249 38.9949 130.12 39.5113 130.125 40.035C130.131 40.7666 130.373 41.4767 130.815 42.06C131.392 42.7575 132.174 43.256 133.05 43.485L135.075 44.115C135.598 44.2323 136.083 44.48 136.485 44.835C136.611 44.9638 136.71 45.1162 136.777 45.2835C136.844 45.4509 136.877 45.6298 136.875 45.81C136.883 46.0779 136.819 46.343 136.69 46.5778C136.56 46.8126 136.371 47.0085 136.14 47.145C135.515 47.4807 134.808 47.6364 134.1 47.595C133.541 47.5989 132.983 47.5436 132.435 47.43C131.919 47.3248 131.416 47.1638 130.935 46.95L130.59 46.8H130.335C130.125 46.8 130.005 46.95 130.005 47.235V48C130.006 48.135 130.037 48.2681 130.095 48.39C130.222 48.5382 130.388 48.6474 130.575 48.705H130.5ZM136.23 55.245C131.233 57.3489 125.872 58.4547 120.45 58.5C113.157 58.4913 105.992 56.5838 99.6599 52.965C99.1499 52.665 98.7599 53.19 99.1799 53.58C104.888 58.7268 112.315 61.5519 120 61.5C126.063 61.5215 131.992 59.7127 137.01 56.31C137.73 55.74 137.07 54.9 136.305 55.245H136.23ZM140.73 52.62C140.235 52.005 135.915 51.465 133.23 53.31C132.825 53.61 132.9 54 133.335 53.94C134.835 53.76 138.135 53.37 138.72 54.12C139.305 54.87 138.06 57.975 137.505 59.37C137.34 59.775 137.7 59.955 138.075 59.625C140.7 57.555 141.345 53.25 140.835 52.62H140.73Z" fill="white"/>
<circle cx="120" cy="45" r="40" stroke="white" stroke-opacity="0.2" stroke-width="10"/>
<path d="M44.2163 194.333C44.2163 198.333 47.4997 201.583 51.4663 201.583H54.433V204.416C54.433 208.416 57.6663 211.65 61.6663 211.666V195.733C61.6663 195.362 61.5188 195.006 61.2563 194.743C60.9937 194.481 60.6376 194.333 60.2663 194.333H44.2163ZM36.283 202.333C36.2926 204.248 37.0578 206.083 38.4122 207.437C39.7667 208.792 41.6009 209.557 43.5163 209.566H46.5163V212.433C46.526 214.348 47.2912 216.183 48.6456 217.537C50 218.892 51.8342 219.657 53.7497 219.666V203.716C53.7449 203.351 53.5977 203.002 53.3393 202.743C53.0809 202.485 52.7317 202.338 52.3663 202.333H36.283ZM28.333 210.333C28.333 214.333 31.583 217.566 35.583 217.566H38.5497V220.433C38.5663 224.416 41.7997 227.666 45.783 227.666V211.716C45.783 211.345 45.6355 210.989 45.373 210.726C45.1104 210.464 44.7543 210.316 44.383 210.316L28.333 210.333Z" fill="white"/>
<circle cx="45" cy="211" r="40" stroke="white" stroke-opacity="0.2" stroke-width="10"/>
<path d="M127 368.333C124.811 368.333 122.644 368.764 120.622 369.602C118.6 370.439 116.762 371.667 115.215 373.215C112.089 376.34 110.333 380.579 110.333 385C110.333 392.366 115.116 398.616 121.733 400.833C122.566 400.966 122.833 400.45 122.833 400V397.183C118.216 398.183 117.233 394.95 117.233 394.95C116.466 393.016 115.383 392.5 115.383 392.5C113.866 391.466 115.5 391.5 115.5 391.5C117.166 391.616 118.05 393.216 118.05 393.216C119.5 395.75 121.95 395 122.9 394.6C123.05 393.516 123.483 392.783 123.95 392.366C120.25 391.95 116.366 390.516 116.366 384.166C116.366 382.316 117 380.833 118.083 379.65C117.916 379.233 117.333 377.5 118.25 375.25C118.25 375.25 119.65 374.8 122.833 376.95C124.15 376.583 125.583 376.4 127 376.4C128.416 376.4 129.85 376.583 131.166 376.95C134.35 374.8 135.75 375.25 135.75 375.25C136.666 377.5 136.083 379.233 135.916 379.65C137 380.833 137.633 382.316 137.633 384.166C137.633 390.533 133.733 391.933 130.016 392.35C130.616 392.866 131.166 393.883 131.166 395.433V400C131.166 400.45 131.433 400.983 132.283 400.833C138.9 398.6 143.666 392.366 143.666 385C143.666 382.811 143.235 380.644 142.398 378.622C141.56 376.6 140.332 374.762 138.785 373.215C137.237 371.667 135.4 370.439 133.378 369.602C131.356 368.764 129.188 368.333 127 368.333Z" fill="white"/>
<circle cx="127" cy="385" r="40" stroke="white" stroke-opacity="0.2" stroke-width="10"/>
<defs>
<filter id="filter0_d_3548_41" x="478" y="34" width="355" height="355" filterUnits="userSpaceOnUse" color-interpolation-filters="sRGB">
<feFlood flood-opacity="0" result="BackgroundImageFix"/>
<feColorMatrix in="SourceAlpha" type="matrix" values="0 0 0 0 0 0 0 0 0 0 0 0 0 0 0 0 0 0 127 0" result="hardAlpha"/>
<feOffset dy="1"/>
<feGaussianBlur stdDeviation="15"/>
<feComposite in2="hardAlpha" operator="out"/>
<feColorMatrix type="matrix" values="0 0 0 0 1 0 0 0 0 1 0 0 0 0 1 0 0 0 0.25 0"/>
<feBlend mode="normal" in2="BackgroundImageFix" result="effect1_dropShadow_3548_41"/>
<feBlend mode="normal" in="SourceGraphic" in2="effect1_dropShadow_3548_41" result="shape"/>
</filter>
<filter id="filter1_d_3548_41" x="356" y="176" width="221" height="72" filterUnits="userSpaceOnUse" color-interpolation-filters="sRGB">
<feFlood flood-opacity="0" result="BackgroundImageFix"/>
<feColorMatrix in="SourceAlpha" type="matrix" values="0 0 0 0 0 0 0 0 0 0 0 0 0 0 0 0 0 0 127 0" result="hardAlpha"/>
<feOffset dy="1"/>
<feGaussianBlur stdDeviation="15"/>
<feComposite in2="hardAlpha" operator="out"/>
<feColorMatrix type="matrix" values="0 0 0 0 1 0 0 0 0 1 0 0 0 0 1 0 0 0 0.25 0"/>
<feBlend mode="normal" in2="BackgroundImageFix" result="effect1_dropShadow_3548_41"/>
<feBlend mode="normal" in="SourceGraphic" in2="effect1_dropShadow_3548_41" result="shape"/>
</filter>
<filter id="filter2_d_3548_41" x="132.473" y="49.502" width="126.748" height="132.905" filterUnits="userSpaceOnUse" color-interpolation-filters="sRGB">
<feFlood flood-opacity="0" result="BackgroundImageFix"/>
<feColorMatrix in="SourceAlpha" type="matrix" values="0 0 0 0 0 0 0 0 0 0 0 0 0 0 0 0 0 0 127 0" result="hardAlpha"/>
<feOffset dy="1"/>
<feGaussianBlur stdDeviation="15"/>
<feComposite in2="hardAlpha" operator="out"/>
<feColorMatrix type="matrix" values="0 0 0 0 1 0 0 0 0 1 0 0 0 0 1 0 0 0 0.25 0"/>
<feBlend mode="normal" in2="BackgroundImageFix" result="effect1_dropShadow_3548_41"/>
<feBlend mode="normal" in="SourceGraphic" in2="effect1_dropShadow_3548_41" result="shape"/>
</filter>
<filter id="filter3_d_3548_41" x="75" y="176" width="153.896" height="72.043" filterUnits="userSpaceOnUse" color-interpolation-filters="sRGB">
<feFlood flood-opacity="0" result="BackgroundImageFix"/>
<feColorMatrix in="SourceAlpha" type="matrix" values="0 0 0 0 0 0 0 0 0 0 0 0 0 0 0 0 0 0 127 0" result="hardAlpha"/>
<feOffset dy="1"/>
<feGaussianBlur stdDeviation="15"/>
<feComposite in2="hardAlpha" operator="out"/>
<feColorMatrix type="matrix" values="0 0 0 0 1 0 0 0 0 1 0 0 0 0 1 0 0 0 0.25 0"/>
<feBlend mode="normal" in2="BackgroundImageFix" result="effect1_dropShadow_3548_41"/>
<feBlend mode="normal" in="SourceGraphic" in2="effect1_dropShadow_3548_41" result="shape"/>
</filter>
<filter id="filter4_d_3548_41" x="132.505" y="242.473" width="126.682" height="132.966" filterUnits="userSpaceOnUse" color-interpolation-filters="sRGB">
<feFlood flood-opacity="0" result="BackgroundImageFix"/>
<feColorMatrix in="SourceAlpha" type="matrix" values="0 0 0 0 0 0 0 0 0 0 0 0 0 0 0 0 0 0 127 0" result="hardAlpha"/>
<feOffset dy="1"/>
<feGaussianBlur stdDeviation="15"/>
<feComposite in2="hardAlpha" operator="out"/>
<feColorMatrix type="matrix" values="0 0 0 0 1 0 0 0 0 1 0 0 0 0 1 0 0 0 0.25 0"/>
<feBlend mode="normal" in2="BackgroundImageFix" result="effect1_dropShadow_3548_41"/>
<feBlend mode="normal" in="SourceGraphic" in2="effect1_dropShadow_3548_41" result="shape"/>
</filter>
<filter id="filter5_d_3548_41" x="729.057" y="38.0566" width="205.08" height="139.018" filterUnits="userSpaceOnUse" color-interpolation-filters="sRGB">
<feFlood flood-opacity="0" result="BackgroundImageFix"/>
<feColorMatrix in="SourceAlpha" type="matrix" values="0 0 0 0 0 0 0 0 0 0 0 0 0 0 0 0 0 0 127 0" result="hardAlpha"/>
<feOffset dy="1"/>
<feGaussianBlur stdDeviation="15"/>
<feComposite in2="hardAlpha" operator="out"/>
<feColorMatrix type="matrix" values="0 0 0 0 1 0 0 0 0 1 0 0 0 0 1 0 0 0 0.25 0"/>
<feBlend mode="normal" in2="BackgroundImageFix" result="effect1_dropShadow_3548_41"/>
<feBlend mode="normal" in="SourceGraphic" in2="effect1_dropShadow_3548_41" result="shape"/>
</filter>
<filter id="filter6_d_3548_41" x="747.055" y="176.099" width="221" height="72" filterUnits="userSpaceOnUse" color-interpolation-filters="sRGB">
<feFlood flood-opacity="0" result="BackgroundImageFix"/>
<feColorMatrix in="SourceAlpha" type="matrix" values="0 0 0 0 0 0 0 0 0 0 0 0 0 0 0 0 0 0 127 0" result="hardAlpha"/>
<feOffset dy="1"/>
<feGaussianBlur stdDeviation="15"/>
<feComposite in2="hardAlpha" operator="out"/>
<feColorMatrix type="matrix" values="0 0 0 0 1 0 0 0 0 1 0 0 0 0 1 0 0 0 0.25 0"/>
<feBlend mode="normal" in2="BackgroundImageFix" result="effect1_dropShadow_3548_41"/>
<feBlend mode="normal" in="SourceGraphic" in2="effect1_dropShadow_3548_41" result="shape"/>
</filter>
<filter id="filter7_d_3548_41" x="735.118" y="246.07" width="205.079" height="139.021" filterUnits="userSpaceOnUse" color-interpolation-filters="sRGB">
<feFlood flood-opacity="0" result="BackgroundImageFix"/>
<feColorMatrix in="SourceAlpha" type="matrix" values="0 0 0 0 0 0 0 0 0 0 0 0 0 0 0 0 0 0 127 0" result="hardAlpha"/>
<feOffset dy="1"/>
<feGaussianBlur stdDeviation="15"/>
<feComposite in2="hardAlpha" operator="out"/>
<feColorMatrix type="matrix" values="0 0 0 0 1 0 0 0 0 1 0 0 0 0 1 0 0 0 0.25 0"/>
<feBlend mode="normal" in2="BackgroundImageFix" result="effect1_dropShadow_3548_41"/>
<feBlend mode="normal" in="SourceGraphic" in2="effect1_dropShadow_3548_41" result="shape"/>
</filter>
</defs>
</svg>
