<svg width="695" height="781" viewBox="0 0 695 781" fill="none" xmlns="http://www.w3.org/2000/svg">
<path d="M40 46.5H49.8737L54.6871 49.6249H44.9368L40 46.5Z" fill="white"/>
<path d="M40.9375 41.8125H50.1809L54.6871 49.6248H45.5592L40.9375 41.8125Z" fill="white" fill-opacity="0.75"/>
<path d="M42.1875 37.125H50.5906L54.6872 49.6247H46.3891L42.1875 37.125Z" fill="white" fill-opacity="0.65"/>
<path d="M43.75 32.75H51.1027L54.6872 49.6245H47.4264L43.75 32.75Z" fill="white" fill-opacity="0.4"/>
<path d="M45.3125 29H51.6149L54.6872 49.6244H48.4637L45.3125 29Z" fill="white" fill-opacity="0.25"/>
<path d="M59.998 53.6875H50.1244L45.3109 50.5626H55.0612L59.998 53.6875Z" fill="white"/>
<path d="M59.0605 58.375H49.8171L45.3109 50.5627H54.4388L59.0605 58.375Z" fill="white" fill-opacity="0.75"/>
<path d="M57.8105 63.0625H49.4074L45.3109 50.5628H53.609L57.8105 63.0625Z" fill="white" fill-opacity="0.65"/>
<path d="M56.248 67.4375H48.8953L45.3108 50.563H52.5717L56.248 67.4375Z" fill="white" fill-opacity="0.4"/>
<path d="M54.6855 71.1875H48.3832L45.3108 50.5631H51.5344L54.6855 71.1875Z" fill="white" fill-opacity="0.25"/>
<circle cx="50" cy="50" r="45" stroke="white" stroke-opacity="0.2" stroke-width="10"/>
<rect x="315" y="110" width="324" height="290" rx="14" stroke="white" stroke-opacity="0.2" stroke-width="2"/>
<path d="M468.435 143.76C468.268 143.433 468.117 143.098 467.985 142.755C467.879 142.349 467.828 141.93 467.835 141.51V137.01C467.889 136.375 467.812 135.735 467.608 135.131C467.404 134.528 467.078 133.972 466.65 133.5C465.624 132.66 464.312 132.251 462.99 132.36C462.256 132.356 461.525 132.446 460.815 132.63C460.184 132.779 459.575 133.006 459 133.305C458.849 133.374 458.715 133.477 458.61 133.605C458.538 133.754 458.507 133.92 458.52 134.085V134.775C458.52 135.06 458.61 135.21 458.805 135.21H459.03L459.57 135C460.059 134.809 460.56 134.648 461.07 134.52C461.562 134.404 462.065 134.344 462.57 134.34C463.384 134.256 464.2 134.487 464.85 134.985C465.348 135.618 465.579 136.419 465.495 137.22V138.24C464.94 138.105 464.415 138 463.89 137.925C463.392 137.861 462.892 137.826 462.39 137.82C461.166 137.753 459.96 138.137 459 138.9C458.582 139.248 458.25 139.688 458.029 140.184C457.808 140.681 457.704 141.222 457.725 141.765C457.701 142.26 457.78 142.755 457.959 143.217C458.137 143.679 458.41 144.099 458.76 144.45C459.132 144.806 459.572 145.083 460.054 145.263C460.537 145.444 461.051 145.524 461.565 145.5C462.351 145.512 463.129 145.345 463.841 145.013C464.553 144.68 465.18 144.19 465.675 143.58C465.804 143.863 465.949 144.138 466.11 144.405C466.252 144.637 466.418 144.853 466.605 145.05C466.659 145.109 466.723 145.156 466.795 145.19C466.867 145.223 466.945 145.242 467.025 145.245C467.155 145.247 467.282 145.205 467.385 145.125L468.27 144.54C468.335 144.509 468.393 144.463 468.438 144.406C468.483 144.349 468.515 144.283 468.53 144.212C468.546 144.142 468.546 144.068 468.529 143.998C468.513 143.927 468.481 143.861 468.435 143.805V143.76ZM465.54 140.37C465.548 140.779 465.503 141.188 465.405 141.585C465.339 141.916 465.201 142.229 465 142.5C464.642 142.905 464.188 143.214 463.68 143.4C463.197 143.563 462.69 143.644 462.18 143.64C461.77 143.623 461.374 143.484 461.043 143.241C460.712 142.999 460.461 142.663 460.321 142.277C460.181 141.892 460.159 141.473 460.258 141.074C460.356 140.676 460.571 140.316 460.875 140.04C461.485 139.633 462.214 139.443 462.945 139.5C463.38 139.5 463.815 139.5 464.265 139.575C464.715 139.65 465.135 139.725 465.54 139.815V140.37ZM472.5 144.45C472.543 144.657 472.641 144.849 472.785 145.005C472.945 145.108 473.135 145.155 473.325 145.14H474.525C474.72 145.158 474.915 145.11 475.08 145.005C475.223 144.845 475.317 144.647 475.35 144.435L477.495 135.435L479.67 144.435C479.689 144.644 479.779 144.84 479.925 144.99C480.091 145.107 480.293 145.161 480.495 145.14H481.695C481.882 145.15 482.066 145.097 482.22 144.99C482.37 144.843 482.475 144.655 482.52 144.45L486 133.665C486.051 133.557 486.081 133.44 486.09 133.32C486.096 133.245 486.096 133.17 486.09 133.095C486.098 133.048 486.094 133 486.08 132.954C486.065 132.909 486.04 132.868 486.006 132.834C485.972 132.8 485.931 132.775 485.886 132.76C485.84 132.746 485.792 132.742 485.745 132.75H484.44C484.251 132.744 484.064 132.791 483.9 132.885C483.767 133.04 483.675 133.226 483.63 133.425L481.2 142.785L478.965 133.5C478.939 133.298 478.85 133.108 478.71 132.96C478.539 132.855 478.339 132.807 478.14 132.825H477C476.9 132.808 476.798 132.812 476.7 132.838C476.603 132.864 476.511 132.91 476.433 132.974C476.355 133.038 476.291 133.118 476.247 133.209C476.202 133.3 476.178 133.399 476.175 133.5L474 142.68L471.675 133.5C471.632 133.3 471.539 133.114 471.405 132.96C471.241 132.853 471.045 132.805 470.85 132.825H469.5C469.275 132.825 469.17 132.945 469.17 133.17C469.182 133.36 469.223 133.547 469.29 133.725L472.5 144.45ZM487.5 144.705C488.006 144.964 488.547 145.151 489.105 145.26C489.808 145.427 490.527 145.513 491.25 145.515C491.931 145.518 492.609 145.416 493.26 145.215C493.807 145.057 494.317 144.792 494.76 144.435C495.186 144.105 495.534 143.685 495.78 143.205C496.027 142.701 496.151 142.146 496.14 141.585C496.15 140.881 495.923 140.194 495.495 139.635C494.973 139.006 494.28 138.542 493.5 138.3L491.52 137.67C490.972 137.516 490.461 137.25 490.02 136.89C489.885 136.763 489.778 136.61 489.706 136.439C489.634 136.269 489.597 136.085 489.6 135.9C489.586 135.652 489.641 135.405 489.757 135.186C489.873 134.966 490.047 134.783 490.26 134.655C490.8 134.386 491.397 134.253 492 134.265C492.925 134.248 493.842 134.438 494.685 134.82C494.849 134.905 495.027 134.96 495.21 134.985C495.42 134.985 495.54 134.835 495.54 134.535V133.875C495.55 133.714 495.502 133.554 495.405 133.425C495.297 133.272 495.152 133.149 494.985 133.065C494.797 132.964 494.602 132.879 494.4 132.81C494.145 132.81 493.89 132.66 493.605 132.6L492.705 132.435H491.76C491.167 132.425 490.576 132.5 490.005 132.66C489.464 132.811 488.956 133.06 488.505 133.395C488.09 133.697 487.747 134.086 487.5 134.535C487.249 134.995 487.12 135.511 487.125 136.035C487.131 136.767 487.373 137.477 487.815 138.06C488.392 138.758 489.174 139.256 490.05 139.485L492.075 140.115C492.598 140.232 493.083 140.48 493.485 140.835C493.611 140.964 493.71 141.116 493.777 141.284C493.844 141.451 493.877 141.63 493.875 141.81C493.883 142.078 493.819 142.343 493.69 142.578C493.56 142.813 493.371 143.008 493.14 143.145C492.515 143.481 491.808 143.636 491.1 143.595C490.541 143.599 489.983 143.544 489.435 143.43C488.919 143.325 488.416 143.164 487.935 142.95L487.59 142.8H487.335C487.125 142.8 487.005 142.95 487.005 143.235V144C487.006 144.135 487.037 144.268 487.095 144.39C487.222 144.538 487.388 144.647 487.575 144.705H487.5ZM493.23 151.245C488.233 153.349 482.872 154.455 477.45 154.5C470.157 154.491 462.992 152.584 456.66 148.965C456.15 148.665 455.76 149.19 456.18 149.58C461.888 154.727 469.315 157.552 477 157.5C483.063 157.522 488.992 155.713 494.01 152.31C494.73 151.74 494.07 150.9 493.305 151.245H493.23ZM497.73 148.62C497.235 148.005 492.915 147.465 490.23 149.31C489.825 149.61 489.9 150 490.335 149.94C491.835 149.76 495.135 149.37 495.72 150.12C496.305 150.87 495.06 153.975 494.505 155.37C494.34 155.775 494.7 155.955 495.075 155.625C497.7 153.555 498.345 149.25 497.835 148.62H497.73Z" fill="white"/>
<rect x="365" y="194" width="128" height="69" rx="9" stroke="white" stroke-opacity="0.2" stroke-width="2"/>
<path d="M417.168 234L412.736 222.8H414.336L418.848 234H417.168ZM408.144 234L412.656 222.8H414.256L409.824 234H408.144ZM410.272 231.008V229.6H416.72V231.008H410.272ZM420.12 237.2V226H421.544L421.64 227.472V237.2H420.12ZM424.264 234.192C423.592 234.192 423.006 234.016 422.504 233.664C422.014 233.312 421.635 232.821 421.368 232.192C421.102 231.563 420.968 230.832 420.968 230C420.968 229.157 421.102 228.427 421.368 227.808C421.635 227.179 422.014 226.688 422.504 226.336C423.006 225.984 423.592 225.808 424.264 225.808C424.979 225.808 425.608 225.984 426.152 226.336C426.696 226.688 427.118 227.179 427.416 227.808C427.726 228.427 427.88 229.157 427.88 230C427.88 230.832 427.726 231.563 427.416 232.192C427.118 232.821 426.696 233.312 426.152 233.664C425.608 234.016 424.979 234.192 424.264 234.192ZM423.896 232.816C424.376 232.816 424.798 232.699 425.16 232.464C425.523 232.219 425.806 231.888 426.008 231.472C426.222 231.045 426.328 230.555 426.328 230C426.328 229.445 426.227 228.96 426.024 228.544C425.822 228.117 425.539 227.787 425.176 227.552C424.814 227.307 424.392 227.184 423.912 227.184C423.475 227.184 423.08 227.307 422.728 227.552C422.387 227.787 422.12 228.117 421.928 228.544C421.736 228.971 421.64 229.456 421.64 230C421.64 230.555 421.736 231.045 421.928 231.472C422.12 231.888 422.387 232.219 422.728 232.464C423.07 232.699 423.459 232.816 423.896 232.816ZM429.62 237.2V226H431.044L431.14 227.472V237.2H429.62ZM433.764 234.192C433.092 234.192 432.506 234.016 432.004 233.664C431.514 233.312 431.135 232.821 430.868 232.192C430.602 231.563 430.468 230.832 430.468 230C430.468 229.157 430.602 228.427 430.868 227.808C431.135 227.179 431.514 226.688 432.004 226.336C432.506 225.984 433.092 225.808 433.764 225.808C434.479 225.808 435.108 225.984 435.652 226.336C436.196 226.688 436.618 227.179 436.916 227.808C437.226 228.427 437.38 229.157 437.38 230C437.38 230.832 437.226 231.563 436.916 232.192C436.618 232.821 436.196 233.312 435.652 233.664C435.108 234.016 434.479 234.192 433.764 234.192ZM433.396 232.816C433.876 232.816 434.298 232.699 434.66 232.464C435.023 232.219 435.306 231.888 435.508 231.472C435.722 231.045 435.828 230.555 435.828 230C435.828 229.445 435.727 228.96 435.524 228.544C435.322 228.117 435.039 227.787 434.676 227.552C434.314 227.307 433.892 227.184 433.412 227.184C432.975 227.184 432.58 227.307 432.228 227.552C431.887 227.787 431.62 228.117 431.428 228.544C431.236 228.971 431.14 229.456 431.14 230C431.14 230.555 431.236 231.045 431.428 231.472C431.62 231.888 431.887 232.219 432.228 232.464C432.57 232.699 432.959 232.816 433.396 232.816ZM445.251 234L445.267 223.648L445.411 222.8H446.803L446.787 234H445.251ZM442.787 225.856V224.432C443.021 224.443 443.293 224.368 443.603 224.208C443.923 224.048 444.243 223.84 444.563 223.584C444.883 223.328 445.165 223.061 445.411 222.784L446.387 223.84C446.024 224.224 445.645 224.571 445.251 224.88C444.856 225.189 444.451 225.435 444.035 225.616C443.629 225.797 443.213 225.877 442.787 225.856Z" fill="#CCCCCC"/>
<rect x="365" y="284" width="128" height="69" rx="9" stroke="white" stroke-width="2"/>
<path d="M417.168 324L412.736 312.8H414.336L418.848 324H417.168ZM408.144 324L412.656 312.8H414.256L409.824 324H408.144ZM410.272 321.008V319.6H416.72V321.008H410.272ZM420.12 327.2V316H421.544L421.64 317.472V327.2H420.12ZM424.264 324.192C423.592 324.192 423.006 324.016 422.504 323.664C422.014 323.312 421.635 322.821 421.368 322.192C421.102 321.563 420.968 320.832 420.968 320C420.968 319.157 421.102 318.427 421.368 317.808C421.635 317.179 422.014 316.688 422.504 316.336C423.006 315.984 423.592 315.808 424.264 315.808C424.979 315.808 425.608 315.984 426.152 316.336C426.696 316.688 427.118 317.179 427.416 317.808C427.726 318.427 427.88 319.157 427.88 320C427.88 320.832 427.726 321.563 427.416 322.192C427.118 322.821 426.696 323.312 426.152 323.664C425.608 324.016 424.979 324.192 424.264 324.192ZM423.896 322.816C424.376 322.816 424.798 322.699 425.16 322.464C425.523 322.219 425.806 321.888 426.008 321.472C426.222 321.045 426.328 320.555 426.328 320C426.328 319.445 426.227 318.96 426.024 318.544C425.822 318.117 425.539 317.787 425.176 317.552C424.814 317.307 424.392 317.184 423.912 317.184C423.475 317.184 423.08 317.307 422.728 317.552C422.387 317.787 422.12 318.117 421.928 318.544C421.736 318.971 421.64 319.456 421.64 320C421.64 320.555 421.736 321.045 421.928 321.472C422.12 321.888 422.387 322.219 422.728 322.464C423.07 322.699 423.459 322.816 423.896 322.816ZM429.62 327.2V316H431.044L431.14 317.472V327.2H429.62ZM433.764 324.192C433.092 324.192 432.506 324.016 432.004 323.664C431.514 323.312 431.135 322.821 430.868 322.192C430.602 321.563 430.468 320.832 430.468 320C430.468 319.157 430.602 318.427 430.868 317.808C431.135 317.179 431.514 316.688 432.004 316.336C432.506 315.984 433.092 315.808 433.764 315.808C434.479 315.808 435.108 315.984 435.652 316.336C436.196 316.688 436.618 317.179 436.916 317.808C437.226 318.427 437.38 319.157 437.38 320C437.38 320.832 437.226 321.563 436.916 322.192C436.618 322.821 436.196 323.312 435.652 323.664C435.108 324.016 434.479 324.192 433.764 324.192ZM433.396 322.816C433.876 322.816 434.298 322.699 434.66 322.464C435.023 322.219 435.306 321.888 435.508 321.472C435.722 321.045 435.828 320.555 435.828 320C435.828 319.445 435.727 318.96 435.524 318.544C435.322 318.117 435.039 317.787 434.676 317.552C434.314 317.307 433.892 317.184 433.412 317.184C432.975 317.184 432.58 317.307 432.228 317.552C431.887 317.787 431.62 318.117 431.428 318.544C431.236 318.971 431.14 319.456 431.14 320C431.14 320.555 431.236 321.045 431.428 321.472C431.62 321.888 431.887 322.219 432.228 322.464C432.57 322.699 432.959 322.816 433.396 322.816ZM444.339 323.296L442.787 322.736C442.787 322.405 442.861 322.064 443.011 321.712C443.171 321.349 443.395 320.992 443.683 320.64C443.981 320.288 444.333 319.963 444.739 319.664L446.899 318.064C447.155 317.883 447.384 317.675 447.587 317.44C447.8 317.195 447.965 316.944 448.083 316.688C448.211 316.421 448.275 316.16 448.275 315.904C448.275 315.563 448.189 315.253 448.019 314.976C447.848 314.688 447.608 314.464 447.299 314.304C446.989 314.133 446.621 314.048 446.195 314.048C445.789 314.048 445.432 314.128 445.123 314.288C444.824 314.437 444.573 314.64 444.371 314.896C444.168 315.152 444.024 315.424 443.939 315.712L442.323 315.408C442.44 314.917 442.669 314.459 443.011 314.032C443.352 313.605 443.789 313.264 444.323 313.008C444.856 312.741 445.459 312.608 446.131 312.608C446.899 312.608 447.56 312.752 448.115 313.04C448.68 313.317 449.117 313.707 449.427 314.208C449.736 314.699 449.891 315.264 449.891 315.904C449.891 316.523 449.72 317.093 449.379 317.616C449.048 318.139 448.568 318.645 447.939 319.136L445.939 320.64C445.629 320.864 445.352 321.109 445.107 321.376C444.861 321.643 444.669 321.936 444.531 322.256C444.403 322.565 444.339 322.912 444.339 323.296ZM442.787 324V322.736L443.971 322.592H450.035V324H442.787Z" fill="white"/>
<path d="M507.923 144.6V135.5H509.08L509.158 136.696V144.6H507.923ZM511.29 142.156C510.744 142.156 510.267 142.013 509.86 141.727C509.461 141.441 509.154 141.042 508.937 140.531C508.72 140.02 508.612 139.426 508.612 138.75C508.612 138.065 508.72 137.472 508.937 136.969C509.154 136.458 509.461 136.059 509.86 135.773C510.267 135.487 510.744 135.344 511.29 135.344C511.871 135.344 512.382 135.487 512.824 135.773C513.266 136.059 513.608 136.458 513.851 136.969C514.102 137.472 514.228 138.065 514.228 138.75C514.228 139.426 514.102 140.02 513.851 140.531C513.608 141.042 513.266 141.441 512.824 141.727C512.382 142.013 511.871 142.156 511.29 142.156ZM510.991 141.038C511.381 141.038 511.723 140.943 512.018 140.752C512.313 140.553 512.542 140.284 512.707 139.946C512.88 139.599 512.967 139.201 512.967 138.75C512.967 138.299 512.885 137.905 512.72 137.567C512.555 137.22 512.326 136.952 512.031 136.761C511.736 136.562 511.394 136.462 511.004 136.462C510.649 136.462 510.328 136.562 510.042 136.761C509.765 136.952 509.548 137.22 509.392 137.567C509.236 137.914 509.158 138.308 509.158 138.75C509.158 139.201 509.236 139.599 509.392 139.946C509.548 140.284 509.765 140.553 510.042 140.752C510.319 140.943 510.636 141.038 510.991 141.038ZM516.331 138.503C516.331 137.801 516.465 137.229 516.734 136.787C517.002 136.345 517.349 136.016 517.774 135.799C518.198 135.582 518.645 135.474 519.113 135.474V136.644C518.723 136.644 518.35 136.705 517.995 136.826C517.648 136.939 517.362 137.129 517.137 137.398C516.92 137.658 516.812 138.013 516.812 138.464L516.331 138.503ZM515.577 142V135.5H516.812V142H515.577ZM523.047 142.156C522.397 142.156 521.825 142.013 521.331 141.727C520.837 141.432 520.447 141.029 520.161 140.518C519.884 140.007 519.745 139.417 519.745 138.75C519.745 138.083 519.884 137.493 520.161 136.982C520.438 136.471 520.824 136.072 521.318 135.786C521.812 135.491 522.38 135.344 523.021 135.344C523.662 135.344 524.23 135.491 524.724 135.786C525.218 136.072 525.604 136.471 525.881 136.982C526.158 137.493 526.297 138.083 526.297 138.75C526.297 139.417 526.158 140.007 525.881 140.518C525.604 141.029 525.218 141.432 524.724 141.727C524.239 142.013 523.68 142.156 523.047 142.156ZM523.047 141.025C523.437 141.025 523.784 140.93 524.087 140.739C524.39 140.54 524.624 140.271 524.789 139.933C524.962 139.595 525.049 139.201 525.049 138.75C525.049 138.299 524.962 137.905 524.789 137.567C524.624 137.229 524.386 136.965 524.074 136.774C523.762 136.575 523.411 136.475 523.021 136.475C522.622 136.475 522.271 136.575 521.968 136.774C521.665 136.965 521.426 137.229 521.253 137.567C521.08 137.905 520.993 138.299 520.993 138.75C520.993 139.201 521.08 139.595 521.253 139.933C521.426 140.271 521.669 140.54 521.981 140.739C522.293 140.93 522.648 141.025 523.047 141.025ZM532.408 142L532.356 140.791V132.9H533.578V142H532.408ZM530.224 142.156C529.635 142.156 529.119 142.013 528.677 141.727C528.244 141.441 527.901 141.042 527.65 140.531C527.407 140.02 527.286 139.426 527.286 138.75C527.286 138.065 527.407 137.472 527.65 136.969C527.901 136.458 528.244 136.059 528.677 135.773C529.119 135.487 529.635 135.344 530.224 135.344C530.77 135.344 531.242 135.487 531.641 135.773C532.048 136.059 532.36 136.458 532.577 136.969C532.794 137.472 532.902 138.065 532.902 138.75C532.902 139.426 532.794 140.02 532.577 140.531C532.36 141.042 532.048 141.441 531.641 141.727C531.242 142.013 530.77 142.156 530.224 142.156ZM530.51 141.038C530.874 141.038 531.195 140.943 531.472 140.752C531.749 140.553 531.966 140.284 532.122 139.946C532.278 139.599 532.356 139.201 532.356 138.75C532.356 138.299 532.278 137.905 532.122 137.567C531.966 137.22 531.749 136.952 531.472 136.761C531.195 136.562 530.87 136.462 530.497 136.462C530.116 136.462 529.778 136.562 529.483 136.761C529.188 136.952 528.959 137.22 528.794 137.567C528.629 137.905 528.547 138.299 528.547 138.75C528.547 139.201 528.629 139.599 528.794 139.946C528.967 140.284 529.201 140.553 529.496 140.752C529.791 140.943 530.129 141.038 530.51 141.038Z" fill="#CCCCCC"/>
<g clip-path="url(#clip0_3643_749)">
<path d="M177.917 296C177.662 297.48 176.862 298.81 175.674 299.729C174.486 300.648 172.997 301.088 171.5 300.963C170.004 300.837 168.608 300.155 167.59 299.051C166.572 297.947 166.005 296.501 166 295C165.999 293.494 166.563 292.043 167.582 290.935C168.6 289.826 169.998 289.141 171.498 289.015C172.998 288.889 174.491 289.332 175.68 290.255C176.869 291.179 177.667 292.515 177.917 294H188V296H186V300H184V296H182V300H180V296H177.917ZM172 299C173.061 299 174.078 298.578 174.828 297.828C175.579 297.078 176 296.06 176 295C176 293.939 175.579 292.921 174.828 292.171C174.078 291.421 173.061 291 172 291C170.939 291 169.922 291.421 169.172 292.171C168.421 292.921 168 293.939 168 295C168 296.06 168.421 297.078 169.172 297.828C169.922 298.578 170.939 299 172 299Z" fill="white"/>
</g>
<rect x="315" y="437" width="324" height="290" rx="14" stroke="white" stroke-opacity="0.2" stroke-width="2"/>
<path d="M468.435 470.76C468.268 470.433 468.117 470.098 467.985 469.755C467.879 469.349 467.828 468.93 467.835 468.51V464.01C467.889 463.375 467.812 462.735 467.608 462.131C467.404 461.528 467.078 460.972 466.65 460.5C465.624 459.66 464.312 459.251 462.99 459.36C462.256 459.356 461.525 459.446 460.815 459.63C460.184 459.779 459.575 460.006 459 460.305C458.849 460.374 458.715 460.477 458.61 460.605C458.538 460.754 458.507 460.92 458.52 461.085V461.775C458.52 462.06 458.61 462.21 458.805 462.21H459.03L459.57 462C460.059 461.809 460.56 461.648 461.07 461.52C461.562 461.404 462.065 461.344 462.57 461.34C463.384 461.256 464.2 461.487 464.85 461.985C465.348 462.618 465.579 463.419 465.495 464.22V465.24C464.94 465.105 464.415 465 463.89 464.925C463.392 464.861 462.892 464.826 462.39 464.82C461.166 464.753 459.96 465.137 459 465.9C458.582 466.248 458.25 466.688 458.029 467.184C457.808 467.681 457.704 468.222 457.725 468.765C457.701 469.26 457.78 469.755 457.959 470.217C458.137 470.679 458.41 471.099 458.76 471.45C459.132 471.806 459.572 472.083 460.054 472.263C460.537 472.444 461.051 472.524 461.565 472.5C462.351 472.512 463.129 472.345 463.841 472.013C464.553 471.68 465.18 471.19 465.675 470.58C465.804 470.863 465.949 471.138 466.11 471.405C466.252 471.637 466.418 471.853 466.605 472.05C466.659 472.109 466.723 472.156 466.795 472.19C466.867 472.223 466.945 472.242 467.025 472.245C467.155 472.247 467.282 472.205 467.385 472.125L468.27 471.54C468.335 471.509 468.393 471.463 468.438 471.406C468.483 471.349 468.515 471.283 468.53 471.212C468.546 471.142 468.546 471.068 468.529 470.998C468.513 470.927 468.481 470.861 468.435 470.805V470.76ZM465.54 467.37C465.548 467.779 465.503 468.188 465.405 468.585C465.339 468.916 465.201 469.229 465 469.5C464.642 469.905 464.188 470.214 463.68 470.4C463.197 470.563 462.69 470.644 462.18 470.64C461.77 470.623 461.374 470.484 461.043 470.241C460.712 469.999 460.461 469.663 460.321 469.277C460.181 468.892 460.159 468.473 460.258 468.074C460.356 467.676 460.571 467.316 460.875 467.04C461.485 466.633 462.214 466.443 462.945 466.5C463.38 466.5 463.815 466.5 464.265 466.575C464.715 466.65 465.135 466.725 465.54 466.815V467.37ZM472.5 471.45C472.543 471.657 472.641 471.849 472.785 472.005C472.945 472.108 473.135 472.155 473.325 472.14H474.525C474.72 472.158 474.915 472.11 475.08 472.005C475.223 471.845 475.317 471.647 475.35 471.435L477.495 462.435L479.67 471.435C479.689 471.644 479.779 471.84 479.925 471.99C480.091 472.107 480.293 472.161 480.495 472.14H481.695C481.882 472.15 482.066 472.097 482.22 471.99C482.37 471.843 482.475 471.655 482.52 471.45L486 460.665C486.051 460.557 486.081 460.44 486.09 460.32C486.096 460.245 486.096 460.17 486.09 460.095C486.098 460.048 486.094 460 486.08 459.954C486.065 459.909 486.04 459.868 486.006 459.834C485.972 459.8 485.931 459.775 485.886 459.76C485.84 459.746 485.792 459.742 485.745 459.75H484.44C484.251 459.744 484.064 459.791 483.9 459.885C483.767 460.04 483.675 460.226 483.63 460.425L481.2 469.785L478.965 460.5C478.939 460.298 478.85 460.108 478.71 459.96C478.539 459.855 478.339 459.807 478.14 459.825H477C476.9 459.808 476.798 459.812 476.7 459.838C476.603 459.864 476.511 459.91 476.433 459.974C476.355 460.038 476.291 460.118 476.247 460.209C476.202 460.3 476.178 460.399 476.175 460.5L474 469.68L471.675 460.5C471.632 460.3 471.539 460.114 471.405 459.96C471.241 459.853 471.045 459.805 470.85 459.825H469.5C469.275 459.825 469.17 459.945 469.17 460.17C469.182 460.36 469.223 460.547 469.29 460.725L472.5 471.45ZM487.5 471.705C488.006 471.964 488.547 472.151 489.105 472.26C489.808 472.427 490.527 472.513 491.25 472.515C491.931 472.518 492.609 472.416 493.26 472.215C493.807 472.057 494.317 471.792 494.76 471.435C495.186 471.105 495.534 470.685 495.78 470.205C496.027 469.701 496.151 469.146 496.14 468.585C496.15 467.881 495.923 467.194 495.495 466.635C494.973 466.006 494.28 465.542 493.5 465.3L491.52 464.67C490.972 464.516 490.461 464.25 490.02 463.89C489.885 463.763 489.778 463.61 489.706 463.439C489.634 463.269 489.597 463.085 489.6 462.9C489.586 462.652 489.641 462.405 489.757 462.186C489.873 461.966 490.047 461.783 490.26 461.655C490.8 461.386 491.397 461.253 492 461.265C492.925 461.248 493.842 461.438 494.685 461.82C494.849 461.905 495.027 461.96 495.21 461.985C495.42 461.985 495.54 461.835 495.54 461.535V460.875C495.55 460.714 495.502 460.554 495.405 460.425C495.297 460.272 495.152 460.149 494.985 460.065C494.797 459.964 494.602 459.879 494.4 459.81C494.145 459.81 493.89 459.66 493.605 459.6L492.705 459.435H491.76C491.167 459.425 490.576 459.5 490.005 459.66C489.464 459.811 488.956 460.06 488.505 460.395C488.09 460.697 487.747 461.086 487.5 461.535C487.249 461.995 487.12 462.511 487.125 463.035C487.131 463.767 487.373 464.477 487.815 465.06C488.392 465.758 489.174 466.256 490.05 466.485L492.075 467.115C492.598 467.232 493.083 467.48 493.485 467.835C493.611 467.964 493.71 468.116 493.777 468.284C493.844 468.451 493.877 468.63 493.875 468.81C493.883 469.078 493.819 469.343 493.69 469.578C493.56 469.813 493.371 470.008 493.14 470.145C492.515 470.481 491.808 470.636 491.1 470.595C490.541 470.599 489.983 470.544 489.435 470.43C488.919 470.325 488.416 470.164 487.935 469.95L487.59 469.8H487.335C487.125 469.8 487.005 469.95 487.005 470.235V471C487.006 471.135 487.037 471.268 487.095 471.39C487.222 471.538 487.388 471.647 487.575 471.705H487.5ZM493.23 478.245C488.233 480.349 482.872 481.455 477.45 481.5C470.157 481.491 462.992 479.584 456.66 475.965C456.15 475.665 455.76 476.19 456.18 476.58C461.888 481.727 469.315 484.552 477 484.5C483.063 484.522 488.992 482.713 494.01 479.31C494.73 478.74 494.07 477.9 493.305 478.245H493.23ZM497.73 475.62C497.235 475.005 492.915 474.465 490.23 476.31C489.825 476.61 489.9 477 490.335 476.94C491.835 476.76 495.135 476.37 495.72 477.12C496.305 477.87 495.06 480.975 494.505 482.37C494.34 482.775 494.7 482.955 495.075 482.625C497.7 480.555 498.345 476.25 497.835 475.62H497.73Z" fill="white"/>
<rect x="365" y="521" width="128" height="69" rx="9" stroke="white" stroke-width="2"/>
<path d="M417.168 561L412.736 549.8H414.336L418.848 561H417.168ZM408.144 561L412.656 549.8H414.256L409.824 561H408.144ZM410.272 558.008V556.6H416.72V558.008H410.272ZM420.12 564.2V553H421.544L421.64 554.472V564.2H420.12ZM424.264 561.192C423.592 561.192 423.006 561.016 422.504 560.664C422.014 560.312 421.635 559.821 421.368 559.192C421.102 558.563 420.968 557.832 420.968 557C420.968 556.157 421.102 555.427 421.368 554.808C421.635 554.179 422.014 553.688 422.504 553.336C423.006 552.984 423.592 552.808 424.264 552.808C424.979 552.808 425.608 552.984 426.152 553.336C426.696 553.688 427.118 554.179 427.416 554.808C427.726 555.427 427.88 556.157 427.88 557C427.88 557.832 427.726 558.563 427.416 559.192C427.118 559.821 426.696 560.312 426.152 560.664C425.608 561.016 424.979 561.192 424.264 561.192ZM423.896 559.816C424.376 559.816 424.798 559.699 425.16 559.464C425.523 559.219 425.806 558.888 426.008 558.472C426.222 558.045 426.328 557.555 426.328 557C426.328 556.445 426.227 555.96 426.024 555.544C425.822 555.117 425.539 554.787 425.176 554.552C424.814 554.307 424.392 554.184 423.912 554.184C423.475 554.184 423.08 554.307 422.728 554.552C422.387 554.787 422.12 555.117 421.928 555.544C421.736 555.971 421.64 556.456 421.64 557C421.64 557.555 421.736 558.045 421.928 558.472C422.12 558.888 422.387 559.219 422.728 559.464C423.07 559.699 423.459 559.816 423.896 559.816ZM429.62 564.2V553H431.044L431.14 554.472V564.2H429.62ZM433.764 561.192C433.092 561.192 432.506 561.016 432.004 560.664C431.514 560.312 431.135 559.821 430.868 559.192C430.602 558.563 430.468 557.832 430.468 557C430.468 556.157 430.602 555.427 430.868 554.808C431.135 554.179 431.514 553.688 432.004 553.336C432.506 552.984 433.092 552.808 433.764 552.808C434.479 552.808 435.108 552.984 435.652 553.336C436.196 553.688 436.618 554.179 436.916 554.808C437.226 555.427 437.38 556.157 437.38 557C437.38 557.832 437.226 558.563 436.916 559.192C436.618 559.821 436.196 560.312 435.652 560.664C435.108 561.016 434.479 561.192 433.764 561.192ZM433.396 559.816C433.876 559.816 434.298 559.699 434.66 559.464C435.023 559.219 435.306 558.888 435.508 558.472C435.722 558.045 435.828 557.555 435.828 557C435.828 556.445 435.727 555.96 435.524 555.544C435.322 555.117 435.039 554.787 434.676 554.552C434.314 554.307 433.892 554.184 433.412 554.184C432.975 554.184 432.58 554.307 432.228 554.552C431.887 554.787 431.62 555.117 431.428 555.544C431.236 555.971 431.14 556.456 431.14 557C431.14 557.555 431.236 558.045 431.428 558.472C431.62 558.888 431.887 559.219 432.228 559.464C432.57 559.699 432.959 559.816 433.396 559.816ZM445.251 561L445.267 550.648L445.411 549.8H446.803L446.787 561H445.251ZM442.787 552.856V551.432C443.021 551.443 443.293 551.368 443.603 551.208C443.923 551.048 444.243 550.84 444.563 550.584C444.883 550.328 445.165 550.061 445.411 549.784L446.387 550.84C446.024 551.224 445.645 551.571 445.251 551.88C444.856 552.189 444.451 552.435 444.035 552.616C443.629 552.797 443.213 552.877 442.787 552.856Z" fill="white"/>
<rect x="365" y="611" width="128" height="69" rx="9" stroke="white" stroke-opacity="0.2" stroke-width="2"/>
<path d="M417.168 651L412.736 639.8H414.336L418.848 651H417.168ZM408.144 651L412.656 639.8H414.256L409.824 651H408.144ZM410.272 648.008V646.6H416.72V648.008H410.272ZM420.12 654.2V643H421.544L421.64 644.472V654.2H420.12ZM424.264 651.192C423.592 651.192 423.006 651.016 422.504 650.664C422.014 650.312 421.635 649.821 421.368 649.192C421.102 648.563 420.968 647.832 420.968 647C420.968 646.157 421.102 645.427 421.368 644.808C421.635 644.179 422.014 643.688 422.504 643.336C423.006 642.984 423.592 642.808 424.264 642.808C424.979 642.808 425.608 642.984 426.152 643.336C426.696 643.688 427.118 644.179 427.416 644.808C427.726 645.427 427.88 646.157 427.88 647C427.88 647.832 427.726 648.563 427.416 649.192C427.118 649.821 426.696 650.312 426.152 650.664C425.608 651.016 424.979 651.192 424.264 651.192ZM423.896 649.816C424.376 649.816 424.798 649.699 425.16 649.464C425.523 649.219 425.806 648.888 426.008 648.472C426.222 648.045 426.328 647.555 426.328 647C426.328 646.445 426.227 645.96 426.024 645.544C425.822 645.117 425.539 644.787 425.176 644.552C424.814 644.307 424.392 644.184 423.912 644.184C423.475 644.184 423.08 644.307 422.728 644.552C422.387 644.787 422.12 645.117 421.928 645.544C421.736 645.971 421.64 646.456 421.64 647C421.64 647.555 421.736 648.045 421.928 648.472C422.12 648.888 422.387 649.219 422.728 649.464C423.07 649.699 423.459 649.816 423.896 649.816ZM429.62 654.2V643H431.044L431.14 644.472V654.2H429.62ZM433.764 651.192C433.092 651.192 432.506 651.016 432.004 650.664C431.514 650.312 431.135 649.821 430.868 649.192C430.602 648.563 430.468 647.832 430.468 647C430.468 646.157 430.602 645.427 430.868 644.808C431.135 644.179 431.514 643.688 432.004 643.336C432.506 642.984 433.092 642.808 433.764 642.808C434.479 642.808 435.108 642.984 435.652 643.336C436.196 643.688 436.618 644.179 436.916 644.808C437.226 645.427 437.38 646.157 437.38 647C437.38 647.832 437.226 648.563 436.916 649.192C436.618 649.821 436.196 650.312 435.652 650.664C435.108 651.016 434.479 651.192 433.764 651.192ZM433.396 649.816C433.876 649.816 434.298 649.699 434.66 649.464C435.023 649.219 435.306 648.888 435.508 648.472C435.722 648.045 435.828 647.555 435.828 647C435.828 646.445 435.727 645.96 435.524 645.544C435.322 645.117 435.039 644.787 434.676 644.552C434.314 644.307 433.892 644.184 433.412 644.184C432.975 644.184 432.58 644.307 432.228 644.552C431.887 644.787 431.62 645.117 431.428 645.544C431.236 645.971 431.14 646.456 431.14 647C431.14 647.555 431.236 648.045 431.428 648.472C431.62 648.888 431.887 649.219 432.228 649.464C432.57 649.699 432.959 649.816 433.396 649.816ZM444.339 650.296L442.787 649.736C442.787 649.405 442.861 649.064 443.011 648.712C443.171 648.349 443.395 647.992 443.683 647.64C443.981 647.288 444.333 646.963 444.739 646.664L446.899 645.064C447.155 644.883 447.384 644.675 447.587 644.44C447.8 644.195 447.965 643.944 448.083 643.688C448.211 643.421 448.275 643.16 448.275 642.904C448.275 642.563 448.189 642.253 448.019 641.976C447.848 641.688 447.608 641.464 447.299 641.304C446.989 641.133 446.621 641.048 446.195 641.048C445.789 641.048 445.432 641.128 445.123 641.288C444.824 641.437 444.573 641.64 444.371 641.896C444.168 642.152 444.024 642.424 443.939 642.712L442.323 642.408C442.44 641.917 442.669 641.459 443.011 641.032C443.352 640.605 443.789 640.264 444.323 640.008C444.856 639.741 445.459 639.608 446.131 639.608C446.899 639.608 447.56 639.752 448.115 640.04C448.68 640.317 449.117 640.707 449.427 641.208C449.736 641.699 449.891 642.264 449.891 642.904C449.891 643.523 449.72 644.093 449.379 644.616C449.048 645.139 448.568 645.645 447.939 646.136L445.939 647.64C445.629 647.864 445.352 648.109 445.107 648.376C444.861 648.643 444.669 648.936 444.531 649.256C444.403 649.565 444.339 649.912 444.339 650.296ZM442.787 651V649.736L443.971 649.592H450.035V651H442.787Z" fill="#CCCCCC"/>
<path d="M510.367 469.156C509.717 469.156 509.214 468.991 508.859 468.662C508.504 468.324 508.326 467.843 508.326 467.219V460.472H509.561V467.037C509.561 467.358 509.639 467.605 509.795 467.778C509.96 467.943 510.194 468.025 510.497 468.025C510.584 468.025 510.679 468.008 510.783 467.973C510.887 467.938 511.013 467.869 511.16 467.765L511.628 468.727C511.403 468.874 511.186 468.983 510.978 469.052C510.779 469.121 510.575 469.156 510.367 469.156ZM507.221 463.566V462.5H511.407V463.566H507.221ZM515.669 469.156C515.037 469.156 514.478 469.013 513.992 468.727C513.507 468.432 513.126 468.029 512.848 467.518C512.571 467.007 512.432 466.417 512.432 465.75C512.432 465.083 512.571 464.493 512.848 463.982C513.126 463.471 513.507 463.072 513.992 462.786C514.486 462.491 515.05 462.344 515.682 462.344C516.272 462.344 516.792 462.496 517.242 462.799C517.702 463.094 518.057 463.518 518.308 464.073C518.568 464.619 518.698 465.265 518.698 466.01H517.463C517.472 465.455 517.403 464.987 517.255 464.606C517.117 464.225 516.909 463.939 516.631 463.748C516.363 463.549 516.038 463.449 515.656 463.449C515.249 463.449 514.898 463.544 514.603 463.735C514.309 463.917 514.079 464.181 513.914 464.528C513.758 464.866 513.68 465.282 513.68 465.776C513.68 466.235 513.771 466.634 513.953 466.972C514.135 467.301 514.382 467.561 514.694 467.752C515.006 467.934 515.362 468.025 515.76 468.025C516.185 468.025 516.536 467.925 516.813 467.726C517.099 467.527 517.325 467.271 517.489 466.959L518.594 467.466C518.421 467.804 518.196 468.103 517.918 468.363C517.641 468.614 517.312 468.809 516.93 468.948C516.558 469.087 516.137 469.156 515.669 469.156ZM513.238 466.01L513.251 464.996H518.009V466.01H513.238ZM522.246 469.156C521.786 469.156 521.375 469.087 521.011 468.948C520.655 468.809 520.352 468.623 520.101 468.389C519.858 468.155 519.676 467.891 519.555 467.596L520.621 467.128C520.759 467.397 520.967 467.618 521.245 467.791C521.522 467.964 521.83 468.051 522.168 468.051C522.54 468.051 522.848 467.982 523.091 467.843C523.333 467.704 523.455 467.509 523.455 467.258C523.455 467.015 523.364 466.825 523.182 466.686C523 466.547 522.735 466.435 522.389 466.348L521.778 466.192C521.171 466.027 520.699 465.78 520.361 465.451C520.031 465.122 519.867 464.749 519.867 464.333C519.867 463.7 520.07 463.211 520.478 462.864C520.885 462.517 521.487 462.344 522.285 462.344C522.675 462.344 523.03 462.4 523.351 462.513C523.68 462.626 523.957 462.786 524.183 462.994C524.417 463.202 524.581 463.449 524.677 463.735L523.637 464.203C523.533 463.943 523.355 463.752 523.104 463.631C522.852 463.501 522.558 463.436 522.22 463.436C521.873 463.436 521.6 463.514 521.401 463.67C521.201 463.817 521.102 464.025 521.102 464.294C521.102 464.441 521.184 464.584 521.349 464.723C521.522 464.853 521.773 464.961 522.103 465.048L522.805 465.217C523.229 465.321 523.58 465.481 523.858 465.698C524.135 465.906 524.343 466.144 524.482 466.413C524.62 466.673 524.69 466.946 524.69 467.232C524.69 467.622 524.581 467.964 524.365 468.259C524.157 468.545 523.866 468.766 523.494 468.922C523.13 469.078 522.714 469.156 522.246 469.156ZM528.483 469.156C527.833 469.156 527.331 468.991 526.975 468.662C526.62 468.324 526.442 467.843 526.442 467.219V460.472H527.677V467.037C527.677 467.358 527.755 467.605 527.911 467.778C528.076 467.943 528.31 468.025 528.613 468.025C528.7 468.025 528.795 468.008 528.899 467.973C529.003 467.938 529.129 467.869 529.276 467.765L529.744 468.727C529.519 468.874 529.302 468.983 529.094 469.052C528.895 469.121 528.691 469.156 528.483 469.156ZM525.337 463.566V462.5H529.523V463.566H525.337Z" fill="#CCCCCC"/>
<path d="M50.1228 101L50.1206 289.014C48.7554 312.699 58.4771 328 105.006 328C151.534 328 272.116 328 327 328" stroke="#868BFF" stroke-width="2" stroke-dasharray="4 4"/>
<circle cx="10" cy="10" r="8" transform="matrix(1 0 0 -1 327 338)" stroke="#868BFF" stroke-width="4"/>
<path d="M50.1228 309L50.1206 517.72C48.7554 544.014 58.4771 561 105.006 561C151.534 561 272.116 561 327 561" stroke="#868BFF" stroke-width="2" stroke-dasharray="4 4"/>
<circle cx="10" cy="10" r="8" transform="matrix(1 0 0 -1 327 571)" stroke="#868BFF" stroke-width="4"/>
<g clip-path="url(#clip1_3643_749)">
<path d="M177.917 529C177.662 530.48 176.862 531.81 175.674 532.729C174.486 533.648 172.997 534.088 171.5 533.963C170.004 533.837 168.608 533.155 167.59 532.051C166.572 530.947 166.005 529.501 166 528C165.999 526.494 166.563 525.043 167.582 523.935C168.6 522.826 169.998 522.141 171.498 522.015C172.998 521.889 174.491 522.332 175.68 523.255C176.869 524.179 177.667 525.515 177.917 527H188V529H186V533H184V529H182V533H180V529H177.917ZM172 532C173.061 532 174.078 531.578 174.828 530.828C175.579 530.078 176 529.06 176 528C176 526.939 175.579 525.921 174.828 525.171C174.078 524.421 173.061 524 172 524C170.939 524 169.922 524.421 169.172 525.171C168.421 525.921 168 526.939 168 528C168 529.06 168.421 530.078 169.172 530.828C169.922 531.578 170.939 532 172 532Z" fill="white"/>
</g>
<rect x="266" y="43" width="428" height="737" rx="19" stroke="white" stroke-opacity="0.2" stroke-width="2"/>
<path d="M439.272 78.192C438.184 78.192 437.219 77.9467 436.376 77.456C435.533 76.9653 434.872 76.2827 434.392 75.408C433.923 74.5333 433.688 73.5307 433.688 72.4C433.688 71.2693 433.923 70.272 434.392 69.408C434.872 68.5333 435.528 67.8507 436.36 67.36C437.192 66.8587 438.152 66.608 439.24 66.608C440.328 66.608 441.288 66.8587 442.12 67.36C442.952 67.8507 443.603 68.5333 444.072 69.408C444.541 70.272 444.776 71.2693 444.776 72.4C444.776 73.5307 444.541 74.5333 444.072 75.408C443.603 76.2827 442.952 76.9653 442.12 77.456C441.299 77.9467 440.349 78.192 439.272 78.192ZM439.272 76.752C440.04 76.752 440.717 76.5653 441.304 76.192C441.891 75.8187 442.349 75.3067 442.68 74.656C443.011 74.0053 443.176 73.2533 443.176 72.4C443.176 71.5573 443.005 70.8107 442.664 70.16C442.333 69.4987 441.869 68.9813 441.272 68.608C440.685 68.2347 440.008 68.048 439.24 68.048C438.472 68.048 437.789 68.2347 437.192 68.608C436.595 68.9813 436.125 69.4987 435.784 70.16C435.453 70.8107 435.288 71.5573 435.288 72.4C435.288 73.2533 435.459 74.0053 435.8 74.656C436.141 75.3067 436.611 75.8187 437.208 76.192C437.816 76.5653 438.504 76.752 439.272 76.752ZM447.453 73.696C447.453 72.832 447.618 72.128 447.949 71.584C448.279 71.04 448.706 70.6347 449.229 70.368C449.751 70.1013 450.301 69.968 450.877 69.968V71.408C450.397 71.408 449.938 71.4827 449.501 71.632C449.074 71.7707 448.722 72.0053 448.445 72.336C448.178 72.656 448.045 73.0933 448.045 73.648L447.453 73.696ZM446.525 78V70H448.045V78H446.525ZM455.415 81.408C454.882 81.408 454.396 81.3547 453.959 81.248C453.522 81.152 453.154 81.04 452.855 80.912C452.556 80.784 452.332 80.672 452.183 80.576L452.759 79.344C452.898 79.4293 453.095 79.5253 453.351 79.632C453.607 79.7493 453.906 79.8453 454.247 79.92C454.588 80.0053 454.967 80.048 455.383 80.048C455.874 80.048 456.311 79.9467 456.695 79.744C457.079 79.552 457.378 79.248 457.591 78.832C457.815 78.416 457.927 77.8827 457.927 77.232V70H459.447V77.2C459.447 78.1173 459.271 78.8853 458.919 79.504C458.578 80.1333 458.103 80.608 457.495 80.928C456.898 81.248 456.204 81.408 455.415 81.408ZM455.271 77.888C454.546 77.888 453.911 77.7227 453.367 77.392C452.834 77.0507 452.412 76.5813 452.103 75.984C451.804 75.376 451.655 74.6773 451.655 73.888C451.655 73.0667 451.804 72.352 452.103 71.744C452.412 71.136 452.834 70.6613 453.367 70.32C453.911 69.9787 454.546 69.808 455.271 69.808C455.932 69.808 456.508 69.9787 456.999 70.32C457.5 70.6613 457.884 71.1413 458.151 71.76C458.428 72.368 458.567 73.0827 458.567 73.904C458.567 74.6933 458.428 75.392 458.151 76C457.884 76.5973 457.5 77.0613 456.999 77.392C456.508 77.7227 455.932 77.888 455.271 77.888ZM455.655 76.608C456.103 76.608 456.492 76.4907 456.823 76.256C457.154 76.0107 457.415 75.6853 457.607 75.28C457.799 74.864 457.895 74.3893 457.895 73.856C457.895 73.3227 457.799 72.8533 457.607 72.448C457.415 72.0427 457.148 71.728 456.807 71.504C456.476 71.2693 456.087 71.152 455.639 71.152C455.17 71.152 454.754 71.2693 454.391 71.504C454.039 71.728 453.762 72.0427 453.559 72.448C453.356 72.8533 453.255 73.3227 453.255 73.856C453.255 74.3893 453.356 74.864 453.559 75.28C453.772 75.6853 454.055 76.0107 454.407 76.256C454.77 76.4907 455.186 76.608 455.655 76.608ZM466.452 78L466.372 76.608V73.824C466.372 73.2373 466.303 72.752 466.164 72.368C466.036 71.9733 465.833 71.6747 465.556 71.472C465.289 71.2693 464.932 71.168 464.484 71.168C464.068 71.168 463.7 71.2533 463.38 71.424C463.071 71.5947 462.815 71.8613 462.612 72.224L461.236 71.712C461.428 71.3493 461.673 71.024 461.972 70.736C462.271 70.448 462.628 70.224 463.044 70.064C463.471 69.8933 463.961 69.808 464.516 69.808C465.263 69.808 465.887 69.952 466.388 70.24C466.9 70.528 467.279 70.96 467.524 71.536C467.78 72.1013 467.903 72.8053 467.892 73.648L467.876 78H466.452ZM464.116 78.192C463.167 78.192 462.425 77.9787 461.892 77.552C461.369 77.1147 461.108 76.512 461.108 75.744C461.108 74.9227 461.38 74.2987 461.924 73.872C462.479 73.4347 463.247 73.216 464.228 73.216H466.452V74.416H464.644C463.908 74.416 463.391 74.5333 463.092 74.768C462.793 74.992 462.644 75.3067 462.644 75.712C462.644 76.0853 462.783 76.3787 463.06 76.592C463.348 76.7947 463.743 76.896 464.244 76.896C464.681 76.896 465.055 76.7947 465.364 76.592C465.684 76.3893 465.929 76.1227 466.1 75.792C466.281 75.4507 466.372 75.072 466.372 74.656H467.092C467.092 75.744 466.841 76.608 466.34 77.248C465.839 77.8773 465.097 78.192 464.116 78.192ZM469.806 78V70H471.23L471.326 71.472V78H469.806ZM475.342 78V73.904L476.862 73.424V78H475.342ZM475.342 73.904C475.342 73.1787 475.257 72.6293 475.086 72.256C474.926 71.872 474.697 71.6053 474.398 71.456C474.11 71.3067 473.774 71.2267 473.39 71.216C472.739 71.216 472.233 71.4453 471.87 71.904C471.507 72.3627 471.326 73.008 471.326 73.84H470.67C470.67 72.9973 470.793 72.2773 471.038 71.68C471.283 71.072 471.635 70.608 472.094 70.288C472.563 69.968 473.123 69.808 473.774 69.808C474.734 69.808 475.486 70.1067 476.03 70.704C476.585 71.2907 476.862 72.1973 476.862 73.424L475.342 73.904ZM478.871 78L478.903 70H480.407L480.391 78H478.871ZM479.639 68.304C479.393 68.304 479.18 68.2133 478.999 68.032C478.817 67.84 478.727 67.6213 478.727 67.376C478.727 67.12 478.817 66.9067 478.999 66.736C479.18 66.5547 479.393 66.464 479.639 66.464C479.895 66.464 480.108 66.5547 480.279 66.736C480.46 66.9067 480.551 67.12 480.551 67.376C480.551 67.6213 480.46 67.84 480.279 68.032C480.108 68.2133 479.895 68.304 479.639 68.304ZM483.307 77.712L482.219 76.832L487.627 70.24L488.667 71.136L483.307 77.712ZM482.219 78V76.832L483.195 76.704H488.699V78H482.219ZM482.219 71.296V70H488.667V71.136L487.691 71.296H482.219ZM495.327 78L495.247 76.608V73.824C495.247 73.2373 495.178 72.752 495.039 72.368C494.911 71.9733 494.708 71.6747 494.431 71.472C494.164 71.2693 493.807 71.168 493.359 71.168C492.943 71.168 492.575 71.2533 492.255 71.424C491.946 71.5947 491.69 71.8613 491.487 72.224L490.111 71.712C490.303 71.3493 490.548 71.024 490.847 70.736C491.146 70.448 491.503 70.224 491.919 70.064C492.346 69.8933 492.836 69.808 493.391 69.808C494.138 69.808 494.762 69.952 495.263 70.24C495.775 70.528 496.154 70.96 496.399 71.536C496.655 72.1013 496.778 72.8053 496.767 73.648L496.751 78H495.327ZM492.991 78.192C492.042 78.192 491.3 77.9787 490.767 77.552C490.244 77.1147 489.983 76.512 489.983 75.744C489.983 74.9227 490.255 74.2987 490.799 73.872C491.354 73.4347 492.122 73.216 493.103 73.216H495.327V74.416H493.519C492.783 74.416 492.266 74.5333 491.967 74.768C491.668 74.992 491.519 75.3067 491.519 75.712C491.519 76.0853 491.658 76.3787 491.935 76.592C492.223 76.7947 492.618 76.896 493.119 76.896C493.556 76.896 493.93 76.7947 494.239 76.592C494.559 76.3893 494.804 76.1227 494.975 75.792C495.156 75.4507 495.247 75.072 495.247 74.656H495.967C495.967 75.744 495.716 76.608 495.215 77.248C494.714 77.8773 493.972 78.192 492.991 78.192ZM501.769 78.192C500.969 78.192 500.35 77.9893 499.913 77.584C499.476 77.168 499.257 76.576 499.257 75.808V67.504H500.777V75.584C500.777 75.9787 500.873 76.2827 501.065 76.496C501.268 76.6987 501.556 76.8 501.929 76.8C502.036 76.8 502.153 76.7787 502.281 76.736C502.409 76.6933 502.564 76.608 502.745 76.48L503.321 77.664C503.044 77.8453 502.777 77.9787 502.521 78.064C502.276 78.1493 502.025 78.192 501.769 78.192ZM497.897 71.312V70H503.049V71.312H497.897ZM504.918 78L504.95 70H506.454L506.438 78H504.918ZM505.686 68.304C505.44 68.304 505.227 68.2133 505.046 68.032C504.864 67.84 504.774 67.6213 504.774 67.376C504.774 67.12 504.864 66.9067 505.046 66.736C505.227 66.5547 505.44 66.464 505.686 66.464C505.942 66.464 506.155 66.5547 506.326 66.736C506.507 66.9067 506.598 67.12 506.598 67.376C506.598 67.6213 506.507 67.84 506.326 68.032C506.155 68.2133 505.942 68.304 505.686 68.304ZM512.281 78.192C511.481 78.192 510.777 78.016 510.169 77.664C509.561 77.3013 509.081 76.8053 508.729 76.176C508.388 75.5467 508.217 74.8213 508.217 74C508.217 73.1787 508.388 72.4533 508.729 71.824C509.071 71.1947 509.545 70.704 510.153 70.352C510.761 69.9893 511.46 69.808 512.249 69.808C513.039 69.808 513.737 69.9893 514.345 70.352C514.953 70.704 515.428 71.1947 515.769 71.824C516.111 72.4533 516.281 73.1787 516.281 74C516.281 74.8213 516.111 75.5467 515.769 76.176C515.428 76.8053 514.953 77.3013 514.345 77.664C513.748 78.016 513.06 78.192 512.281 78.192ZM512.281 76.8C512.761 76.8 513.188 76.6827 513.561 76.448C513.935 76.2027 514.223 75.872 514.425 75.456C514.639 75.04 514.745 74.5547 514.745 74C514.745 73.4453 514.639 72.96 514.425 72.544C514.223 72.128 513.929 71.8027 513.545 71.568C513.161 71.3227 512.729 71.2 512.249 71.2C511.759 71.2 511.327 71.3227 510.953 71.568C510.58 71.8027 510.287 72.128 510.073 72.544C509.86 72.96 509.753 73.4453 509.753 74C509.753 74.5547 509.86 75.04 510.073 75.456C510.287 75.872 510.585 76.2027 510.969 76.448C511.353 76.6827 511.791 76.8 512.281 76.8ZM517.947 78V70H519.371L519.467 71.472V78H517.947ZM523.483 78V73.904L525.003 73.424V78H523.483ZM523.483 73.904C523.483 73.1787 523.397 72.6293 523.227 72.256C523.067 71.872 522.837 71.6053 522.539 71.456C522.251 71.3067 521.915 71.2267 521.531 71.216C520.88 71.216 520.373 71.4453 520.011 71.904C519.648 72.3627 519.467 73.008 519.467 73.84H518.811C518.811 72.9973 518.933 72.2773 519.179 71.68C519.424 71.072 519.776 70.608 520.235 70.288C520.704 69.968 521.264 69.808 521.915 69.808C522.875 69.808 523.627 70.1067 524.171 70.704C524.725 71.2907 525.003 72.1973 525.003 73.424L523.483 73.904Z" fill="white"/>
<defs>
<clipPath id="clip0_3643_749">
<rect width="24" height="24" fill="white" transform="translate(165 283)"/>
</clipPath>
<clipPath id="clip1_3643_749">
<rect width="24" height="24" fill="white" transform="translate(165 516)"/>
</clipPath>
</defs>
</svg>
