<svg xmlns="http://www.w3.org/2000/svg" width="374.889" height="62.295" viewBox="0 -4.237 374.889 62.295" enable-background="new 0 -4.237 374.889 62.295">
  <g fill="#eee"><path d="M41.201 7.889v-7.889h-32.058s-9.276-.189-9.276 8.015v27.64s-.315 7.889 9.34 7.889h33.32v-26.126h-19.879v7.825h10.223v10.35h-23.475v-27.704h31.805zM79.696 9.529s4.101-.315 7.131 2.462c0 0 2.02 2.02 2.208 4.355v19.878s.125 3.282-1.766 4.922c-1.893 1.641-3.282 1.893-4.796 2.146l-3.219.189h-23.475s-4.417.253-6.941-1.766c-2.587-2.02-2.398-5.048-2.398-5.048v-19.69s-.253-2.84 2.398-5.112c0 0 1.956-2.208 5.932-2.398h24.928l-.002.062zm-23.477 26.001h23.224v-18.176h-23.224v18.176zM93.075 0h5.301l27.451 28.083v-28.083h9.655v43.48h-5.364l-27.388-28.082v28.082h-9.655zM139.521 9.529h33.888s8.015 0 8.709 6.941v27.01h-33.762s-8.14.189-8.771-6.878v-6.941s-.253-5.806 7.447-7.005c0 0 .694-.063 1.641-.063h23.854v-5.237h-32.878v-7.826h-.127v-.001h-.001zm32.879 20.952h-23.224v5.112h23.224v-5.112zM195.812.253v9.276h8.329v7.825h-8.329v18.174h8.329v7.951h-9.024s-4.608.125-7.131-2.65c0 0-1.893-1.704-1.83-4.166v-36.411l9.656.001zM208.18 9.529h9.53v33.951h-9.53zM255.005 9.529s4.103-.315 7.131 2.462c0 0 2.02 2.02 2.208 4.355v19.878s.125 3.282-1.766 4.922c-1.893 1.641-3.282 1.893-4.796 2.146l-3.219.189h-23.476s-4.418.253-6.941-1.766c-2.587-1.956-2.398-5.048-2.398-5.048v-19.69s-.253-2.84 2.398-5.112c0 0 1.956-2.146 5.932-2.398h24.928v.062h-.001zm-23.538 26.001h23.224v-18.176h-23.224v18.176zM299.621 9.529s4.796-.125 7.005 2.083c2.208 2.146 1.956 4.48 2.02 5.364v26.568h-9.718v-26.126h-20.951v26.126h-9.655v-27.26s-.505-6.311 8.267-6.689h23.034l-.002-.066z"/></g>
  <g fill="#eee"><path d="M339.643 45.651l7.646-8.854 8.965 5.284 2.238 15.976 8.212-.95-2.764-19.828-10.388-6.101 2.268-11.524 2.62 4.848 12.924 1.257s2.759.34 3.487-2.475l.037-.416c.018-2.973-2.866-3.216-2.866-3.216l-9.502-.921-4.738-9.002-19.929.013-7.105 10.431c-.132.191-1.41 2.362.604 4.027l.452.283c.137.109 2.58 1.365 4.297-.95l5.226-7.673h2.334l-3.083 14.828-5.026 7.774-16.386 4.734 1.481 7.342 18.996-4.887zM353.875-4.237c-3.515 0-6.361 2.729-6.361 6.101s2.846 6.109 6.361 6.109 6.369-2.737 6.369-6.109c-.001-3.363-2.856-6.101-6.369-6.101z"/></g>
</svg>