<svg width="100" height="28" fill="none" xmlns="http://www.w3.org/2000/svg"><path d="M6.62 21.98a4.8 4.8 0 0 1-3.31-1.07c-.75-.66-1.16-1.82-1.16-3.23v-7.36H0v-3.3h1.08c.57 0 .99-.17 1.15-.42.25-.25.33-.66.33-1.16V2.96h3.8v4.05h2.99v3.31H6.37v8.44H9.1v3.3H6.62v-.08ZM23.4 21.98c-.74 0-1.4-.25-1.9-.74-.5-.5-.82-1.08-.99-1.9h-.16c-.25.99-.75 1.73-1.5 2.23-.74.5-1.73.74-2.89.74a5.03 5.03 0 0 1-3.47-1.16 4.17 4.17 0 0 1-1.24-3.14c0-1.57.58-2.73 1.73-3.56a8.63 8.63 0 0 1 4.72-1.15h2.4v-.91c0-.75-.17-1.33-.58-1.74-.41-.41-1-.66-1.9-.66-.83 0-1.5.16-1.99.58-.5.33-.9.74-1.24 1.24l-2.48-2.24a7.2 7.2 0 0 1 2.32-2.15c.9-.5 2.15-.74 3.72-.74 2.15 0 3.72.5 4.8 1.4 1.07.91 1.57 2.32 1.57 4.06v6.61h1.4v3.31h-2.31v-.08Zm-5.87-2.56c.75 0 1.33-.17 1.82-.42.5-.25.75-.82.75-1.49v-1.73H18.1c-1.65 0-2.48.58-2.48 1.65v.41c0 .58.17.91.5 1.24.33.34.83.34 1.4.34ZM28.62.81h4.22V13.3H33l1.82-2.81 2.98-3.56h4.72l-5.05 5.79 5.54 9.26h-5.04l-3.4-6.36-1.9 2.15v4.21h-4.22V.81h.17ZM50.62 22.32a7.22 7.22 0 0 1-5.37-2.15 6.09 6.09 0 0 1-1.41-2.49c-.33-.99-.5-2.06-.5-3.22 0-1.16.17-2.23.5-3.23.33-.99.74-1.82 1.32-2.48a5.48 5.48 0 0 1 2.24-1.57 7.1 7.1 0 0 1 2.97-.58c1.24 0 2.32.25 3.23.66A6.23 6.23 0 0 1 57 11.4c.24.9.4 1.9.4 2.9v1.23h-9.67v.25c0 1 .25 1.74.82 2.32.58.58 1.41.82 2.49.82.9 0 1.57-.16 2.15-.5a7.41 7.41 0 0 0 1.57-1.23l2.15 2.64a6.87 6.87 0 0 1-2.65 1.82 9.85 9.85 0 0 1-3.64.67Zm-.08-12.58c-.83 0-1.57.25-1.99.83-.5.58-.74 1.32-.74 2.23v.25h5.3v-.25c0-.9-.17-1.65-.59-2.23a2.45 2.45 0 0 0-1.98-.83ZM69.31 5.36c-.83 0-1.49-.17-1.9-.58a2 2 0 0 1-.58-1.5v-.65a2 2 0 0 1 .58-1.5c.41-.4 1-.57 1.9-.57.83 0 1.49.16 1.9.58a2 2 0 0 1 .58 1.49v.66a2 2 0 0 1-.58 1.49c-.41.41-1.07.58-1.9.58Zm-2.15 1.57h4.22v15.05h-4.22V6.93ZM80.65 21.98a4.8 4.8 0 0 1-3.31-1.07c-.75-.66-1.16-1.82-1.16-3.23v-7.36h-2.15v-3.3h1.08c.57 0 .99-.17 1.15-.42.25-.25.33-.66.33-1.16V2.96h3.8v4.05h2.99v3.31H80.4v8.44h2.73v3.3h-2.48v-.08ZM85.77 27.44v-3.56H100v3.56H85.77Z" fill="#eee"/></svg>
