<svg width="100" height="28" viewBox="0 0 100 28" fill="none" xmlns="http://www.w3.org/2000/svg">
<path d="M12.2591 0H5.5713V5.55563H0V12.106H5.5713V17.7746H12.2591V12.106H17.8247V5.55563H12.2591V0Z" fill='#eee'/>
<path d="M44.293 4.44238V17.7748H50.9751V10.9984H57.6629V17.7748H64.3451V10.9984V4.44238H44.293Z" fill='#eee'/>
<path d="M82.1473 21.1094H68.7773V27.6597H82.1473V21.1094Z" fill='#eee'/>
<path d="M30.3563 3.33447L25.6295 8.048L19.4971 14.1631L24.2239 18.8767L30.3563 12.7615L36.5057 18.888L41.2325 14.1745L35.0831 8.048L30.3563 3.33447Z" fill='#eee'/>
<path d="M75.4874 18.334C79.4877 18.334 82.7306 15.1002 82.7306 11.1111C82.7306 7.12198 79.4877 3.88818 75.4874 3.88818C71.4871 3.88818 68.2441 7.12198 68.2441 11.1111C68.2441 15.1002 71.4871 18.334 75.4874 18.334Z" fill='#eee'/>
<path d="M99.9999 4.44238H86.6299V17.7748H99.9999V4.44238Z" fill='#eee'/>
</svg>
