<svg width="216" height="216" viewBox="0 0 216 216" fill="none" xmlns="http://www.w3.org/2000/svg">
<path fill-rule="evenodd" clip-rule="evenodd" d="M107.934 215.868C167.544 215.868 215.868 167.544 215.868 107.934C215.868 48.3237 167.544 0 107.934 0C48.3237 0 0 48.3237 0 107.934C0 167.544 48.3237 215.868 107.934 215.868Z" fill="#AEC1CE"/>
<mask id="mask0" mask-type="alpha" maskUnits="userSpaceOnUse" x="0" y="0" width="216" height="216">
<path fill-rule="evenodd" clip-rule="evenodd" d="M107.934 215.868C167.544 215.868 215.868 167.544 215.868 107.934C215.868 48.3237 167.544 0 107.934 0C48.3237 0 0 48.3237 0 107.934C0 167.544 48.3237 215.868 107.934 215.868Z" fill="white"/>
</mask>
<g mask="url(#mask0)">
<g filter="url(#filter0_d)">
<path fill-rule="evenodd" clip-rule="evenodd" d="M84.9083 135.841C84.823 142.558 79.3064 147.646 68.3584 150.952C81.5503 160.546 94.7423 168.221 107.934 168.221C121.126 168.221 134.318 160.546 147.51 150.952C136.636 147.643 131.121 142.702 130.964 136.131C130.967 134.96 131.041 109.224 131.09 97.9953C141.403 84.6282 137.615 68.9568 134.383 69.3476C130.417 69.8271 96.0922 37.2543 89.5082 35.5877C82.9241 33.9211 66.1997 39.3058 63.3215 54.3267C60.4432 69.3476 59.2402 107.209 70.1573 122.325C73.2639 126.627 78.2302 128.299 84.9083 127.362C84.9173 130.506 84.9083 135.841 84.9083 135.841Z" fill="url(#paint0_linear)"/>
<mask id="mask1" mask-type="alpha" maskUnits="userSpaceOnUse" x="61" y="35" width="87" height="134">
<path fill-rule="evenodd" clip-rule="evenodd" d="M84.9083 135.841C84.823 142.558 79.3064 147.646 68.3584 150.952C81.5503 160.546 94.7423 168.221 107.934 168.221C121.126 168.221 134.318 160.546 147.51 150.952C136.636 147.643 131.121 142.702 130.964 136.131C130.967 134.96 131.041 109.224 131.09 97.9953C141.403 84.6282 137.615 68.9568 134.383 69.3476C130.417 69.8271 96.0922 37.2543 89.5082 35.5877C82.9241 33.9211 66.1997 39.3058 63.3215 54.3267C60.4432 69.3476 59.2402 107.209 70.1573 122.325C73.2639 126.627 78.2302 128.299 84.9083 127.362C84.9173 130.506 84.9083 135.841 84.9083 135.841Z" fill="white"/>
</mask>
<g mask="url(#mask1)">
<path d="M84.9083 127.362C100.739 125.563 110.812 118.727 110.812 118.727C110.812 118.727 102.178 133.118 84.9083 135.997V127.362Z" fill="#DB6F3D"/>
</g>
<path fill-rule="evenodd" clip-rule="evenodd" d="M136.357 98.2199C141.314 86.2965 161.182 62.0142 144.057 46.9034C138.3 18.8405 106.495 21.9466 85.268 28.4226C71.0013 32.7752 60.2282 41.3747 57.9247 34.8986C43.5335 46.9034 50.7403 58.6441 60.2282 62.0142C68.8386 65.0726 83.3993 68.1304 108.155 65.2522C112.577 64.738 111.651 78.282 114.014 79.7465C117.559 81.9432 120.311 68.1304 130.031 72.2778C139.751 76.4252 133.983 95.6561 123.549 95.6561C119.952 95.6561 118.153 105.548 127.867 110.225C134.918 113.69 133.135 105.967 136.357 98.2199Z" fill="#190120"/>
</g>
<path d="M183.488 172.916C190.338 186.844 194.281 218.968 194.281 218.968H21.5869C21.5869 218.968 25.5318 186.841 32.3803 172.916C39.2288 158.991 79.2232 146.076 79.2232 146.076C86.9321 161.905 129.239 161.903 136.624 146.071C136.624 146.071 176.638 158.988 183.488 172.916Z" fill="white"/>
<mask id="mask2" mask-type="alpha" maskUnits="userSpaceOnUse" x="21" y="146" width="174" height="73">
<path d="M183.488 172.916C190.338 186.844 194.281 218.968 194.281 218.968H21.5869C21.5869 218.968 25.5318 186.841 32.3803 172.916C39.2288 158.991 79.2232 146.076 79.2232 146.076C86.9321 161.905 129.239 161.903 136.624 146.071C136.624 146.071 176.638 158.988 183.488 172.916Z" fill="white"/>
</mask>
<g mask="url(#mask2)">
<path fill-rule="evenodd" clip-rule="evenodd" d="M14.3914 169.816H201.477V175.573H14.3914V169.816ZM14.3914 184.207H201.477V189.964H14.3914V184.207ZM201.477 198.599H14.3914V204.355H201.477V198.599Z" fill="#A4BDFF"/>
</g>
</g>
<defs>
<filter id="filter0_d" x="37.7837" y="19.0247" width="125.104" height="168.197" filterUnits="userSpaceOnUse" color-interpolation-filters="sRGB">
<feFlood flood-opacity="0" result="BackgroundImageFix"/>
<feColorMatrix in="SourceAlpha" type="matrix" values="0 0 0 0 0 0 0 0 0 0 0 0 0 0 0 0 0 0 127 0"/>
<feOffset dy="7"/>
<feGaussianBlur stdDeviation="6"/>
<feColorMatrix type="matrix" values="0 0 0 0 0 0 0 0 0 0 0 0 0 0 0.145098 0 0 0 0.04 0"/>
<feBlend mode="normal" in2="BackgroundImageFix" result="effect1_dropShadow"/>
<feBlend mode="normal" in="SourceGraphic" in2="effect1_dropShadow" result="shape"/>
</filter>
<linearGradient id="paint0_linear" x1="147.51" y1="35.2964" x2="147.51" y2="168.221" gradientUnits="userSpaceOnUse">
<stop stop-color="#E6864E"/>
<stop offset="1" stop-color="#EB965E"/>
</linearGradient>
</defs>
</svg>
